<svg width="420" height="351" xmlns="http://www.w3.org/2000/svg" xmlns:xlink="http://www.w3.org/1999/xlink" overflow="hidden"><defs><clipPath id="clip0"><rect x="0" y="0" width="420" height="351"/></clipPath></defs><g clip-path="url(#clip0)"><path d="M70.8667 106.321 496.067 106.321 496.067 460.634 70.8667 460.634Z" fill="#D2D2D2" transform="matrix(1.00001 0 0 1 -74.0026 -108.001)"/><path d="M106.005 141.459 106.005 425.516 460.929 425.516 460.929 141.459 106.005 141.459ZM460.338 176.893 425.496 176.893 425.496 142.05 460.338 142.05 460.338 176.893ZM283.172 318.626 248.329 318.626 248.329 283.783 283.172 283.783 283.172 318.626ZM248.329 248.35 283.172 248.35 283.172 283.193 248.329 283.193 248.329 248.35ZM283.762 283.783 318.605 283.783 318.605 318.626 283.762 318.626 283.762 283.783ZM283.762 248.35 318.605 248.35 318.605 283.193 283.762 283.193 283.762 248.35ZM319.195 248.35 354.038 248.35 354.038 283.193 319.195 283.193 319.195 248.35ZM319.195 212.917 354.038 212.917 354.038 247.759 319.195 247.759 319.195 212.917ZM318.605 247.759 283.762 247.759 283.762 212.917 318.605 212.917 318.605 247.759ZM283.172 247.759 248.329 247.759 248.329 212.917 283.172 212.917 283.172 247.759ZM247.738 247.759 212.895 247.759 212.895 212.917 247.738 212.917 247.738 247.759ZM247.738 283.192 212.895 283.192 212.895 248.349 247.738 248.349 247.738 283.192ZM247.738 318.626 212.895 318.626 212.895 283.783 247.738 283.783 247.738 318.626ZM247.738 354.059 212.895 354.059 212.895 319.216 247.738 319.216 247.738 354.059ZM248.329 319.216 283.172 319.216 283.172 354.059 248.329 354.059 248.329 319.216ZM283.762 319.216 318.605 319.216 318.605 354.059 283.762 354.059 283.762 319.216ZM319.195 319.216 354.038 319.216 354.038 354.059 319.195 354.059 319.195 319.216ZM319.195 283.783 354.038 283.783 354.038 318.626 319.195 318.626 319.195 283.783ZM354.629 283.783 389.472 283.783 389.472 318.626 354.629 318.626 354.629 283.783ZM354.629 248.35 389.472 248.35 389.472 283.193 354.629 283.193 354.629 248.35ZM354.629 212.917 389.472 212.917 389.472 247.759 354.629 247.759 354.629 212.917ZM354.629 177.483 389.472 177.483 389.472 212.326 354.629 212.326 354.629 177.483ZM354.038 212.326 319.195 212.326 319.195 177.483 354.038 177.483 354.038 212.326ZM318.605 212.326 283.762 212.326 283.762 177.483 318.605 177.483 318.605 212.326ZM283.172 212.326 248.329 212.326 248.329 177.483 283.172 177.483 283.172 212.326ZM247.738 212.326 212.895 212.326 212.895 177.483 247.738 177.483 247.738 212.326ZM212.305 212.326 177.462 212.326 177.462 177.483 212.305 177.483 212.305 212.326ZM212.305 247.759 177.462 247.759 177.462 212.917 212.305 212.917 212.305 247.759ZM212.305 283.192 177.462 283.192 177.462 248.349 212.305 248.349 212.305 283.192ZM212.305 318.626 177.462 318.626 177.462 283.783 212.305 283.783 212.305 318.626ZM212.305 354.059 177.462 354.059 177.462 319.216 212.305 319.216 212.305 354.059ZM212.305 389.492 177.462 389.492 177.462 354.65 212.305 354.65 212.305 389.492ZM212.895 354.65 247.738 354.65 247.738 389.492 212.895 389.492 212.895 354.65ZM248.329 354.65 283.172 354.65 283.172 389.492 248.329 389.492 248.329 354.65ZM283.762 354.65 318.605 354.65 318.605 389.492 283.762 389.492 283.762 354.65ZM319.195 354.65 354.038 354.65 354.038 389.492 319.195 389.492 319.195 354.65ZM354.629 354.65 389.472 354.65 389.472 389.492 354.629 389.492 354.629 354.65ZM354.629 319.216 389.472 319.216 389.472 354.059 354.629 354.059 354.629 319.216ZM390.062 319.216 424.905 319.216 424.905 354.059 390.062 354.059 390.062 319.216ZM390.062 283.783 424.905 283.783 424.905 318.626 390.062 318.626 390.062 283.783ZM390.062 248.35 424.905 248.35 424.905 283.193 390.062 283.193 390.062 248.35ZM390.062 212.917 424.905 212.917 424.905 247.759 390.062 247.759 390.062 212.917ZM390.062 177.483 424.905 177.483 424.905 212.326 390.062 212.326 390.062 177.483ZM390.062 142.05 424.905 142.05 424.905 176.893 390.062 176.893 390.062 142.05ZM389.472 176.893 354.629 176.893 354.629 142.05 389.472 142.05 389.472 176.893ZM354.038 176.893 319.195 176.893 319.195 142.05 354.038 142.05 354.038 176.893ZM318.605 176.893 283.762 176.893 283.762 142.05 318.605 142.05 318.605 176.893ZM283.172 176.893 248.329 176.893 248.329 142.05 283.172 142.05 283.172 176.893ZM247.738 176.893 212.895 176.893 212.895 142.05 247.738 142.05 247.738 176.893ZM212.305 176.893 177.462 176.893 177.462 142.05 212.305 142.05 212.305 176.893ZM176.872 176.893 142.029 176.893 142.029 142.05 176.872 142.05 176.872 176.893ZM176.872 212.326 142.029 212.326 142.029 177.483 176.872 177.483 176.872 212.326ZM176.872 247.759 142.029 247.759 142.029 212.917 176.872 212.917 176.872 247.759ZM176.872 283.192 142.029 283.192 142.029 248.349 176.872 248.349 176.872 283.192ZM176.872 318.626 142.029 318.626 142.029 283.783 176.872 283.783 176.872 318.626ZM176.872 354.059 142.029 354.059 142.029 319.216 176.872 319.216 176.872 354.059ZM176.872 389.492 142.029 389.492 142.029 354.65 176.872 354.65 176.872 389.492ZM176.872 424.926 142.029 424.926 142.029 390.083 176.872 390.083 176.872 424.926ZM177.462 390.083 212.305 390.083 212.305 424.926 177.462 424.926 177.462 390.083ZM212.895 390.083 247.738 390.083 247.738 424.926 212.895 424.926 212.895 390.083ZM248.329 390.083 283.172 390.083 283.172 424.926 248.329 424.926 248.329 390.083ZM283.762 390.083 318.605 390.083 318.605 424.926 283.762 424.926 283.762 390.083ZM319.195 390.083 354.038 390.083 354.038 424.926 319.195 424.926 319.195 390.083ZM354.629 390.083 389.472 390.083 389.472 424.926 354.629 424.926 354.629 390.083ZM390.062 390.083 424.905 390.083 424.905 424.926 390.062 424.926 390.062 390.083ZM390.062 354.65 424.905 354.65 424.905 389.492 390.062 389.492 390.062 354.65ZM425.496 354.65 460.338 354.65 460.338 389.492 425.496 389.492 425.496 354.65ZM425.496 319.216 460.338 319.216 460.338 354.059 425.496 354.059 425.496 319.216ZM425.496 283.783 460.338 283.783 460.338 318.626 425.496 318.626 425.496 283.783ZM425.496 248.35 460.338 248.35 460.338 283.193 425.496 283.193 425.496 248.35ZM425.496 212.917 460.338 212.917 460.338 247.759 425.496 247.759 425.496 212.917ZM425.496 177.483 460.338 177.483 460.338 212.326 425.496 212.326 425.496 177.483ZM106.595 142.05 141.438 142.05 141.438 176.893 106.595 176.893 106.595 142.05ZM106.595 177.483 141.438 177.483 141.438 212.326 106.595 212.326 106.595 177.483ZM106.595 212.917 141.438 212.917 141.438 247.759 106.595 247.759 106.595 212.917ZM106.595 248.35 141.438 248.35 141.438 283.193 106.595 283.193 106.595 248.35ZM106.595 283.783 141.438 283.783 141.438 318.626 106.595 318.626 106.595 283.783ZM106.595 319.216 141.438 319.216 141.438 354.059 106.595 354.059 106.595 319.216ZM106.595 354.65 141.438 354.65 141.438 389.492 106.595 389.492 106.595 354.65ZM106.595 390.083 141.438 390.083 141.438 424.926 106.595 424.926 106.595 390.083ZM425.496 390.083 460.338 390.083 460.338 424.926 425.496 424.926 425.496 390.083Z" fill="#E6E6E6" transform="matrix(1.00001 0 0 1 -74.0026 -108.001)"/><path d="M109.508 167.687 209.729 67.4664 345.178 202.914 244.957 303.134Z" fill="#FFC000"/><path d="M284.648 164.525 425.2 164.525 425.2 377.125 284.648 377.125Z" fill="#737373" transform="matrix(1.00001 0 0 1 -74.0026 -108.001)"/><path d="M283.467 162.512 425.2 162.512 425.2 375.112 283.467 375.112Z" fill="#E6E6E6" transform="matrix(1.00001 0 0 1 -74.0026 -108.001)"/><path d="M283.467 162.512 425.2 162.512 425.2 176.685 283.467 176.685Z" fill="#737373" transform="matrix(1.00001 0 0 1 -74.0026 -108.001)"/><path d="M295.364 197.65 413.389 197.65 413.389 198.241 295.364 198.241Z" fill="#D2D2D2" transform="matrix(1.00001 0 0 1 -74.0026 -108.001)"/><path d="M295.278 204.737 413.303 204.737 413.303 205.327 295.278 205.327Z" fill="#D2D2D2" transform="matrix(1.00001 0 0 1 -74.0026 -108.001)"/><path d="M295.364 211.824 413.389 211.824 413.389 212.414 295.364 212.414Z" fill="#D2D2D2" transform="matrix(1.00001 0 0 1 -74.0026 -108.001)"/><path d="M295.278 218.91 413.303 218.91 413.303 219.501 295.278 219.501Z" fill="#D2D2D2" transform="matrix(1.00001 0 0 1 -74.0026 -108.001)"/><path d="M295.364 225.997 413.389 225.997 413.389 226.587 295.364 226.587Z" fill="#D2D2D2" transform="matrix(1.00001 0 0 1 -74.0026 -108.001)"/><path d="M295.278 233.084 413.303 233.084 413.303 233.674 295.278 233.674Z" fill="#D2D2D2" transform="matrix(1.00001 0 0 1 -74.0026 -108.001)"/><path d="M295.364 240.17 413.389 240.17 413.389 240.761 295.364 240.761Z" fill="#D2D2D2" transform="matrix(1.00001 0 0 1 -74.0026 -108.001)"/><path d="M295.278 247.257 413.303 247.257 413.303 247.847 295.278 247.847Z" fill="#D2D2D2" transform="matrix(1.00001 0 0 1 -74.0026 -108.001)"/><path d="M295.364 254.344 413.389 254.344 413.389 254.934 295.364 254.934Z" fill="#D2D2D2" transform="matrix(1.00001 0 0 1 -74.0026 -108.001)"/><path d="M295.278 261.43 413.303 261.43 413.303 262.021 295.278 262.021Z" fill="#D2D2D2" transform="matrix(1.00001 0 0 1 -74.0026 -108.001)"/><path d="M295.364 268.517 413.389 268.517 413.389 269.107 295.364 269.107Z" fill="#D2D2D2" transform="matrix(1.00001 0 0 1 -74.0026 -108.001)"/><path d="M295.278 275.604 413.303 275.604 413.303 276.194 295.278 276.194Z" fill="#D2D2D2" transform="matrix(1.00001 0 0 1 -74.0026 -108.001)"/><path d="M295.364 282.69 413.389 282.69 413.389 283.281 295.364 283.281Z" fill="#D2D2D2" transform="matrix(1.00001 0 0 1 -74.0026 -108.001)"/><path d="M295.278 289.778 413.303 289.778 413.303 290.368 295.278 290.368Z" fill="#D2D2D2" transform="matrix(1.00001 0 0 1 -74.0026 -108.001)"/><path d="M295.364 296.864 413.389 296.864 413.389 297.455 295.364 297.455Z" fill="#D2D2D2" transform="matrix(1.00001 0 0 1 -74.0026 -108.001)"/><path d="M295.278 303.951 413.303 303.951 413.303 304.541 295.278 304.541Z" fill="#D2D2D2" transform="matrix(1.00001 0 0 1 -74.0026 -108.001)"/><path d="M295.364 311.038 413.389 311.038 413.389 311.628 295.364 311.628Z" fill="#D2D2D2" transform="matrix(1.00001 0 0 1 -74.0026 -108.001)"/><path d="M295.278 318.124 413.303 318.124 413.303 318.715 295.278 318.715Z" fill="#D2D2D2" transform="matrix(1.00001 0 0 1 -74.0026 -108.001)"/><path d="M295.364 325.211 413.389 325.211 413.389 325.801 295.364 325.801Z" fill="#D2D2D2" transform="matrix(1.00001 0 0 1 -74.0026 -108.001)"/><path d="M295.278 332.298 413.303 332.298 413.303 332.888 295.278 332.888Z" fill="#D2D2D2" transform="matrix(1.00001 0 0 1 -74.0026 -108.001)"/><path d="M295.364 339.384 413.389 339.384 413.389 339.975 295.364 339.975Z" fill="#D2D2D2" transform="matrix(1.00001 0 0 1 -74.0026 -108.001)"/><path d="M295.278 346.471 413.303 346.471 413.303 347.061 295.278 347.061Z" fill="#D2D2D2" transform="matrix(1.00001 0 0 1 -74.0026 -108.001)"/><path d="M295.364 353.558 413.389 353.558 413.389 354.148 295.364 354.148Z" fill="#D2D2D2" transform="matrix(1.00001 0 0 1 -74.0026 -108.001)"/><path d="M308.27 170.08C308.27 172.037 306.684 173.623 304.727 173.623 302.77 173.623 301.184 172.037 301.184 170.08 301.184 168.123 302.77 166.537 304.727 166.537 306.684 166.537 308.27 168.123 308.27 170.08" fill="#505050" transform="matrix(1.00001 0 0 1 -74.0026 -108.001)"/><path d="M407.484 170.08C407.484 172.037 405.897 173.623 403.94 173.623 401.983 173.623 400.397 172.037 400.397 170.08 400.397 168.123 401.983 166.537 403.94 166.537 405.897 166.537 407.484 168.123 407.484 170.08" fill="#505050" transform="matrix(1.00001 0 0 1 -74.0026 -108.001)"/><path d="M320.081 199.958 460.634 199.958 460.634 412.558 320.081 412.558Z" fill="#737373" transform="matrix(1.00001 0 0 1 -74.0026 -108.001)"/><path d="M460.634 410.546 334.845 410.546 318.9 410.546 318.9 197.945 460.634 197.945Z" fill="#FFFFFF" transform="matrix(1.00001 0 0 1 -74.0026 -108.001)"/><path d="M318.9 197.945 460.634 197.945 460.634 212.119 318.9 212.119Z" fill="#FFC000" transform="matrix(1.00001 0 0 1 -74.0026 -108.001)"/><path d="M330.416 233.084 330.416 389.581 451.48 389.581 451.48 233.084 330.416 233.084ZM387.786 332.298 387.786 325.801 394.282 325.801 394.282 332.298 387.786 332.298ZM394.282 332.888 394.282 339.384 387.786 339.384 387.786 332.888 394.282 332.888ZM394.282 290.368 394.282 296.864 387.786 296.864 387.786 290.368 394.282 290.368ZM387.786 289.778 387.786 283.281 394.282 283.281 394.282 289.778 387.786 289.778ZM387.786 318.124 387.786 311.628 394.282 311.628 394.282 318.124 387.786 318.124ZM394.282 318.715 394.282 325.211 387.786 325.211 387.786 318.715 394.282 318.715ZM387.786 311.038 387.786 304.541 394.282 304.541 394.282 311.038 387.786 311.038ZM387.786 303.951 387.786 297.455 394.282 297.455 394.282 303.951 387.786 303.951ZM387.196 296.864 380.7 296.864 380.7 290.368 387.196 290.368 387.196 296.864ZM387.196 297.455 387.196 303.951 380.7 303.951 380.7 297.455 387.196 297.455ZM387.196 304.541 387.196 311.038 380.7 311.038 380.7 304.541 387.196 304.541ZM387.196 311.628 387.196 318.124 380.7 318.124 380.7 311.628 387.196 311.628ZM387.196 318.715 387.196 325.211 380.7 325.211 380.7 318.715 387.196 318.715ZM387.196 325.801 387.196 332.298 380.7 332.298 380.7 325.801 387.196 325.801ZM394.873 325.801 401.369 325.801 401.369 332.298 394.873 332.298 394.873 325.801ZM394.873 325.211 394.873 318.715 401.369 318.715 401.369 325.211 394.873 325.211ZM394.873 318.124 394.873 311.628 401.369 311.628 401.369 318.124 394.873 318.124ZM394.873 311.038 394.873 304.541 401.369 304.541 401.369 311.038 394.873 311.038ZM394.873 303.951 394.873 297.455 401.369 297.455 401.369 303.951 394.873 303.951ZM394.873 296.864 394.873 290.368 401.369 290.368 401.369 296.864 394.873 296.864ZM394.873 289.778 394.873 283.281 401.369 283.281 401.369 289.778 394.873 289.778ZM394.873 282.69 394.873 276.194 401.369 276.194 401.369 282.69 394.873 282.69ZM394.282 282.69 387.786 282.69 387.786 276.194 394.282 276.194 394.282 282.69ZM387.196 282.69 380.7 282.69 380.7 276.194 387.196 276.194 387.196 282.69ZM387.196 283.281 387.196 289.777 380.7 289.777 380.7 283.281 387.196 283.281ZM380.109 289.778 373.613 289.778 373.613 283.281 380.109 283.281 380.109 289.778ZM380.109 290.368 380.109 296.864 373.613 296.864 373.613 290.368 380.109 290.368ZM380.109 297.455 380.109 303.951 373.613 303.951 373.613 297.455 380.109 297.455ZM380.109 304.541 380.109 311.038 373.613 311.038 373.613 304.541 380.109 304.541ZM380.109 311.628 380.109 318.124 373.613 318.124 373.613 311.628 380.109 311.628ZM380.109 318.715 380.109 325.211 373.613 325.211 373.613 318.715 380.109 318.715ZM380.109 325.801 380.109 332.298 373.613 332.298 373.613 325.801 380.109 325.801ZM380.109 332.888 380.109 339.384 373.613 339.384 373.613 332.888 380.109 332.888ZM380.7 332.888 387.196 332.888 387.196 339.384 380.7 339.384 380.7 332.888ZM387.196 339.975 387.196 346.471 380.7 346.471 380.7 339.975 387.196 339.975ZM387.786 339.975 394.282 339.975 394.282 346.471 387.786 346.471 387.786 339.975ZM394.873 339.975 401.369 339.975 401.369 346.471 394.873 346.471 394.873 339.975ZM394.873 339.384 394.873 332.888 401.369 332.888 401.369 339.384 394.873 339.384ZM401.96 332.888 408.456 332.888 408.456 339.384 401.96 339.384 401.96 332.888ZM401.96 332.298 401.96 325.801 408.456 325.801 408.456 332.298 401.96 332.298ZM401.96 325.211 401.96 318.715 408.456 318.715 408.456 325.211 401.96 325.211ZM401.96 318.124 401.96 311.628 408.456 311.628 408.456 318.124 401.96 318.124ZM401.96 311.038 401.96 304.541 408.456 304.541 408.456 311.038 401.96 311.038ZM401.96 303.951 401.96 297.455 408.456 297.455 408.456 303.951 401.96 303.951ZM401.96 296.864 401.96 290.368 408.456 290.368 408.456 296.864 401.96 296.864ZM401.96 289.778 401.96 283.281 408.456 283.281 408.456 289.778 401.96 289.778ZM401.96 282.69 401.96 276.194 408.456 276.194 408.456 282.69 401.96 282.69ZM401.96 275.604 401.96 269.107 408.456 269.107 408.456 275.604 401.96 275.604ZM401.369 275.604 394.873 275.604 394.873 269.107 401.369 269.107 401.369 275.604ZM394.282 275.604 387.786 275.604 387.786 269.107 394.282 269.107 394.282 275.604ZM387.196 275.604 380.7 275.604 380.7 269.107 387.196 269.107 387.196 275.604ZM380.109 275.604 373.613 275.604 373.613 269.107 380.109 269.107 380.109 275.604ZM380.109 276.194 380.109 282.69 373.613 282.69 373.613 276.194 380.109 276.194ZM373.022 282.69 366.526 282.69 366.526 276.194 373.022 276.194 373.022 282.69ZM373.022 283.281 373.022 289.777 366.526 289.777 366.526 283.281 373.022 283.281ZM373.022 290.368 373.022 296.864 366.526 296.864 366.526 290.368 373.022 290.368ZM373.022 297.455 373.022 303.951 366.526 303.951 366.526 297.455 373.022 297.455ZM373.022 304.541 373.022 311.038 366.526 311.038 366.526 304.541 373.022 304.541ZM373.022 311.628 373.022 318.124 366.526 318.124 366.526 311.628 373.022 311.628ZM373.022 318.715 373.022 325.211 366.526 325.211 366.526 318.715 373.022 318.715ZM373.022 325.801 373.022 332.298 366.526 332.298 366.526 325.801 373.022 325.801ZM373.022 332.888 373.022 339.384 366.526 339.384 366.526 332.888 373.022 332.888ZM373.022 339.975 373.022 346.471 366.526 346.471 366.526 339.975 373.022 339.975ZM373.613 339.975 380.109 339.975 380.109 346.471 373.613 346.471 373.613 339.975ZM380.109 347.061 380.109 353.558 373.613 353.558 373.613 347.061 380.109 347.061ZM380.7 347.061 387.196 347.061 387.196 353.558 380.7 353.558 380.7 347.061ZM387.786 347.061 394.282 347.061 394.282 353.558 387.786 353.558 387.786 347.061ZM394.873 347.061 401.369 347.061 401.369 353.558 394.873 353.558 394.873 347.061ZM401.96 347.061 408.456 347.061 408.456 353.558 401.96 353.558 401.96 347.061ZM401.96 346.471 401.96 339.975 408.456 339.975 408.456 346.471 401.96 346.471ZM409.046 339.975 415.542 339.975 415.542 346.471 409.046 346.471 409.046 339.975ZM409.046 339.384 409.046 332.888 415.542 332.888 415.542 339.384 409.046 339.384ZM409.046 332.298 409.046 325.801 415.542 325.801 415.542 332.298 409.046 332.298ZM409.046 325.211 409.046 318.715 415.542 318.715 415.542 325.211 409.046 325.211ZM409.046 318.124 409.046 311.628 415.542 311.628 415.542 318.124 409.046 318.124ZM409.046 311.038 409.046 304.541 415.542 304.541 415.542 311.038 409.046 311.038ZM409.046 303.951 409.046 297.455 415.542 297.455 415.542 303.951 409.046 303.951ZM409.046 296.864 409.046 290.368 415.542 290.368 415.542 296.864 409.046 296.864ZM409.046 289.778 409.046 283.281 415.542 283.281 415.542 289.778 409.046 289.778ZM409.046 282.69 409.046 276.194 415.542 276.194 415.542 282.69 409.046 282.69ZM409.046 275.604 409.046 269.107 415.542 269.107 415.542 275.604 409.046 275.604ZM409.046 268.517 409.046 262.021 415.542 262.021 415.542 268.517 409.046 268.517ZM408.456 268.517 401.96 268.517 401.96 262.021 408.456 262.021 408.456 268.517ZM401.369 268.517 394.873 268.517 394.873 262.021 401.369 262.021 401.369 268.517ZM394.282 268.517 387.786 268.517 387.786 262.021 394.282 262.021 394.282 268.517ZM387.196 268.517 380.7 268.517 380.7 262.021 387.196 262.021 387.196 268.517ZM380.109 268.517 373.613 268.517 373.613 262.021 380.109 262.021 380.109 268.517ZM373.022 268.517 366.526 268.517 366.526 262.021 373.022 262.021 373.022 268.517ZM373.022 269.107 373.022 275.604 366.526 275.604 366.526 269.107 373.022 269.107ZM365.936 275.604 359.44 275.604 359.44 269.107 365.936 269.107 365.936 275.604ZM365.936 276.194 365.936 282.69 359.44 282.69 359.44 276.194 365.936 276.194ZM365.936 283.281 365.936 289.777 359.44 289.777 359.44 283.281 365.936 283.281ZM365.936 290.368 365.936 296.864 359.44 296.864 359.44 290.368 365.936 290.368ZM365.936 297.455 365.936 303.951 359.44 303.951 359.44 297.455 365.936 297.455ZM365.936 304.541 365.936 311.038 359.44 311.038 359.44 304.541 365.936 304.541ZM365.936 311.628 365.936 318.124 359.44 318.124 359.44 311.628 365.936 311.628ZM365.936 318.715 365.936 325.211 359.44 325.211 359.44 318.715 365.936 318.715ZM365.936 325.801 365.936 332.298 359.44 332.298 359.44 325.801 365.936 325.801ZM365.936 332.888 365.936 339.384 359.44 339.384 359.44 332.888 365.936 332.888ZM365.936 339.975 365.936 346.471 359.44 346.471 359.44 339.975 365.936 339.975ZM365.936 347.061 365.936 353.558 359.44 353.558 359.44 347.061 365.936 347.061ZM366.526 347.061 373.022 347.061 373.022 353.558 366.526 353.558 366.526 347.061ZM373.022 354.148 373.022 360.644 366.526 360.644 366.526 354.148 373.022 354.148ZM373.613 354.148 380.109 354.148 380.109 360.644 373.613 360.644 373.613 354.148ZM380.7 354.148 387.196 354.148 387.196 360.644 380.7 360.644 380.7 354.148ZM387.786 354.148 394.282 354.148 394.282 360.644 387.786 360.644 387.786 354.148ZM394.873 354.148 401.369 354.148 401.369 360.644 394.873 360.644 394.873 354.148ZM401.96 354.148 408.456 354.148 408.456 360.644 401.96 360.644 401.96 354.148ZM409.046 354.148 415.542 354.148 415.542 360.644 409.046 360.644 409.046 354.148ZM409.046 353.558 409.046 347.061 415.542 347.061 415.542 353.558 409.046 353.558ZM416.133 347.061 422.629 347.061 422.629 353.558 416.133 353.558 416.133 347.061ZM416.133 346.471 416.133 339.975 422.629 339.975 422.629 346.471 416.133 346.471ZM416.133 339.384 416.133 332.888 422.629 332.888 422.629 339.384 416.133 339.384ZM416.133 332.298 416.133 325.801 422.629 325.801 422.629 332.298 416.133 332.298ZM416.133 325.211 416.133 318.715 422.629 318.715 422.629 325.211 416.133 325.211ZM416.133 318.124 416.133 311.628 422.629 311.628 422.629 318.124 416.133 318.124ZM416.133 311.038 416.133 304.541 422.629 304.541 422.629 311.038 416.133 311.038ZM416.133 303.951 416.133 297.455 422.629 297.455 422.629 303.951 416.133 303.951ZM416.133 296.864 416.133 290.368 422.629 290.368 422.629 296.864 416.133 296.864ZM416.133 289.778 416.133 283.281 422.629 283.281 422.629 289.778 416.133 289.778ZM416.133 282.69 416.133 276.194 422.629 276.194 422.629 282.69 416.133 282.69ZM416.133 275.604 416.133 269.107 422.629 269.107 422.629 275.604 416.133 275.604ZM416.133 268.517 416.133 262.021 422.629 262.021 422.629 268.517 416.133 268.517ZM416.133 261.43 416.133 254.934 422.629 254.934 422.629 261.43 416.133 261.43ZM415.542 261.43 409.046 261.43 409.046 254.934 415.542 254.934 415.542 261.43ZM408.456 261.43 401.96 261.43 401.96 254.934 408.456 254.934 408.456 261.43ZM401.369 261.43 394.873 261.43 394.873 254.934 401.369 254.934 401.369 261.43ZM394.282 261.43 387.786 261.43 387.786 254.934 394.282 254.934 394.282 261.43ZM387.196 261.43 380.7 261.43 380.7 254.934 387.196 254.934 387.196 261.43ZM380.109 261.43 373.613 261.43 373.613 254.934 380.109 254.934 380.109 261.43ZM373.022 261.43 366.526 261.43 366.526 254.934 373.022 254.934 373.022 261.43ZM365.936 261.43 359.44 261.43 359.44 254.934 365.936 254.934 365.936 261.43ZM365.936 262.021 365.936 268.517 359.44 268.517 359.44 262.021 365.936 262.021ZM358.849 268.517 352.353 268.517 352.353 262.021 358.849 262.021 358.849 268.517ZM358.849 269.107 358.849 275.604 352.353 275.604 352.353 269.107 358.849 269.107ZM358.849 276.194 358.849 282.69 352.353 282.69 352.353 276.194 358.849 276.194ZM358.849 283.281 358.849 289.777 352.353 289.777 352.353 283.281 358.849 283.281ZM358.849 290.368 358.849 296.864 352.353 296.864 352.353 290.368 358.849 290.368ZM358.849 297.455 358.849 303.951 352.353 303.951 352.353 297.455 358.849 297.455ZM358.849 304.541 358.849 311.038 352.353 311.038 352.353 304.541 358.849 304.541ZM358.849 311.628 358.849 318.124 352.353 318.124 352.353 311.628 358.849 311.628ZM358.849 318.715 358.849 325.211 352.353 325.211 352.353 318.715 358.849 318.715ZM358.849 325.801 358.849 332.298 352.353 332.298 352.353 325.801 358.849 325.801ZM358.849 332.888 358.849 339.384 352.353 339.384 352.353 332.888 358.849 332.888ZM358.849 339.975 358.849 346.471 352.353 346.471 352.353 339.975 358.849 339.975ZM358.849 347.061 358.849 353.558 352.353 353.558 352.353 347.061 358.849 347.061ZM358.849 354.148 358.849 360.644 352.353 360.644 352.353 354.148 358.849 354.148ZM359.44 354.148 365.936 354.148 365.936 360.644 359.44 360.644 359.44 354.148ZM365.936 361.235 365.936 367.731 359.44 367.731 359.44 361.235 365.936 361.235ZM366.526 361.235 373.022 361.235 373.022 367.731 366.526 367.731 366.526 361.235ZM373.613 361.235 380.109 361.235 380.109 367.731 373.613 367.731 373.613 361.235ZM380.7 361.235 387.196 361.235 387.196 367.731 380.7 367.731 380.7 361.235ZM387.786 361.235 394.282 361.235 394.282 367.731 387.786 367.731 387.786 361.235ZM394.873 361.235 401.369 361.235 401.369 367.731 394.873 367.731 394.873 361.235ZM401.96 361.235 408.456 361.235 408.456 367.731 401.96 367.731 401.96 361.235ZM409.046 361.235 415.542 361.235 415.542 367.731 409.046 367.731 409.046 361.235ZM416.133 361.235 422.629 361.235 422.629 367.731 416.133 367.731 416.133 361.235ZM416.133 360.644 416.133 354.148 422.629 354.148 422.629 360.644 416.133 360.644ZM423.22 354.148 429.716 354.148 429.716 360.644 423.22 360.644 423.22 354.148ZM423.22 353.558 423.22 347.061 429.716 347.061 429.716 353.558 423.22 353.558ZM423.22 346.471 423.22 339.975 429.716 339.975 429.716 346.471 423.22 346.471ZM423.22 339.384 423.22 332.888 429.716 332.888 429.716 339.384 423.22 339.384ZM423.22 332.298 423.22 325.801 429.716 325.801 429.716 332.298 423.22 332.298ZM423.22 325.211 423.22 318.715 429.716 318.715 429.716 325.211 423.22 325.211ZM423.22 318.124 423.22 311.628 429.716 311.628 429.716 318.124 423.22 318.124ZM423.22 311.038 423.22 304.541 429.716 304.541 429.716 311.038 423.22 311.038ZM423.22 303.951 423.22 297.455 429.716 297.455 429.716 303.951 423.22 303.951ZM423.22 296.864 423.22 290.368 429.716 290.368 429.716 296.864 423.22 296.864ZM423.22 289.778 423.22 283.281 429.716 283.281 429.716 289.778 423.22 289.778ZM423.22 282.69 423.22 276.194 429.716 276.194 429.716 282.69 423.22 282.69ZM423.22 275.604 423.22 269.107 429.716 269.107 429.716 275.604 423.22 275.604ZM423.22 268.517 423.22 262.021 429.716 262.021 429.716 268.517 423.22 268.517ZM423.22 261.43 423.22 254.934 429.716 254.934 429.716 261.43 423.22 261.43ZM423.22 254.344 423.22 247.847 429.716 247.847 429.716 254.344 423.22 254.344ZM422.629 254.344 416.133 254.344 416.133 247.847 422.629 247.847 422.629 254.344ZM415.542 254.344 409.046 254.344 409.046 247.847 415.542 247.847 415.542 254.344ZM408.456 254.344 401.96 254.344 401.96 247.847 408.456 247.847 408.456 254.344ZM401.369 254.344 394.873 254.344 394.873 247.847 401.369 247.847 401.369 254.344ZM394.282 254.344 387.786 254.344 387.786 247.847 394.282 247.847 394.282 254.344ZM387.196 254.344 380.7 254.344 380.7 247.847 387.196 247.847 387.196 254.344ZM380.109 254.344 373.613 254.344 373.613 247.847 380.109 247.847 380.109 254.344ZM373.022 254.344 366.526 254.344 366.526 247.847 373.022 247.847 373.022 254.344ZM365.936 254.344 359.44 254.344 359.44 247.847 365.936 247.847 365.936 254.344ZM358.849 254.344 352.353 254.344 352.353 247.847 358.849 247.847 358.849 254.344ZM358.849 254.934 358.849 261.43 352.353 261.43 352.353 254.934 358.849 254.934ZM351.762 261.43 345.266 261.43 345.266 254.934 351.762 254.934 351.762 261.43ZM351.762 262.021 351.762 268.517 345.266 268.517 345.266 262.021 351.762 262.021ZM351.762 269.107 351.762 275.604 345.266 275.604 345.266 269.107 351.762 269.107ZM351.762 276.194 351.762 282.69 345.266 282.69 345.266 276.194 351.762 276.194ZM351.762 283.281 351.762 289.777 345.266 289.777 345.266 283.281 351.762 283.281ZM351.762 290.368 351.762 296.864 345.266 296.864 345.266 290.368 351.762 290.368ZM351.762 297.455 351.762 303.951 345.266 303.951 345.266 297.455 351.762 297.455ZM351.762 304.541 351.762 311.038 345.266 311.038 345.266 304.541 351.762 304.541ZM351.762 311.628 351.762 318.124 345.266 318.124 345.266 311.628 351.762 311.628ZM351.762 318.715 351.762 325.211 345.266 325.211 345.266 318.715 351.762 318.715ZM351.762 325.801 351.762 332.298 345.266 332.298 345.266 325.801 351.762 325.801ZM351.762 332.888 351.762 339.384 345.266 339.384 345.266 332.888 351.762 332.888ZM351.762 339.975 351.762 346.471 345.266 346.471 345.266 339.975 351.762 339.975ZM351.762 347.061 351.762 353.558 345.266 353.558 345.266 347.061 351.762 347.061ZM351.762 354.148 351.762 360.644 345.266 360.644 345.266 354.148 351.762 354.148ZM351.762 361.235 351.762 367.731 345.266 367.731 345.266 361.235 351.762 361.235ZM352.353 361.235 358.849 361.235 358.849 367.731 352.353 367.731 352.353 361.235ZM358.849 368.321 358.849 374.818 352.353 374.818 352.353 368.321 358.849 368.321ZM359.44 368.321 365.936 368.321 365.936 374.818 359.44 374.818 359.44 368.321ZM366.526 368.321 373.022 368.321 373.022 374.818 366.526 374.818 366.526 368.321ZM373.613 368.321 380.109 368.321 380.109 374.818 373.613 374.818 373.613 368.321ZM380.7 368.321 387.196 368.321 387.196 374.818 380.7 374.818 380.7 368.321ZM387.786 368.321 394.282 368.321 394.282 374.818 387.786 374.818 387.786 368.321ZM394.873 368.321 401.369 368.321 401.369 374.818 394.873 374.818 394.873 368.321ZM401.96 368.321 408.456 368.321 408.456 374.818 401.96 374.818 401.96 368.321ZM409.046 368.321 415.542 368.321 415.542 374.818 409.046 374.818 409.046 368.321ZM416.133 368.321 422.629 368.321 422.629 374.818 416.133 374.818 416.133 368.321ZM423.22 368.321 429.716 368.321 429.716 374.818 423.22 374.818 423.22 368.321ZM423.22 367.731 423.22 361.235 429.716 361.235 429.716 367.731 423.22 367.731ZM430.306 361.235 436.802 361.235 436.802 367.731 430.306 367.731 430.306 361.235ZM430.306 360.644 430.306 354.148 436.802 354.148 436.802 360.644 430.306 360.644ZM430.306 353.558 430.306 347.061 436.802 347.061 436.802 353.558 430.306 353.558ZM430.306 346.471 430.306 339.975 436.802 339.975 436.802 346.471 430.306 346.471ZM430.306 339.384 430.306 332.888 436.802 332.888 436.802 339.384 430.306 339.384ZM430.306 332.298 430.306 325.801 436.802 325.801 436.802 332.298 430.306 332.298ZM430.306 325.211 430.306 318.715 436.802 318.715 436.802 325.211 430.306 325.211ZM430.306 318.124 430.306 311.628 436.802 311.628 436.802 318.124 430.306 318.124ZM430.306 311.038 430.306 304.541 436.802 304.541 436.802 311.038 430.306 311.038ZM430.306 303.951 430.306 297.455 436.802 297.455 436.802 303.951 430.306 303.951ZM430.306 296.864 430.306 290.368 436.802 290.368 436.802 296.864 430.306 296.864ZM430.306 289.778 430.306 283.281 436.802 283.281 436.802 289.778 430.306 289.778ZM430.306 282.69 430.306 276.194 436.802 276.194 436.802 282.69 430.306 282.69ZM430.306 275.604 430.306 269.107 436.802 269.107 436.802 275.604 430.306 275.604ZM430.306 268.517 430.306 262.021 436.802 262.021 436.802 268.517 430.306 268.517ZM430.306 261.43 430.306 254.934 436.802 254.934 436.802 261.43 430.306 261.43ZM430.306 254.344 430.306 247.847 436.802 247.847 436.802 254.344 430.306 254.344ZM430.306 247.257 430.306 240.761 436.802 240.761 436.802 247.257 430.306 247.257ZM429.716 247.257 423.22 247.257 423.22 240.761 429.716 240.761 429.716 247.257ZM422.629 247.257 416.133 247.257 416.133 240.761 422.629 240.761 422.629 247.257ZM415.542 247.257 409.046 247.257 409.046 240.761 415.542 240.761 415.542 247.257ZM408.456 247.257 401.96 247.257 401.96 240.761 408.456 240.761 408.456 247.257ZM401.369 247.257 394.873 247.257 394.873 240.761 401.369 240.761 401.369 247.257ZM394.282 247.257 387.786 247.257 387.786 240.761 394.282 240.761 394.282 247.257ZM387.196 247.257 380.7 247.257 380.7 240.761 387.196 240.761 387.196 247.257ZM380.109 247.257 373.613 247.257 373.613 240.761 380.109 240.761 380.109 247.257ZM373.022 247.257 366.526 247.257 366.526 240.761 373.022 240.761 373.022 247.257ZM365.936 247.257 359.44 247.257 359.44 240.761 365.936 240.761 365.936 247.257ZM358.849 247.257 352.353 247.257 352.353 240.761 358.849 240.761 358.849 247.257ZM351.762 247.257 345.266 247.257 345.266 240.761 351.762 240.761 351.762 247.257ZM351.762 247.847 351.762 254.344 345.266 254.344 345.266 247.847 351.762 247.847ZM344.676 254.344 338.18 254.344 338.18 247.847 344.676 247.847 344.676 254.344ZM344.676 254.934 344.676 261.43 338.18 261.43 338.18 254.934 344.676 254.934ZM344.676 262.021 344.676 268.517 338.18 268.517 338.18 262.021 344.676 262.021ZM344.676 269.107 344.676 275.604 338.18 275.604 338.18 269.107 344.676 269.107ZM344.676 276.194 344.676 282.69 338.18 282.69 338.18 276.194 344.676 276.194ZM344.676 283.281 344.676 289.777 338.18 289.777 338.18 283.281 344.676 283.281ZM344.676 290.368 344.676 296.864 338.18 296.864 338.18 290.368 344.676 290.368ZM344.676 297.455 344.676 303.951 338.18 303.951 338.18 297.455 344.676 297.455ZM344.676 304.541 344.676 311.038 338.18 311.038 338.18 304.541 344.676 304.541ZM344.676 311.628 344.676 318.124 338.18 318.124 338.18 311.628 344.676 311.628ZM344.676 318.715 344.676 325.211 338.18 325.211 338.18 318.715 344.676 318.715ZM344.676 325.801 344.676 332.298 338.18 332.298 338.18 325.801 344.676 325.801ZM344.676 332.888 344.676 339.384 338.18 339.384 338.18 332.888 344.676 332.888ZM344.676 339.975 344.676 346.471 338.18 346.471 338.18 339.975 344.676 339.975ZM344.676 347.061 344.676 353.558 338.18 353.558 338.18 347.061 344.676 347.061ZM344.676 354.148 344.676 360.644 338.18 360.644 338.18 354.148 344.676 354.148ZM344.676 361.235 344.676 367.731 338.18 367.731 338.18 361.235 344.676 361.235ZM344.676 368.321 344.676 374.818 338.18 374.818 338.18 368.321 344.676 368.321ZM345.266 368.321 351.762 368.321 351.762 374.818 345.266 374.818 345.266 368.321ZM351.762 375.408 351.762 381.904 345.266 381.904 345.266 375.408 351.762 375.408ZM352.353 375.408 358.849 375.408 358.849 381.904 352.353 381.904 352.353 375.408ZM359.44 375.408 365.936 375.408 365.936 381.904 359.44 381.904 359.44 375.408ZM366.526 375.408 373.022 375.408 373.022 381.904 366.526 381.904 366.526 375.408ZM373.613 375.408 380.109 375.408 380.109 381.904 373.613 381.904 373.613 375.408ZM380.7 375.408 387.196 375.408 387.196 381.904 380.7 381.904 380.7 375.408ZM387.786 375.408 394.282 375.408 394.282 381.904 387.786 381.904 387.786 375.408ZM394.873 375.408 401.369 375.408 401.369 381.904 394.873 381.904 394.873 375.408ZM401.96 375.408 408.456 375.408 408.456 381.904 401.96 381.904 401.96 375.408ZM409.046 375.408 415.542 375.408 415.542 381.904 409.046 381.904 409.046 375.408ZM416.133 375.408 422.629 375.408 422.629 381.904 416.133 381.904 416.133 375.408ZM423.22 375.408 429.716 375.408 429.716 381.904 423.22 381.904 423.22 375.408ZM430.306 375.408 436.802 375.408 436.802 381.904 430.306 381.904 430.306 375.408ZM430.306 374.818 430.306 368.321 436.802 368.321 436.802 374.818 430.306 374.818ZM437.393 368.321 443.889 368.321 443.889 374.818 437.393 374.818 437.393 368.321ZM437.393 367.731 437.393 361.235 443.889 361.235 443.889 367.731 437.393 367.731ZM437.393 360.644 437.393 354.148 443.889 354.148 443.889 360.644 437.393 360.644ZM437.393 353.558 437.393 347.061 443.889 347.061 443.889 353.558 437.393 353.558ZM437.393 346.471 437.393 339.975 443.889 339.975 443.889 346.471 437.393 346.471ZM437.393 339.384 437.393 332.888 443.889 332.888 443.889 339.384 437.393 339.384ZM437.393 332.298 437.393 325.801 443.889 325.801 443.889 332.298 437.393 332.298ZM437.393 325.211 437.393 318.715 443.889 318.715 443.889 325.211 437.393 325.211ZM437.393 318.124 437.393 311.628 443.889 311.628 443.889 318.124 437.393 318.124ZM437.393 311.038 437.393 304.541 443.889 304.541 443.889 311.038 437.393 311.038ZM437.393 303.951 437.393 297.455 443.889 297.455 443.889 303.951 437.393 303.951ZM437.393 296.864 437.393 290.368 443.889 290.368 443.889 296.864 437.393 296.864ZM437.393 289.778 437.393 283.281 443.889 283.281 443.889 289.778 437.393 289.778ZM437.393 282.69 437.393 276.194 443.889 276.194 443.889 282.69 437.393 282.69ZM437.393 275.604 437.393 269.107 443.889 269.107 443.889 275.604 437.393 275.604ZM437.393 268.517 437.393 262.021 443.889 262.021 443.889 268.517 437.393 268.517ZM437.393 261.43 437.393 254.934 443.889 254.934 443.889 261.43 437.393 261.43ZM437.393 254.344 437.393 247.847 443.889 247.847 443.889 254.344 437.393 254.344ZM437.393 247.257 437.393 240.761 443.889 240.761 443.889 247.257 437.393 247.257ZM437.393 240.17 437.393 233.674 443.889 233.674 443.889 240.17 437.393 240.17ZM436.802 240.17 430.306 240.17 430.306 233.674 436.802 233.674 436.802 240.17ZM429.716 240.17 423.22 240.17 423.22 233.674 429.716 233.674 429.716 240.17ZM422.629 240.17 416.133 240.17 416.133 233.674 422.629 233.674 422.629 240.17ZM415.542 240.17 409.046 240.17 409.046 233.674 415.542 233.674 415.542 240.17ZM408.456 240.17 401.96 240.17 401.96 233.674 408.456 233.674 408.456 240.17ZM401.369 240.17 394.873 240.17 394.873 233.674 401.369 233.674 401.369 240.17ZM394.282 240.17 387.786 240.17 387.786 233.674 394.282 233.674 394.282 240.17ZM387.196 240.17 380.7 240.17 380.7 233.674 387.196 233.674 387.196 240.17ZM380.109 240.17 373.613 240.17 373.613 233.674 380.109 233.674 380.109 240.17ZM373.022 240.17 366.526 240.17 366.526 233.674 373.022 233.674 373.022 240.17ZM365.936 240.17 359.44 240.17 359.44 233.674 365.936 233.674 365.936 240.17ZM358.849 240.17 352.353 240.17 352.353 233.674 358.849 233.674 358.849 240.17ZM351.762 240.17 345.266 240.17 345.266 233.674 351.762 233.674 351.762 240.17ZM344.676 240.17 338.18 240.17 338.18 233.674 344.676 233.674 344.676 240.17ZM344.676 240.761 344.676 247.257 338.18 247.257 338.18 240.761 344.676 240.761ZM337.589 247.257 331.007 247.257 331.007 240.761 337.589 240.761 337.589 247.257ZM331.007 247.847 337.589 247.847 337.589 254.344 331.007 254.344 331.007 247.847ZM337.589 254.934 337.589 261.43 331.007 261.43 331.007 254.934 337.589 254.934ZM331.007 262.021 337.589 262.021 337.589 268.517 331.007 268.517 331.007 262.021ZM337.589 269.107 337.589 275.604 331.007 275.604 331.007 269.107 337.589 269.107ZM331.007 276.194 337.589 276.194 337.589 282.69 331.007 282.69 331.007 276.194ZM337.589 283.281 337.589 289.777 331.007 289.777 331.007 283.281 337.589 283.281ZM331.007 290.368 337.589 290.368 337.589 296.864 331.007 296.864 331.007 290.368ZM337.589 297.455 337.589 303.951 331.007 303.951 331.007 297.455 337.589 297.455ZM331.007 304.541 337.589 304.541 337.589 311.038 331.007 311.038 331.007 304.541ZM337.589 311.628 337.589 318.124 331.007 318.124 331.007 311.628 337.589 311.628ZM331.007 318.715 337.589 318.715 337.589 325.211 331.007 325.211 331.007 318.715ZM337.589 325.801 337.589 332.298 331.007 332.298 331.007 325.801 337.589 325.801ZM331.007 332.888 337.589 332.888 337.589 339.384 331.007 339.384 331.007 332.888ZM337.589 339.975 337.589 346.471 331.007 346.471 331.007 339.975 337.589 339.975ZM331.007 347.061 337.589 347.061 337.589 353.558 331.007 353.558 331.007 347.061ZM337.589 354.148 337.589 360.644 331.007 360.644 331.007 354.148 337.589 354.148ZM331.007 361.235 337.589 361.235 337.589 367.731 331.007 367.731 331.007 361.235ZM337.589 368.321 337.589 374.818 331.007 374.818 331.007 368.321 337.589 368.321ZM331.007 375.408 337.589 375.408 337.589 381.904 331.007 381.904 331.007 375.408ZM338.18 375.408 344.676 375.408 344.676 381.904 338.18 381.904 338.18 375.408ZM344.676 382.495 344.676 388.99 338.18 388.99 338.18 382.495 344.676 382.495ZM345.266 382.495 351.762 382.495 351.762 388.99 345.266 388.99 345.266 382.495ZM352.353 382.495 358.849 382.495 358.849 388.99 352.353 388.99 352.353 382.495ZM359.44 382.495 365.936 382.495 365.936 388.99 359.44 388.99 359.44 382.495ZM366.526 382.495 373.022 382.495 373.022 388.99 366.526 388.99 366.526 382.495ZM373.613 382.495 380.109 382.495 380.109 388.99 373.613 388.99 373.613 382.495ZM380.7 382.495 387.196 382.495 387.196 388.99 380.7 388.99 380.7 382.495ZM387.786 382.495 394.282 382.495 394.282 388.99 387.786 388.99 387.786 382.495ZM394.873 382.495 401.369 382.495 401.369 388.99 394.873 388.99 394.873 382.495ZM401.96 382.495 408.456 382.495 408.456 388.99 401.96 388.99 401.96 382.495ZM409.046 382.495 415.542 382.495 415.542 388.99 409.046 388.99 409.046 382.495ZM416.133 382.495 422.629 382.495 422.629 388.99 416.133 388.99 416.133 382.495ZM423.22 382.495 429.716 382.495 429.716 388.99 423.22 388.99 423.22 382.495ZM430.306 382.495 436.802 382.495 436.802 388.99 430.306 388.99 430.306 382.495ZM437.393 382.495 443.889 382.495 443.889 388.99 437.393 388.99 437.393 382.495ZM437.393 381.904 437.393 375.408 443.889 375.408 443.889 381.904 437.393 381.904ZM444.48 375.408 450.889 375.408 450.889 381.904 444.48 381.904 444.48 375.408ZM444.48 374.818 444.48 368.321 450.889 368.321 450.889 374.818 444.48 374.818ZM450.889 367.731 444.48 367.731 444.48 361.235 450.889 361.235 450.889 367.731ZM444.48 360.644 444.48 354.148 450.889 354.148 450.889 360.644 444.48 360.644ZM450.889 353.558 444.48 353.558 444.48 347.061 450.889 347.061 450.889 353.558ZM444.48 346.471 444.48 339.975 450.889 339.975 450.889 346.471 444.48 346.471ZM450.889 339.384 444.48 339.384 444.48 332.888 450.889 332.888 450.889 339.384ZM444.48 332.298 444.48 325.801 450.889 325.801 450.889 332.298 444.48 332.298ZM450.889 325.211 444.48 325.211 444.48 318.715 450.889 318.715 450.889 325.211ZM444.48 318.124 444.48 311.628 450.889 311.628 450.889 318.124 444.48 318.124ZM450.889 311.038 444.48 311.038 444.48 304.541 450.889 304.541 450.889 311.038ZM444.48 303.951 444.48 297.455 450.889 297.455 450.889 303.951 444.48 303.951ZM450.889 296.864 444.48 296.864 444.48 290.368 450.889 290.368 450.889 296.864ZM444.48 289.778 444.48 283.281 450.889 283.281 450.889 289.778 444.48 289.778ZM450.889 282.69 444.48 282.69 444.48 276.194 450.889 276.194 450.889 282.69ZM444.48 275.604 444.48 269.107 450.889 269.107 450.889 275.604 444.48 275.604ZM450.889 268.517 444.48 268.517 444.48 262.021 450.889 262.021 450.889 268.517ZM444.48 261.43 444.48 254.934 450.889 254.934 450.889 261.43 444.48 261.43ZM450.889 254.344 444.48 254.344 444.48 247.847 450.889 247.847 450.889 254.344ZM444.48 247.257 444.48 240.761 450.889 240.761 450.889 247.257 444.48 247.257ZM450.889 240.17 444.48 240.17 444.48 233.674 450.889 233.674 450.889 240.17ZM337.589 233.674 337.589 240.17 331.007 240.17 331.007 233.674 337.589 233.674ZM331.007 382.495 337.589 382.495 337.589 388.99 331.007 388.99 331.007 382.495ZM444.48 388.99 444.48 382.495 450.889 382.495 450.889 388.99 444.48 388.99Z" fill="#F2F2F2" transform="matrix(1.00001 0 0 1 -74.0026 -108.001)"/><path d="M344.885 205.809C344.885 207.766 343.298 209.352 341.341 209.352 339.384 209.352 337.798 207.766 337.798 205.809 337.798 203.852 339.384 202.265 341.341 202.265 343.298 202.265 344.885 203.852 344.885 205.809" fill="#FFFFFF" transform="matrix(1.00001 0 0 1 -74.0026 -108.001)"/><path d="M444.098 205.809C444.098 207.766 442.512 209.352 440.555 209.352 438.598 209.352 437.011 207.766 437.011 205.809 437.011 203.852 438.598 202.265 440.555 202.265 442.512 202.265 444.098 203.852 444.098 205.809" fill="#FFFFFF" transform="matrix(1.00001 0 0 1 -74.0026 -108.001)"/><path d="M87.9928 425.014 230.612 425.014 230.612 282.395 87.9928 425.014ZM203.037 398.735 151.483 398.735 203.037 350.309 203.037 398.735Z" fill="#737373" transform="matrix(1.00001 0 0 1 -74.0026 -108.001)"/><path d="M225.299 339.972 230.614 339.972 230.614 340.563 225.299 340.563Z" fill="#D2D2D2" transform="matrix(1.00001 0 0 1 -74.0026 -108.001)"/><path d="M225.299 342.925 230.614 342.925 230.614 343.516 225.299 343.516Z" fill="#D2D2D2" transform="matrix(1.00001 0 0 1 -74.0026 -108.001)"/><path d="M225.299 345.878 230.614 345.878 230.614 346.469 225.299 346.469Z" fill="#D2D2D2" transform="matrix(1.00001 0 0 1 -74.0026 -108.001)"/><path d="M221.166 348.831 230.614 348.831 230.614 349.421 221.166 349.421Z" fill="#D2D2D2" transform="matrix(1.00001 0 0 1 -74.0026 -108.001)"/><path d="M225.299 351.783 230.614 351.783 230.614 352.374 225.299 352.374Z" fill="#D2D2D2" transform="matrix(1.00001 0 0 1 -74.0026 -108.001)"/><path d="M225.299 354.736 230.614 354.736 230.614 355.326 225.299 355.326Z" fill="#D2D2D2" transform="matrix(1.00001 0 0 1 -74.0026 -108.001)"/><path d="M225.299 357.689 230.614 357.689 230.614 358.279 225.299 358.279Z" fill="#D2D2D2" transform="matrix(1.00001 0 0 1 -74.0026 -108.001)"/><path d="M221.165 360.641 230.614 360.641 230.614 361.232 221.165 361.232Z" fill="#D2D2D2" transform="matrix(1.00001 0 0 1 -74.0026 -108.001)"/><path d="M225.299 363.594 230.614 363.594 230.614 364.185 225.299 364.185Z" fill="#D2D2D2" transform="matrix(1.00001 0 0 1 -74.0026 -108.001)"/><path d="M225.299 366.546 230.614 366.546 230.614 367.137 225.299 367.137Z" fill="#D2D2D2" transform="matrix(1.00001 0 0 1 -74.0026 -108.001)"/><path d="M225.299 369.499 230.614 369.499 230.614 370.09 225.299 370.09Z" fill="#D2D2D2" transform="matrix(1.00001 0 0 1 -74.0026 -108.001)"/><path d="M221.165 372.452 230.614 372.452 230.614 373.042 221.165 373.042Z" fill="#D2D2D2" transform="matrix(1.00001 0 0 1 -74.0026 -108.001)"/><path d="M225.299 375.405 230.614 375.405 230.614 375.995 225.299 375.995Z" fill="#D2D2D2" transform="matrix(1.00001 0 0 1 -74.0026 -108.001)"/><path d="M225.299 378.357 230.614 378.357 230.614 378.948 225.299 378.948Z" fill="#D2D2D2" transform="matrix(1.00001 0 0 1 -74.0026 -108.001)"/><path d="M225.298 381.31 230.613 381.31 230.613 381.9 225.298 381.9Z" fill="#D2D2D2" transform="matrix(1.00001 0 0 1 -74.0026 -108.001)"/><path d="M221.164 384.262 230.613 384.262 230.613 384.853 221.164 384.853Z" fill="#D2D2D2" transform="matrix(1.00001 0 0 1 -74.0026 -108.001)"/><path d="M225.298 387.215 230.613 387.215 230.613 387.806 225.298 387.806Z" fill="#D2D2D2" transform="matrix(1.00001 0 0 1 -74.0026 -108.001)"/><path d="M225.298 390.168 230.613 390.168 230.613 390.758 225.298 390.758Z" fill="#D2D2D2" transform="matrix(1.00001 0 0 1 -74.0026 -108.001)"/><path d="M225.298 393.12 230.613 393.12 230.613 393.711 225.298 393.711Z" fill="#D2D2D2" transform="matrix(1.00001 0 0 1 -74.0026 -108.001)"/><path d="M221.164 396.073 230.613 396.073 230.613 396.663 221.164 396.663Z" fill="#D2D2D2" transform="matrix(1.00001 0 0 1 -74.0026 -108.001)"/><path d="M225.298 399.026 230.613 399.026 230.613 399.616 225.298 399.616Z" fill="#D2D2D2" transform="matrix(1.00001 0 0 1 -74.0026 -108.001)"/><path d="M225.298 401.978 230.613 401.978 230.613 402.569 225.298 402.569Z" fill="#D2D2D2" transform="matrix(1.00001 0 0 1 -74.0026 -108.001)"/><path d="M225.298 404.931 230.613 404.931 230.613 405.522 225.298 405.522Z" fill="#D2D2D2" transform="matrix(1.00001 0 0 1 -74.0026 -108.001)"/><path d="M221.164 407.883 230.613 407.883 230.613 408.474 221.164 408.474Z" fill="#D2D2D2" transform="matrix(1.00001 0 0 1 -74.0026 -108.001)"/><path d="M225.298 410.836 230.613 410.836 230.613 411.427 225.298 411.427Z" fill="#D2D2D2" transform="matrix(1.00001 0 0 1 -74.0026 -108.001)"/><path d="M225.298 413.789 230.613 413.789 230.613 414.38 225.298 414.38Z" fill="#D2D2D2" transform="matrix(1.00001 0 0 1 -74.0026 -108.001)"/><path d="M225.298 416.742 230.613 416.742 230.613 417.332 225.298 417.332Z" fill="#D2D2D2" transform="matrix(1.00001 0 0 1 -74.0026 -108.001)"/><path d="M221.164 419.695 230.613 419.695 230.613 420.285 221.164 420.285Z" fill="#D2D2D2" transform="matrix(1.00001 0 0 1 -74.0026 -108.001)"/><path d="M225.301 292.73 230.616 292.73 230.616 293.321 225.301 293.321Z" fill="#D2D2D2" transform="matrix(1.00001 0 0 1 -74.0026 -108.001)"/><path d="M225.3 295.683 230.615 295.683 230.615 296.273 225.3 296.273Z" fill="#D2D2D2" transform="matrix(1.00001 0 0 1 -74.0026 -108.001)"/><path d="M225.3 298.635 230.615 298.635 230.615 299.226 225.3 299.226Z" fill="#D2D2D2" transform="matrix(1.00001 0 0 1 -74.0026 -108.001)"/><path d="M221.166 301.588 230.615 301.588 230.615 302.179 221.166 302.179Z" fill="#D2D2D2" transform="matrix(1.00001 0 0 1 -74.0026 -108.001)"/><path d="M225.3 304.541 230.615 304.541 230.615 305.131 225.3 305.131Z" fill="#D2D2D2" transform="matrix(1.00001 0 0 1 -74.0026 -108.001)"/><path d="M225.3 307.494 230.615 307.494 230.615 308.084 225.3 308.084Z" fill="#D2D2D2" transform="matrix(1.00001 0 0 1 -74.0026 -108.001)"/><path d="M225.3 310.446 230.615 310.446 230.615 311.036 225.3 311.036Z" fill="#D2D2D2" transform="matrix(1.00001 0 0 1 -74.0026 -108.001)"/><path d="M221.166 313.399 230.615 313.399 230.615 313.989 221.166 313.989Z" fill="#D2D2D2" transform="matrix(1.00001 0 0 1 -74.0026 -108.001)"/><path d="M225.299 316.351 230.614 316.351 230.614 316.942 225.299 316.942Z" fill="#D2D2D2" transform="matrix(1.00001 0 0 1 -74.0026 -108.001)"/><path d="M225.299 319.304 230.614 319.304 230.614 319.895 225.299 319.895Z" fill="#D2D2D2" transform="matrix(1.00001 0 0 1 -74.0026 -108.001)"/><path d="M225.299 322.257 230.614 322.257 230.614 322.848 225.299 322.848Z" fill="#D2D2D2" transform="matrix(1.00001 0 0 1 -74.0026 -108.001)"/><path d="M221.166 325.209 230.614 325.209 230.614 325.8 221.166 325.8Z" fill="#D2D2D2" transform="matrix(1.00001 0 0 1 -74.0026 -108.001)"/><path d="M225.299 328.162 230.614 328.162 230.614 328.752 225.299 328.752Z" fill="#D2D2D2" transform="matrix(1.00001 0 0 1 -74.0026 -108.001)"/><path d="M225.299 331.115 230.614 331.115 230.614 331.705 225.299 331.705Z" fill="#D2D2D2" transform="matrix(1.00001 0 0 1 -74.0026 -108.001)"/><path d="M225.299 334.067 230.614 334.067 230.614 334.657 225.299 334.657Z" fill="#D2D2D2" transform="matrix(1.00001 0 0 1 -74.0026 -108.001)"/><path d="M221.166 337.02 230.614 337.02 230.614 337.61 221.166 337.61Z" fill="#D2D2D2" transform="matrix(1.00001 0 0 1 -74.0026 -108.001)"/><path d="M474.93 434.989 418.752 434.989C416.116 434.989 413.98 432.853 413.98 430.217L413.98 312.732C413.98 310.096 416.116 307.959 418.752 307.959L474.93 307.959C477.566 307.959 479.703 310.096 479.703 312.732L479.703 430.217C479.703 432.853 477.566 434.989 474.93 434.989" fill="#737373" transform="matrix(1.00001 0 0 1 -74.0026 -108.001)"/><path d="M478.302 431.866 422.124 431.866C419.488 431.866 417.352 429.729 417.352 427.094L417.352 309.608C417.352 306.973 419.488 304.836 422.124 304.836L478.302 304.836C480.938 304.836 483.075 306.973 483.075 309.608L483.075 427.094C483.075 429.729 480.938 431.866 478.302 431.866" fill="#505050" transform="matrix(1.00001 0 0 1 -74.0026 -108.001)"/><path d="M429.965 352.779C429.965 354.042 428.941 355.065 427.679 355.065 426.416 355.065 425.393 354.042 425.393 352.779 425.393 351.516 426.416 350.493 427.679 350.493 428.941 350.493 429.965 351.516 429.965 352.779" fill="#CFCFCF" transform="matrix(1.00001 0 0 1 -74.0026 -108.001)"/><path d="M441.11 352.779C441.11 354.042 440.086 355.065 438.824 355.065 437.561 355.065 436.538 354.042 436.538 352.779 436.538 351.516 437.561 350.493 438.824 350.493 440.086 350.493 441.11 351.516 441.11 352.779" fill="#737373" transform="matrix(1.00001 0 0 1 -74.0026 -108.001)"/><path d="M431.764 371.72C431.764 373.613 430.228 375.149 428.335 375.149 426.441 375.149 424.906 373.613 424.906 371.72 424.906 369.826 426.441 368.29 428.335 368.29 430.228 368.29 431.764 369.826 431.764 371.72" fill="#737373" transform="matrix(1.00001 0 0 1 -74.0026 -108.001)"/><path d="M442.908 371.72C442.908 373.613 441.373 375.149 439.479 375.149 437.585 375.149 436.051 373.613 436.051 371.72 436.051 369.826 437.585 368.29 439.479 368.29 441.373 368.29 442.908 369.826 442.908 371.72" fill="#737373" transform="matrix(1.00001 0 0 1 -74.0026 -108.001)"/><path d="M454.053 371.72C454.053 373.613 452.516 375.149 450.624 375.149 448.73 375.149 447.194 373.613 447.194 371.72 447.194 369.826 448.73 368.29 450.624 368.29 452.516 368.29 454.053 369.826 454.053 371.72" fill="#737373" transform="matrix(1.00001 0 0 1 -74.0026 -108.001)"/><path d="M465.197 371.72C465.197 373.613 463.661 375.149 461.768 375.149 459.874 375.149 458.339 373.613 458.339 371.72 458.339 369.826 459.874 368.29 461.768 368.29 463.661 368.29 465.197 369.826 465.197 371.72" fill="#737373" transform="matrix(1.00001 0 0 1 -74.0026 -108.001)"/><path d="M476.342 371.72C476.342 373.613 474.806 375.149 472.912 375.149 471.019 375.149 469.484 373.613 469.484 371.72 469.484 369.826 471.019 368.29 472.912 368.29 474.806 368.29 476.342 369.826 476.342 371.72" fill="#737373" transform="matrix(1.00001 0 0 1 -74.0026 -108.001)"/><path d="M431.764 382.578C431.764 384.471 430.228 386.007 428.335 386.007 426.441 386.007 424.906 384.471 424.906 382.578 424.906 380.684 426.441 379.149 428.335 379.149 430.228 379.149 431.764 380.684 431.764 382.578" fill="#CFCFCF" transform="matrix(1.00001 0 0 1 -74.0026 -108.001)"/><path d="M442.908 382.578C442.908 384.471 441.373 386.007 439.479 386.007 437.585 386.007 436.051 384.471 436.051 382.578 436.051 380.684 437.585 379.149 439.479 379.149 441.373 379.149 442.908 380.684 442.908 382.578" fill="#737373" transform="matrix(1.00001 0 0 1 -74.0026 -108.001)"/><path d="M454.053 382.578C454.053 384.471 452.516 386.007 450.624 386.007 448.73 386.007 447.194 384.471 447.194 382.578 447.194 380.684 448.73 379.149 450.624 379.149 452.516 379.149 454.053 380.684 454.053 382.578" fill="#737373" transform="matrix(1.00001 0 0 1 -74.0026 -108.001)"/><path d="M465.197 382.578C465.197 384.471 463.661 386.007 461.768 386.007 459.874 386.007 458.339 384.471 458.339 382.578 458.339 380.684 459.874 379.149 461.768 379.149 463.661 379.149 465.197 380.684 465.197 382.578" fill="#737373" transform="matrix(1.00001 0 0 1 -74.0026 -108.001)"/><path d="M476.342 382.578C476.342 384.471 474.806 386.007 472.912 386.007 471.019 386.007 469.484 384.471 469.484 382.578 469.484 380.684 471.019 379.149 472.912 379.149 474.806 379.149 476.342 380.684 476.342 382.578" fill="#CFCFCF" transform="matrix(1.00001 0 0 1 -74.0026 -108.001)"/><path d="M431.764 393.437C431.764 395.331 430.228 396.865 428.335 396.865 426.441 396.865 424.906 395.331 424.906 393.437 424.906 391.543 426.441 390.008 428.335 390.008 430.228 390.008 431.764 391.543 431.764 393.437" fill="#CFCFCF" transform="matrix(1.00001 0 0 1 -74.0026 -108.001)"/><path d="M442.908 393.437C442.908 395.331 441.373 396.865 439.479 396.865 437.585 396.865 436.051 395.331 436.051 393.437 436.051 391.543 437.585 390.008 439.479 390.008 441.373 390.008 442.908 391.543 442.908 393.437" fill="#737373" transform="matrix(1.00001 0 0 1 -74.0026 -108.001)"/><path d="M454.053 393.437C454.053 395.331 452.516 396.865 450.624 396.865 448.73 396.865 447.194 395.331 447.194 393.437 447.194 391.543 448.73 390.008 450.624 390.008 452.516 390.008 454.053 391.543 454.053 393.437" fill="#737373" transform="matrix(1.00001 0 0 1 -74.0026 -108.001)"/><path d="M465.197 393.437C465.197 395.331 463.661 396.865 461.768 396.865 459.874 396.865 458.339 395.331 458.339 393.437 458.339 391.543 459.874 390.008 461.768 390.008 463.661 390.008 465.197 391.543 465.197 393.437" fill="#737373" transform="matrix(1.00001 0 0 1 -74.0026 -108.001)"/><path d="M476.342 393.437C476.342 395.331 474.806 396.865 472.912 396.865 471.019 396.865 469.484 395.331 469.484 393.437 469.484 391.543 471.019 390.008 472.912 390.008 474.806 390.008 476.342 391.543 476.342 393.437" fill="#CFCFCF" transform="matrix(1.00001 0 0 1 -74.0026 -108.001)"/><path d="M431.764 404.295C431.764 406.189 430.228 407.725 428.335 407.725 426.441 407.725 424.906 406.189 424.906 404.295 424.906 402.401 426.441 400.866 428.335 400.866 430.228 400.866 431.764 402.401 431.764 404.295" fill="#CFCFCF" transform="matrix(1.00001 0 0 1 -74.0026 -108.001)"/><path d="M442.908 404.295C442.908 406.189 441.373 407.725 439.479 407.725 437.585 407.725 436.051 406.189 436.051 404.295 436.051 402.401 437.585 400.866 439.479 400.866 441.373 400.866 442.908 402.401 442.908 404.295" fill="#737373" transform="matrix(1.00001 0 0 1 -74.0026 -108.001)"/><path d="M454.053 404.295C454.053 406.189 452.516 407.725 450.624 407.725 448.73 407.725 447.194 406.189 447.194 404.295 447.194 402.401 448.73 400.866 450.624 400.866 452.516 400.866 454.053 402.401 454.053 404.295" fill="#737373" transform="matrix(1.00001 0 0 1 -74.0026 -108.001)"/><path d="M465.197 404.295C465.197 406.189 463.661 407.725 461.768 407.725 459.874 407.725 458.339 406.189 458.339 404.295 458.339 402.401 459.874 400.866 461.768 400.866 463.661 400.866 465.197 402.401 465.197 404.295" fill="#737373" transform="matrix(1.00001 0 0 1 -74.0026 -108.001)"/><path d="M476.342 404.295C476.342 406.189 474.806 407.725 472.912 407.725 471.019 407.725 469.484 406.189 469.484 404.295 469.484 402.401 471.019 400.866 472.912 400.866 474.806 400.866 476.342 402.401 476.342 404.295" fill="#CFCFCF" transform="matrix(1.00001 0 0 1 -74.0026 -108.001)"/><path d="M431.764 415.154C431.764 417.048 430.228 418.583 428.335 418.583 426.441 418.583 424.906 417.048 424.906 415.154 424.906 413.26 426.441 411.724 428.335 411.724 430.228 411.724 431.764 413.26 431.764 415.154" fill="#CFCFCF" transform="matrix(1.00001 0 0 1 -74.0026 -108.001)"/><path d="M442.908 415.154C442.908 417.048 441.373 418.583 439.479 418.583 437.585 418.583 436.051 417.048 436.051 415.154 436.051 413.26 437.585 411.724 439.479 411.724 441.373 411.724 442.908 413.26 442.908 415.154" fill="#737373" transform="matrix(1.00001 0 0 1 -74.0026 -108.001)"/><path d="M454.053 415.154C454.053 417.048 452.516 418.583 450.624 418.583 448.73 418.583 447.194 417.048 447.194 415.154 447.194 413.26 448.73 411.724 450.624 411.724 452.516 411.724 454.053 413.26 454.053 415.154" fill="#CFCFCF" transform="matrix(1.00001 0 0 1 -74.0026 -108.001)"/><path d="M465.197 415.154C465.197 417.048 463.661 418.583 461.768 418.583 459.874 418.583 458.339 417.048 458.339 415.154 458.339 413.26 459.874 411.724 461.768 411.724 463.661 411.724 465.197 413.26 465.197 415.154" fill="#FFC000" transform="matrix(1.00001 0 0 1 -74.0026 -108.001)"/><path d="M476.342 415.154C476.342 417.048 474.806 418.583 472.912 418.583 471.019 418.583 469.484 417.048 469.484 415.154 469.484 413.26 471.019 411.724 472.912 411.724 474.806 411.724 476.342 413.26 476.342 415.154" fill="#CFCFCF" transform="matrix(1.00001 0 0 1 -74.0026 -108.001)"/><path d="M423.285 322.674 478.149 322.674 478.149 342.423 423.285 342.423Z" fill="#CFCFCF" transform="matrix(1.00001 0 0 1 -74.0026 -108.001)"/><path d="M422.896 314.39 436.838 314.39 436.838 317.23 422.896 317.23Z" fill="#CFCFCF" transform="matrix(1.00001 0 0 1 -74.0026 -108.001)"/><path d="M389.65 387.378 390.59 386.438 384.034 379.882 386.853 377.063 360.531 350.742C359.494 351.779 359.493 353.461 360.531 354.5L383.095 377.064 382.155 378.003 314.806 310.654 301.942 302.176 301.633 302.485 299.15 300.002 298.521 300.632 301.004 303.115 300.69 303.428 309.168 316.291 384.952 392.076 385.892 391.136 394.354 399.599 398.112 395.841 389.65 387.378Z" fill="#D2D2D2" transform="matrix(1.00001 0 0 1 -74.0026 -108.001)"/><path d="M311.888 278.376 315.646 274.617 324.108 283.08 320.35 286.838Z" fill="#737373"/><path d="M235.165 203.532 240.802 197.895 316.586 273.678 310.948 279.315Z" fill="#FFC000"/><path d="M386.852 372.304 360.531 345.983C359.493 347.02 359.493 348.703 360.531 349.74L383.094 372.304 382.155 373.244 380.261 371.35 374.62 376.991 378.378 380.749 386.852 372.304Z" fill="#737373" transform="matrix(1.00001 0 0 1 -74.0026 -108.001)"/><path d="M300.69 298.669 309.168 311.532 314.806 305.895 301.942 297.416Z" fill="#737373" transform="matrix(1.00001 0 0 1 -74.0026 -108.001)"/><path d="M224.517 187.893 225.146 187.264 227.63 189.745 227.001 190.375Z" fill="#505050"/><path d="M270.179 315.947 260.435 315.947C260.437 317.962 260.435 435.978 260.435 435.978L261.276 435.978 261.276 439.264 269.331 439.264 269.331 435.978 270.179 435.978 270.179 315.947Z" fill="#737373" transform="matrix(1.00001 0 0 1 -74.0026 -108.001)"/><path d="M263.047 432.308 271.102 432.308 271.102 436.421 263.047 436.421Z" fill="#2F2F2F" transform="matrix(1.00001 0 0 1 -74.0026 -108.001)"/><path d="M262.207 320.515 271.951 320.515 271.951 433.134 262.207 433.134Z" fill="#E6E6E6" transform="matrix(1.00001 0 0 1 -74.0026 -108.001)"/><path d="M262.207 313.104 271.951 313.104 271.951 320.634 262.207 320.634Z" fill="#505050" transform="matrix(1.00001 0 0 1 -74.0026 -108.001)"/><path d="M262.196 354.981 271.955 354.981 271.955 358.139 262.196 358.139Z" fill="#737373" transform="matrix(1.00001 0 0 1 -74.0026 -108.001)"/><path d="M262.207 359.758 271.951 359.758 271.951 360.349 262.207 360.349Z" fill="#F2F2F2" transform="matrix(1.00001 0 0 1 -74.0026 -108.001)"/><path d="M273.723 320.634C273.711 320.634 273.635 320.634 273.635 320.634L262.196 320.634 262.196 323.291 273.723 323.291 273.723 355.201C273.723 356.668 274.913 357.858 276.381 357.858L276.381 323.291C276.38 321.823 275.19 320.634 273.723 320.634Z" fill="#737373" transform="matrix(1.00001 0 0 1 -74.0026 -108.001)"/><path d="M253.569 201.497 168.689 286.378 169.315 287.004 163.403 292.916 167.788 297.301 173.7 291.389 174.326 292.015 259.207 207.134 266.41 194.293Z" fill="#737373" transform="matrix(1.00001 0 0 1 -74.0026 -108.001)"/><path d="M89.4205 182.407 95.9358 175.893 100.321 180.279 93.8055 186.793Z" fill="#FFC000"/><path d="M94.6844 175.862 104.335 166.212 109.972 171.849 100.322 181.499Z" fill="#F2F2F2"/><path d="M103.782 166.767 179.567 90.9827 185.204 96.6192 109.419 172.404Z" fill="#505050"/><path d="M266.41 191.778 262.799 193.805 262.691 193.877 264.302 195.525 264.385 195.39Z" fill="#505050" transform="matrix(1.00001 0 0 1 -74.0026 -108.001)"/><path d="M256.324 201.862C256.33 201.857 256.332 201.859 256.327 201.865 255.611 202.647 255.631 203.862 256.389 204.619 257.167 205.398 258.429 205.398 259.207 204.619L259.207 204.619 264.385 195.39 262.799 193.805 253.57 198.982C252.792 199.76 252.792 201.022 253.57 201.801 254.326 202.558 255.542 202.579 256.324 201.862Z" fill="#FFFFFF" transform="matrix(1.00001 0 0 1 -74.0026 -108.001)"/><path d="M263.243 211.17 178.362 296.052 178.989 296.678 173.077 302.59 177.461 306.974 183.373 301.062 184 301.689 268.88 216.807 276.084 203.966Z" fill="#737373" transform="matrix(1.00001 0 0 1 -74.0026 -108.001)"/><path d="M112.899 177.066 189.274 100.691 194.912 106.329 118.537 182.703Z" fill="#D2D2D2"/><path d="M99.1072 192.109 105.617 185.6 110.001 189.985 103.492 196.494Z" fill="#F2F2F2"/><path d="M104.393 185.571 113.453 176.512 119.09 182.149 110.031 191.209Z" fill="#505050"/><path d="M276.119 201.488 272.508 203.514 272.312 203.651 273.951 205.297 274.093 205.099Z" fill="#505050" transform="matrix(1.00001 0 0 1 -74.0026 -108.001)"/><path d="M266.033 211.571C266.038 211.566 266.041 211.568 266.036 211.574 265.32 212.356 265.34 213.571 266.097 214.328 266.876 215.106 268.138 215.106 268.916 214.328L268.916 214.328 274.094 205.099 272.508 203.513 263.279 208.691C262.5 209.469 262.5 210.731 263.279 211.509 264.036 212.267 265.251 212.287 266.033 211.571Z" fill="#FFFFFF" transform="matrix(1.00001 0 0 1 -74.0026 -108.001)"/><path d="M105.71 179.639 158.859 179.639 158.859 232.789 105.71 232.789Z" fill="#737373" transform="matrix(1.00001 0 0 1 -74.0026 -108.001)"/><path d="M24.8321 75.7712 62.4148 38.1888 99.9976 75.7712 62.4148 113.354Z" fill="#F2F2F2"/><path d="M176.872 194.883 131.7 193.407C131.697 193.407 131.695 193.404 131.695 193.401L131.872 193.236 123.652 165.415 123.426 165.06 123.721 141.733 176.872 141.733 176.872 194.883Z" fill="#FFC000" transform="matrix(1.00001 0 0 1 -74.0026 -108.001)"/><path d="M123.443 165.078 141.725 183.958 131.701 193.401C131.697 193.404 131.693 193.403 131.692 193.398L123.433 165.083C123.429 165.07 123.434 165.068 123.443 165.078Z" fill="#E6E6E6" transform="matrix(1.00001 0 0 1 -74.0026 -108.001)"/><path d="M188.877 250.762C189.974 249.352 189.849 247.345 188.586 246.082L179.228 236.724C177.965 235.461 175.959 235.336 174.548 236.433L154.238 251.809 161.052 258.622C161.049 258.625 161.047 258.626 161.045 258.629 159.488 260.185 159.488 262.709 161.045 264.266 162.601 265.823 165.125 265.823 166.682 264.266 166.684 264.264 166.686 264.261 166.688 264.259L173.034 270.605 188.877 250.762Z" fill="#505050" transform="matrix(1.00001 0 0 1 -74.0026 -108.001)"/><path d="M166.581 258.565 166.581 258.565C165.716 257.7 165.716 256.298 166.581 255.434L177.229 244.785C178.095 243.92 179.497 243.92 180.361 244.785 181.226 245.65 181.226 247.052 180.361 247.917L169.713 258.565C168.848 259.43 167.446 259.43 166.581 258.565" fill="#2F2F2F" transform="matrix(1.00001 0 0 1 -74.0026 -108.001)"/><path d="M146.453 251.343 145.27 246.262 141.475 250.057 140.849 249.431 138.623 251.656 137.972 252.007C133.023 254.671 127.61 256.36 122.024 256.98L120.13 258.874 118.559 257.305 88.5834 292.916C86.9682 294.762 86.0139 297.245 86.5082 299.387L85.9017 299.994C84.7536 301.141 84.7536 303.003 85.9017 304.151L90.5133 308.763C91.6614 309.911 93.5222 309.911 94.6708 308.763L94.7258 308.707 95.2118 308.337C97.3927 309.192 99.9516 308.826 101.82 307.191L137.363 276.091 135.797 274.526 137.663 272.66 137.672 272.589C138.3 267.036 139.985 261.655 142.634 256.734L143.008 256.04 145.234 253.815 144.607 253.188 146.453 251.343Z" fill="#737373" transform="matrix(1.00001 0 0 1 -74.0026 -108.001)"/><path d="M142.621 251.143 146.082 247.683 144.899 242.602 139.489 248.012Z" fill="#FFC000" transform="matrix(1.00001 0 0 1 -74.0026 -108.001)"/><path d="M140.477 245.771 138.252 247.996 137.6 248.347C132.651 251.012 127.237 252.7 121.652 253.32L115.934 259.038 131.602 274.69 137.291 269.001 137.3 268.93C137.928 263.377 139.613 257.995 142.262 253.075L142.636 252.381 144.862 250.155 140.477 245.771Z" fill="#505050" transform="matrix(1.00001 0 0 1 -74.0026 -108.001)"/><path d="M86.2176 296.379C85.1115 297.53 85.121 299.358 86.2548 300.491L90.8665 305.103C92.0145 306.251 93.876 306.251 95.0246 305.103L95.2892 304.839C94.4742 304.092 86.7527 296.887 86.2176 296.379Z" fill="#505050" transform="matrix(1.00001 0 0 1 -74.0026 -108.001)"/><path d="M130.643 266.089C129.086 267.636 126.569 267.633 125.016 266.08 123.463 264.527 123.46 262.013 125.005 260.455L118.188 253.645 87.0999 289.183C84.8623 291.741 84.9911 295.596 87.3934 297.999L92.634 303.239C95.037 305.642 98.8915 305.77 101.449 303.532L136.993 272.432 130.643 266.089Z" fill="#FFC000" transform="matrix(1.00001 0 0 1 -74.0026 -108.001)"/><path d="M95.9707 294.661 95.9707 294.661C95.1055 293.796 95.1055 292.394 95.9707 291.53L117.268 270.233C118.132 269.368 119.534 269.368 120.4 270.233 121.264 271.098 121.264 272.5 120.4 273.364L99.1024 294.661C98.2378 295.527 96.8352 295.527 95.9707 294.661" fill="#FFFFFF" transform="matrix(1.00001 0 0 1 -74.0026 -108.001)"/><path d="M126.386 53.5116 137.483 42.4143 155.02 59.9503 143.922 71.0475Z" fill="#737373"/><path d="M229.201 164.817 225.713 161.329C223.518 160.924 221.071 159.61 218.971 157.51 216.872 155.411 215.558 152.963 215.153 150.768L211.665 147.28 200.39 158.555 203.879 162.043C206.073 162.448 208.521 163.762 210.62 165.862 212.72 167.962 214.034 170.409 214.438 172.604L217.926 176.092 229.201 164.817Z" fill="#FFC000" transform="matrix(1.00001 0 0 1 -74.0026 -108.001)"/><path d="M131.693 45.2007 135.45 41.4429 153.015 59.0077 149.257 62.7655Z" fill="#737373"/><path d="M130.857 46.0386 131.692 45.2035 149.259 62.7703 148.424 63.6055Z" fill="#2F2F2F"/><path d="M215.109 158.867C214.302 159.675 214.302 160.983 215.109 161.79 215.916 162.597 217.224 162.597 218.031 161.79 218.839 160.983 218.839 159.674 218.031 158.867 217.225 158.06 215.916 158.06 215.109 158.867" fill="#505050" transform="matrix(1.00001 0 0 1 -74.0026 -108.001)"/><path d="M261.814 187.22 261.026 177.805C253.55 178.431 247.997 184.999 248.624 192.474L258.04 191.686C257.849 189.41 259.539 187.411 261.814 187.22Z" fill="#737373" transform="matrix(1.00001 0 0 1 -74.0026 -108.001)"/><path d="M249.215 190.859 257.482 190.859C257.482 188.576 259.333 186.725 261.616 186.725L261.616 178.457C254.53 178.457 249.215 184.096 249.215 190.859Z" fill="#FFFFFF" transform="matrix(1.00001 0 0 1 -74.0026 -108.001)"/><path d="M261.616 179.048 261.616 177.276C254.115 177.276 248.034 183.358 248.034 190.859L249.805 190.859C249.805 184.336 255.094 179.048 261.616 179.048" fill="#505050" transform="matrix(1.00001 0 0 1 -74.0026 -108.001)"/><path d="M262.473 233.489C260.858 235.103 258.241 235.103 256.626 233.489L250.607 239.508C255.552 244.453 263.458 244.542 268.492 239.508L262.473 233.489Z" fill="#FFFFFF" transform="matrix(1.00001 0 0 1 -74.0026 -108.001)"/><path d="M251.198 238.917 249.945 240.17C255.249 245.475 263.85 245.475 269.154 240.17L267.901 238.917C263.289 243.531 255.81 243.531 251.198 238.917" fill="#505050" transform="matrix(1.00001 0 0 1 -74.0026 -108.001)"/><path d="M277.903 125.788C276.51 127.597 273.914 127.934 272.106 126.541L266.341 134.027C272.284 138.604 280.813 137.496 285.39 131.553L277.903 125.788Z" fill="#737373" transform="matrix(1.00001 0 0 1 -74.0026 -108.001)"/><path d="M284.761 130.626 278.742 124.607C277.128 126.221 274.51 126.221 272.896 124.607L266.877 130.626C271.798 135.547 279.624 135.764 284.761 130.626Z" fill="#FFFFFF" transform="matrix(1.00001 0 0 1 -74.0026 -108.001)"/><path d="M267.468 130.036 266.215 131.288C271.519 136.593 280.12 136.593 285.424 131.288L284.171 130.036C279.559 134.649 272.08 134.649 267.468 130.036" fill="#FFC000" transform="matrix(1.00001 0 0 1 -74.0026 -108.001)"/><path d="M228.631 186.671C226.348 186.671 224.497 184.82 224.497 182.537L216.229 182.537C216.229 189.43 221.478 194.938 228.631 194.938L228.631 186.671Z" fill="#FFFFFF" transform="matrix(1.00001 0 0 1 -74.0026 -108.001)"/><path d="M216.82 182.537 215.048 182.537C215.048 190.038 221.13 196.119 228.631 196.119L228.631 194.348C222.108 194.348 216.82 189.06 216.82 182.537" fill="#FFC000" transform="matrix(1.00001 0 0 1 -74.0026 -108.001)"/><path d="M126.014 317.913C126.014 320.196 124.163 322.047 121.88 322.047L121.88 330.314C128.859 330.314 134.282 325.023 134.282 317.913L126.014 317.913Z" fill="#FFFFFF" transform="matrix(1.00001 0 0 1 -74.0026 -108.001)"/><path d="M121.88 329.724 121.88 331.496C129.381 331.496 135.463 325.414 135.463 317.913L133.691 317.913C133.691 324.436 128.403 329.724 121.88 329.724" fill="#FFC000" transform="matrix(1.00001 0 0 1 -74.0026 -108.001)"/></g></svg>