<svg width="424" height="354" xmlns="http://www.w3.org/2000/svg" xmlns:xlink="http://www.w3.org/1999/xlink" overflow="hidden"><defs><clipPath id="clip0"><rect x="0" y="0" width="424" height="354"/></clipPath></defs><g clip-path="url(#clip0)"><path d="M1.45797 0.867416 426.66 0.867416 426.66 355.202 1.45797 355.202Z" fill="#E5E5E5"/><path d="M36.5962 35.7788 36.5962 319.837 391.522 319.837 391.522 35.7788 36.5962 35.7788ZM390.931 71.2123 356.088 71.2123 356.088 36.3694 390.931 36.3694 390.931 71.2123ZM213.764 178.103 213.764 212.946 178.921 212.946 178.921 178.103 213.764 178.103ZM178.921 177.513 178.921 142.67 213.764 142.67 213.764 177.513 178.921 177.513ZM214.354 178.103 249.197 178.103 249.197 212.946 214.354 212.946 214.354 178.103ZM214.354 177.513 214.354 142.67 249.197 142.67 249.197 177.513 214.354 177.513ZM249.788 142.67 284.631 142.67 284.631 177.513 249.788 177.513 249.788 142.67ZM249.788 142.079 249.788 107.236 284.631 107.236 284.631 142.079 249.788 142.079ZM249.197 142.079 214.354 142.079 214.354 107.236 249.197 107.236 249.197 142.079ZM213.764 142.079 178.921 142.079 178.921 107.236 213.764 107.236 213.764 142.079ZM178.33 142.079 143.487 142.079 143.487 107.236 178.33 107.236 178.33 142.079ZM178.33 142.67 178.33 177.513 143.487 177.513 143.487 142.67 178.33 142.67ZM178.33 178.103 178.33 212.946 143.487 212.946 143.487 178.103 178.33 178.103ZM178.33 213.537 178.33 248.38 143.487 248.38 143.487 213.537 178.33 213.537ZM178.921 213.537 213.764 213.537 213.764 248.38 178.921 248.38 178.921 213.537ZM214.354 213.537 249.197 213.537 249.197 248.38 214.354 248.38 214.354 213.537ZM249.788 213.537 284.631 213.537 284.631 248.38 249.788 248.38 249.788 213.537ZM249.788 212.946 249.788 178.103 284.631 178.103 284.631 212.946 249.788 212.946ZM285.221 178.103 320.064 178.103 320.064 212.946 285.221 212.946 285.221 178.103ZM285.221 177.513 285.221 142.67 320.064 142.67 320.064 177.513 285.221 177.513ZM285.221 142.079 285.221 107.236 320.064 107.236 320.064 142.079 285.221 142.079ZM285.221 106.646 285.221 71.8028 320.064 71.8028 320.064 106.646 285.221 106.646ZM284.631 106.646 249.788 106.646 249.788 71.8028 284.631 71.8028 284.631 106.646ZM249.197 106.646 214.354 106.646 214.354 71.8028 249.197 71.8028 249.197 106.646ZM213.764 106.646 178.921 106.646 178.921 71.8028 213.764 71.8028 213.764 106.646ZM178.33 106.646 143.487 106.646 143.487 71.8028 178.33 71.8028 178.33 106.646ZM142.897 106.646 108.054 106.646 108.054 71.8028 142.897 71.8028 142.897 106.646ZM142.897 107.236 142.897 142.079 108.054 142.079 108.054 107.236 142.897 107.236ZM142.897 142.67 142.897 177.513 108.054 177.513 108.054 142.67 142.897 142.67ZM142.897 178.103 142.897 212.946 108.054 212.946 108.054 178.103 142.897 178.103ZM142.897 213.537 142.897 248.38 108.054 248.38 108.054 213.537 142.897 213.537ZM142.897 248.97 142.897 283.813 108.054 283.813 108.054 248.97 142.897 248.97ZM143.487 248.97 178.33 248.97 178.33 283.813 143.487 283.813 143.487 248.97ZM178.921 248.97 213.764 248.97 213.764 283.813 178.921 283.813 178.921 248.97ZM214.354 248.97 249.197 248.97 249.197 283.813 214.354 283.813 214.354 248.97ZM249.788 248.97 284.631 248.97 284.631 283.813 249.788 283.813 249.788 248.97ZM285.221 248.97 320.064 248.97 320.064 283.813 285.221 283.813 285.221 248.97ZM285.221 248.38 285.221 213.537 320.064 213.537 320.064 248.38 285.221 248.38ZM320.655 213.537 355.498 213.537 355.498 248.38 320.655 248.38 320.655 213.537ZM320.655 212.946 320.655 178.103 355.498 178.103 355.498 212.946 320.655 212.946ZM320.655 177.513 320.655 142.67 355.498 142.67 355.498 177.513 320.655 177.513ZM320.655 142.079 320.655 107.236 355.498 107.236 355.498 142.079 320.655 142.079ZM320.655 106.646 320.655 71.8028 355.498 71.8028 355.498 106.646 320.655 106.646ZM320.655 71.2123 320.655 36.3694 355.498 36.3694 355.498 71.2123 320.655 71.2123ZM320.064 71.2123 285.221 71.2123 285.221 36.3694 320.064 36.3694 320.064 71.2123ZM284.631 71.2123 249.788 71.2123 249.788 36.3694 284.631 36.3694 284.631 71.2123ZM249.197 71.2123 214.354 71.2123 214.354 36.3694 249.197 36.3694 249.197 71.2123ZM213.764 71.2123 178.921 71.2123 178.921 36.3694 213.764 36.3694 213.764 71.2123ZM178.33 71.2123 143.487 71.2123 143.487 36.3694 178.33 36.3694 178.33 71.2123ZM142.897 71.2123 108.054 71.2123 108.054 36.3694 142.897 36.3694 142.897 71.2123ZM107.463 71.2123 72.6202 71.2123 72.6202 36.3694 107.463 36.3694 107.463 71.2123ZM107.463 71.8028 107.463 106.646 72.6202 106.646 72.6202 71.8028 107.463 71.8028ZM107.463 107.236 107.463 142.079 72.6202 142.079 72.6202 107.236 107.463 107.236ZM107.463 142.67 107.463 177.513 72.6202 177.513 72.6202 142.67 107.463 142.67ZM107.463 178.103 107.463 212.946 72.6202 212.946 72.6202 178.103 107.463 178.103ZM107.463 213.537 107.463 248.38 72.6202 248.38 72.6202 213.537 107.463 213.537ZM107.463 248.97 107.463 283.813 72.6202 283.813 72.6202 248.97 107.463 248.97ZM107.463 284.404 107.463 319.246 72.6202 319.246 72.6202 284.404 107.463 284.404ZM108.054 284.404 142.897 284.404 142.897 319.246 108.054 319.246 108.054 284.404ZM143.487 284.404 178.33 284.404 178.33 319.246 143.487 319.246 143.487 284.404ZM178.921 284.404 213.764 284.404 213.764 319.246 178.921 319.246 178.921 284.404ZM214.354 284.404 249.197 284.404 249.197 319.246 214.354 319.246 214.354 284.404ZM249.788 284.404 284.631 284.404 284.631 319.246 249.788 319.246 249.788 284.404ZM285.221 284.404 320.064 284.404 320.064 319.246 285.221 319.246 285.221 284.404ZM320.655 284.404 355.498 284.404 355.498 319.246 320.655 319.246 320.655 284.404ZM320.655 283.813 320.655 248.97 355.498 248.97 355.498 283.813 320.655 283.813ZM356.088 248.97 390.931 248.97 390.931 283.813 356.088 283.813 356.088 248.97ZM356.088 248.38 356.088 213.537 390.931 213.537 390.931 248.38 356.088 248.38ZM356.088 212.946 356.088 178.103 390.931 178.103 390.931 212.946 356.088 212.946ZM356.088 177.513 356.088 142.67 390.931 142.67 390.931 177.513 356.088 177.513ZM356.088 142.079 356.088 107.236 390.931 107.236 390.931 142.079 356.088 142.079ZM356.088 106.646 356.088 71.8028 390.931 71.8028 390.931 106.646 356.088 106.646ZM37.1867 36.3694 72.0297 36.3694 72.0297 71.2123 37.1867 71.2123 37.1867 36.3694ZM37.1867 71.8028 72.0297 71.8028 72.0297 106.646 37.1867 106.646 37.1867 71.8028ZM37.1867 107.236 72.0297 107.236 72.0297 142.079 37.1867 142.079 37.1867 107.236ZM37.1867 142.67 72.0297 142.67 72.0297 177.513 37.1867 177.513 37.1867 142.67ZM37.1867 178.103 72.0297 178.103 72.0297 212.946 37.1867 212.946 37.1867 178.103ZM37.1867 213.537 72.0297 213.537 72.0297 248.38 37.1867 248.38 37.1867 213.537ZM37.1867 248.97 72.0297 248.97 72.0297 283.813 37.1867 283.813 37.1867 248.97ZM37.1867 284.404 72.0297 284.404 72.0297 319.246 37.1867 319.246 37.1867 284.404ZM356.088 319.246 356.088 284.404 390.931 284.404 390.931 319.246 356.088 319.246Z" fill="#D1D1D1"/><path d="M279.879 362.289C263.799 362.289 249.599 353.408 235.616 347.61 221.121 341.6 204.857 337.613 193.934 326.689 183.01 315.766 179.023 299.502 173.013 285.008 167.215 271.025 158.334 256.824 158.334 240.745 158.334 224.665 167.215 210.465 173.013 196.482 179.023 181.987 183.01 165.723 193.934 154.8 204.857 143.876 221.121 139.889 235.615 133.879 249.598 128.081 263.799 119.2 279.878 119.2 295.958 119.2 310.159 128.081 324.141 133.879 338.636 139.889 354.9 143.876 365.823 154.8 376.747 165.723 380.734 181.987 386.745 196.481 392.543 210.464 401.423 224.665 401.423 240.744 401.423 256.824 392.543 271.024 386.745 285.007 380.734 299.502 376.747 315.766 365.823 326.689 354.9 337.613 338.637 341.6 324.142 347.61 310.159 353.408 295.958 362.289 279.879 362.289Z" fill="#D1D1D1"/><path d="M284.013 353.43C267.933 353.43 253.733 344.55 239.75 338.752 225.255 332.741 208.991 328.754 198.068 317.831 187.144 306.907 183.157 290.644 177.147 276.149 171.349 262.167 162.468 247.966 162.468 231.886 162.468 215.807 171.349 201.606 177.147 187.624 183.157 173.129 187.144 156.865 198.068 145.941 208.991 135.018 225.255 131.031 239.749 125.02 253.732 119.222 267.933 110.342 284.012 110.342 300.092 110.342 314.293 119.222 328.275 125.02 342.77 131.031 359.034 135.018 369.957 145.941 380.881 156.865 384.868 173.128 390.879 187.623 396.677 201.606 405.557 215.806 405.557 231.886 405.557 247.966 396.677 262.166 390.879 276.149 384.868 290.643 380.881 306.907 369.957 317.831 359.034 328.754 342.77 332.741 328.276 338.752 314.293 344.55 300.092 353.43 284.013 353.43Z" fill="#FFFFFF"/><path d="M401.906 223.913 401.906 219.189 396.591 219.189 396.591 209.839 394.229 209.839 394.229 219.189 388.258 219.189C381.421 165.756 335.661 124.319 280.399 124.319 220.435 124.319 171.652 173.103 171.652 233.067 171.652 293.031 220.435 341.815 280.399 341.815 335.661 341.815 381.421 300.379 388.258 246.946L393.048 246.946 393.048 258.855 397.772 258.855 397.772 246.946 401.906 246.946 401.906 242.221 396.591 242.221 396.591 223.914 401.906 223.914ZM394.229 242.221 381.827 242.221 381.839 244.583C376.091 296.448 333.772 335.148 280.399 335.148 223.134 335.148 178.318 290.332 178.318 233.067 178.318 175.802 223.135 130.986 280.399 130.986 333.772 130.986 376.091 169.687 381.839 221.551L381.827 223.913 394.229 223.913 394.229 242.221Z" fill="#505050"/><path d="M280.399 333.462C224.952 333.462 180.004 288.514 180.004 233.068 180.004 177.621 224.952 132.673 280.399 132.673 335.846 132.673 380.794 177.621 380.794 233.068 380.794 288.514 335.846 333.462 280.399 333.462Z" fill="#FFFFFF"/><path d="M280.399 337.005C223.087 337.005 176.46 290.379 176.46 233.067 176.46 175.755 223.087 129.129 280.399 129.129 337.711 129.129 384.337 175.755 384.337 233.067 384.337 290.379 337.711 337.005 280.399 337.005ZM280.399 136.216C226.994 136.216 183.547 179.663 183.547 233.067 183.547 286.471 226.994 329.918 280.399 329.918 333.803 329.918 377.25 286.471 377.25 233.067 377.25 179.663 333.803 136.216 280.399 136.216Z" fill="#737373"/><path d="M280.4 313.678C279.216 313.678 278.017 313.652 276.834 313.601L276.859 313.011C278.033 313.062 279.224 313.087 280.398 313.087L280.572 313.087 280.572 313.678 280.4 313.678ZM284.139 313.593 284.112 313.003C285.284 312.95 286.473 312.869 287.644 312.764L287.696 313.353C286.517 313.458 285.32 313.539 284.139 313.593ZM273.277 313.368C272.097 313.265 270.905 313.134 269.733 312.979L269.81 312.394C270.974 312.547 272.157 312.677 273.329 312.78L273.277 313.368ZM291.24 312.956 291.161 312.371C292.324 312.214 293.5 312.03 294.658 311.821L294.762 312.402C293.596 312.612 292.411 312.798 291.24 312.956ZM266.209 312.434C265.04 312.226 263.864 311.99 262.713 311.732L262.843 311.156C263.984 311.411 265.152 311.646 266.313 311.852L266.209 312.434ZM298.256 311.694 298.125 311.117C299.269 310.859 300.425 310.57 301.56 310.26L301.715 310.83C300.572 311.142 299.408 311.433 298.256 311.694ZM259.251 310.875C258.113 310.566 256.962 310.227 255.831 309.866L256.011 309.304C257.134 309.662 258.275 309.999 259.406 310.306L259.251 310.875ZM305.133 309.813 304.952 309.251C306.073 308.89 307.198 308.499 308.296 308.091L308.502 308.645C307.395 309.056 306.262 309.449 305.133 309.813ZM252.451 308.701C251.341 308.292 250.223 307.849 249.127 307.388L249.357 306.844C250.444 307.302 251.554 307.741 252.656 308.147L252.451 308.701ZM311.807 307.33 311.577 306.786C312.654 306.33 313.737 305.843 314.797 305.338L315.051 305.87C313.984 306.38 312.892 306.871 311.807 307.33ZM245.867 305.928C244.795 305.419 243.721 304.88 242.675 304.325L242.952 303.803C243.99 304.354 245.056 304.889 246.12 305.394L245.867 305.928ZM318.229 304.268 317.952 303.747C318.989 303.194 320.025 302.613 321.034 302.017L321.334 302.525C320.318 303.125 319.274 303.712 318.229 304.268ZM239.559 302.581C238.539 301.981 237.518 301.35 236.523 300.702L236.845 300.207C237.833 300.849 238.846 301.477 239.858 302.073L239.559 302.581ZM324.36 300.647 324.037 300.153C325.022 299.511 326.005 298.839 326.957 298.157L327.301 298.637C326.341 299.324 325.352 300 324.36 300.647ZM233.574 298.692C232.611 298.003 231.65 297.284 230.718 296.553L231.082 296.088C232.008 296.814 232.961 297.528 233.918 298.211L233.574 298.692ZM330.15 296.498 329.785 296.034C330.708 295.309 331.628 294.553 332.519 293.787L332.904 294.236C332.006 295.006 331.08 295.768 330.15 296.498ZM227.959 294.292C227.059 293.52 226.165 292.719 225.303 291.911L225.707 291.481C226.563 292.282 227.45 293.078 228.344 293.844L227.959 294.292ZM335.556 291.853 335.152 291.423C336.01 290.617 336.86 289.784 337.679 288.944L338.102 289.357C337.277 290.202 336.42 291.042 335.556 291.853ZM222.755 289.417C221.927 288.57 221.107 287.695 220.319 286.814L220.759 286.42C221.541 287.294 222.354 288.164 223.177 289.004L222.755 289.417ZM340.535 286.75 340.095 286.356C340.878 285.48 341.651 284.574 342.395 283.664L342.852 284.038C342.104 284.955 341.324 285.867 340.535 286.75ZM218.001 284.106C217.254 283.194 216.514 282.25 215.804 281.301L216.277 280.947C216.982 281.89 217.716 282.827 218.457 283.732L218.001 284.106ZM345.049 281.226 344.575 280.873C345.28 279.928 345.972 278.957 346.63 277.988L347.119 278.32C346.456 279.297 345.759 280.274 345.049 281.226ZM213.734 278.402C213.069 277.426 212.415 276.42 211.794 275.415L212.296 275.104C212.914 276.103 213.562 277.1 214.222 278.069L213.734 278.402ZM349.06 275.324 348.557 275.014C349.176 274.011 349.779 272.983 350.35 271.957L350.866 272.244C350.29 273.277 349.682 274.314 349.06 275.324ZM209.988 272.346C209.412 271.315 208.85 270.257 208.32 269.201L208.848 268.936C209.375 269.984 209.931 271.035 210.503 272.057L209.988 272.346ZM352.535 269.087 352.006 268.823C352.533 267.77 353.043 266.692 353.522 265.617L354.061 265.857C353.579 266.94 353.065 268.026 352.535 269.087ZM206.794 265.986C206.311 264.91 205.847 263.807 205.412 262.708L205.961 262.491C206.393 263.582 206.854 264.677 207.333 265.745L206.794 265.986ZM355.443 262.562 354.893 262.346C355.324 261.253 355.736 260.132 356.118 259.015L356.677 259.207C356.291 260.331 355.877 261.46 355.443 262.562ZM204.175 259.364C203.789 258.246 203.423 257.103 203.088 255.968L203.654 255.801C203.987 256.928 204.35 258.062 204.733 259.172L204.175 259.364ZM357.758 255.808 357.191 255.642C357.522 254.515 357.831 253.366 358.112 252.225L358.685 252.365C358.403 253.515 358.091 254.673 357.758 255.808ZM202.152 252.528C201.867 251.379 201.605 250.208 201.371 249.049L201.95 248.932C202.182 250.084 202.443 251.245 202.725 252.386L202.152 252.528ZM359.458 248.885 358.879 248.77C359.108 247.618 359.315 246.445 359.493 245.284L360.076 245.373C359.897 246.543 359.689 247.724 359.458 248.885ZM200.746 245.538C200.564 244.368 200.406 243.179 200.277 242.003L200.864 241.939C200.993 243.106 201.149 244.286 201.329 245.447L200.746 245.538ZM360.539 241.838 359.952 241.775C360.078 240.607 360.18 239.42 360.255 238.249L360.844 238.286C360.768 239.466 360.666 240.661 360.539 241.838ZM199.965 238.452C199.887 237.275 199.834 236.076 199.808 234.889L200.398 234.876C200.425 236.055 200.477 237.244 200.554 238.413L199.965 238.452ZM360.993 234.723 360.403 234.711C360.414 234.164 360.419 233.616 360.419 233.067 360.419 232.433 360.412 231.801 360.397 231.171L360.988 231.157C361.003 231.792 361.01 232.429 361.01 233.067 361.01 233.62 361.004 234.172 360.993 234.723ZM200.396 231.336 199.806 231.324C199.831 230.139 199.883 228.94 199.959 227.762L200.548 227.8C200.473 228.97 200.421 230.16 200.396 231.336ZM360.238 227.634C360.159 226.463 360.054 225.277 359.924 224.109L360.511 224.044C360.642 225.22 360.748 226.416 360.827 227.595L360.238 227.634ZM200.856 224.274 200.269 224.21C200.398 223.033 200.554 221.844 200.735 220.675L201.318 220.765C201.139 221.925 200.983 223.105 200.856 224.274ZM359.454 220.601C359.272 219.439 359.062 218.267 358.83 217.118L359.409 217.001C359.643 218.158 359.855 219.339 360.038 220.511L359.454 220.601ZM201.935 217.28 201.356 217.164C201.588 216.004 201.85 214.833 202.133 213.685L202.707 213.826C202.425 214.966 202.166 216.127 201.935 217.28ZM358.051 213.665C357.767 212.522 357.453 211.373 357.119 210.25L357.685 210.082C358.021 211.213 358.337 212.371 358.624 213.522L358.051 213.665ZM203.631 210.409 203.065 210.242C203.4 209.106 203.765 207.963 204.149 206.846L204.707 207.038C204.326 208.147 203.964 209.281 203.631 210.409ZM356.036 206.88C355.652 205.771 355.237 204.654 354.804 203.562L355.353 203.344C355.789 204.444 356.207 205.569 356.594 206.687L356.036 206.88ZM205.935 203.708 205.386 203.491C205.821 202.39 206.287 201.282 206.771 200.197L207.311 200.438C206.829 201.515 206.367 202.615 205.935 203.708ZM353.429 200.31C352.949 199.24 352.438 198.167 351.911 197.121L352.438 196.855C352.969 197.909 353.484 198.99 353.968 200.068L353.429 200.31ZM208.83 197.234 208.302 196.97C208.832 195.913 209.395 194.851 209.974 193.814L210.49 194.101C209.914 195.132 209.356 196.185 208.83 197.234ZM350.252 194.001C349.679 192.979 349.075 191.954 348.456 190.957L348.958 190.645C349.581 191.651 350.19 192.683 350.767 193.712L350.252 194.001ZM212.286 191.047 211.783 190.736C212.406 189.729 213.06 188.723 213.727 187.743L214.215 188.075C213.553 189.047 212.904 190.047 212.286 191.047ZM346.526 187.993C345.866 187.026 345.173 186.059 344.468 185.117L344.94 184.763C345.651 185.71 346.348 186.685 347.014 187.66L346.526 187.993ZM216.273 185.192 215.8 184.838C216.51 183.889 217.25 182.943 218 182.028L218.457 182.402C217.713 183.311 216.979 184.249 216.273 185.192ZM342.284 182.335C341.54 181.427 340.765 180.524 339.98 179.649L340.419 179.255C341.21 180.136 341.991 181.046 342.741 181.96L342.284 182.335ZM220.76 179.713 220.32 179.319C221.109 178.438 221.929 177.562 222.756 176.715L223.178 177.128C222.357 177.969 221.543 178.838 220.76 179.713ZM337.559 177.067C336.741 176.231 335.889 175.399 335.027 174.594L335.43 174.163C336.299 174.974 337.157 175.812 337.982 176.655L337.559 177.067ZM225.709 174.652 225.305 174.221C226.167 173.414 227.061 172.613 227.959 171.842L228.344 172.29C227.452 173.056 226.565 173.851 225.709 174.652ZM332.387 172.234C331.495 171.47 330.573 170.716 329.647 169.992L330.01 169.526C330.943 170.256 331.872 171.016 332.771 171.785L332.387 172.234ZM231.08 170.047 230.716 169.583C231.644 168.855 232.604 168.136 233.568 167.447L233.912 167.927C232.954 168.612 232.002 169.325 231.08 170.047ZM326.808 167.872C325.852 167.189 324.866 166.519 323.879 165.879L324.2 165.383C325.194 166.028 326.188 166.703 327.151 167.39L326.808 167.872ZM236.833 165.934 236.511 165.439C237.499 164.796 238.518 164.165 239.539 163.564L239.839 164.073C238.826 164.67 237.814 165.296 236.833 165.934ZM320.864 164.017C319.851 163.422 318.81 162.841 317.768 162.29L318.044 161.768C319.094 162.323 320.143 162.909 321.163 163.508L320.864 164.017ZM242.922 162.347 242.645 161.826C243.691 161.271 244.76 160.732 245.824 160.226L246.078 160.76C245.022 161.262 243.959 161.796 242.922 162.347ZM314.598 160.702C313.536 160.199 312.447 159.712 311.36 159.256L311.588 158.712C312.683 159.171 313.781 159.661 314.851 160.169L314.598 160.702ZM249.3 159.314 249.071 158.77C250.16 158.31 251.273 157.87 252.377 157.46L252.583 158.014C251.486 158.42 250.382 158.858 249.3 159.314ZM308.059 157.956C306.957 157.549 305.827 157.161 304.702 156.804L304.881 156.241C306.014 156.602 307.152 156.992 308.263 157.401L308.059 157.956ZM255.928 156.857 255.748 156.295C256.876 155.933 258.027 155.592 259.166 155.282L259.322 155.852C258.19 156.159 257.048 156.498 255.928 156.857ZM301.307 155.806C300.175 155.5 299.019 155.215 297.87 154.959L297.998 154.382C299.155 154.64 300.321 154.927 301.46 155.234L301.307 155.806ZM262.756 154.998 262.626 154.421C263.78 154.161 264.957 153.924 266.122 153.716L266.226 154.297C265.069 154.504 263.901 154.74 262.756 154.998ZM294.399 154.267C293.245 154.063 292.068 153.883 290.901 153.73L290.977 153.144C292.153 153.299 293.339 153.48 294.502 153.686L294.399 154.267ZM269.723 153.753 269.645 153.167C270.814 153.012 272.007 152.879 273.188 152.774L273.24 153.362C272.067 153.466 270.884 153.598 269.723 153.753ZM287.381 153.347C286.217 153.246 285.029 153.17 283.849 153.12L283.874 152.53C285.062 152.58 286.259 152.657 287.432 152.759L287.381 153.347ZM276.772 153.127 276.746 152.537C277.927 152.485 279.126 152.458 280.311 152.456L280.311 153.047C279.135 153.048 277.944 153.075 276.772 153.127Z" fill="#FFC000"/><path d="M266.25 203.7C265.846 203.703 265.518 204.03 265.515 204.435 265.513 204.844 265.841 205.177 266.25 205.179L283.902 205.291 283.902 203.588 266.25 203.7Z" fill="#737373"/><path d="M259.098 204.735 255.555 204.735 255.555 204.144 259.098 204.144 259.098 204.735ZM252.012 204.735 248.468 204.735 248.468 204.144 252.012 204.144 252.012 204.735ZM244.925 204.735 241.382 204.735 241.382 204.144 244.925 204.144 244.925 204.735ZM237.838 204.735 234.295 204.735 234.295 204.144 237.838 204.144 237.838 204.735Z" fill="#FFC000"/><path d="M335.622 203.302 301.028 203.522 301.028 205.444 335.622 205.664C335.625 205.664 335.635 205.664 335.637 205.664 336.29 205.66 336.815 205.128 336.811 204.475 336.807 203.823 336.275 203.298 335.622 203.302ZM333.764 204.864 324.65 204.863C324.487 204.863 324.355 204.692 324.355 204.482 324.355 204.271 324.487 204.101 324.65 204.101L333.764 204.102C333.927 204.102 334.059 204.273 334.059 204.483 334.059 204.693 333.927 204.864 333.764 204.864Z" fill="#737373"/><path d="M300.497 216.82C295.223 216.82 291.112 218.36 289.104 221.124 285.43 226.179 288.317 235.999 293.207 241.65 299.512 248.937 313.265 252.552 328.368 250.625 328.371 250.624 328.373 250.622 328.373 250.619 328.377 237.475 324.614 227.123 317.221 221.848 313.194 218.974 307.421 217.106 301.779 216.85 301.345 216.83 300.917 216.82 300.497 216.82ZM352.349 134.111C348.645 134.111 345.357 135.016 342.698 136.816 338.31 139.785 335.274 145.45 334.369 152.357 333.346 160.157 335.224 167.895 339.27 172.554 344.867 178.998 356.692 181.856 369.395 179.835 376.73 178.668 383.259 176.104 388.499 172.47 388.501 172.469 388.502 172.466 388.502 172.465 387.818 162.615 384.819 154.078 379.709 147.924 375.351 142.679 368.655 138.151 361.798 135.814 358.462 134.677 355.276 134.111 352.349 134.111ZM321.698 286.919C321.628 286.919 321.558 286.906 321.489 286.88 321.184 286.765 321.03 286.425 321.145 286.119 325.82 273.719 328.206 261.894 328.365 251.681 328.365 251.678 328.362 251.675 328.358 251.675 313.994 253.592 299.781 251.052 292.314 242.422 287.025 236.31 284.09 226.014 288.149 220.428 293.269 213.381 309.255 214.712 317.907 220.886 325.565 226.35 329.491 236.992 329.53 250.458 329.53 250.462 329.533 250.465 329.536 250.464 337.82 249.255 346.457 246.379 354.463 241.53 371.167 231.414 383.862 211.337 387.594 189.135 388.487 183.824 388.809 178.688 388.582 173.849 388.582 173.845 388.577 173.842 388.574 173.845 383.293 177.364 376.817 179.849 369.581 181 356.484 183.085 344.236 180.072 338.379 173.327 334.118 168.421 332.133 160.327 333.198 152.202 334.148 144.96 337.369 138.995 342.037 135.836 347.11 132.402 354.264 131.997 362.18 134.694 369.235 137.098 376.127 141.761 380.618 147.168 385.757 153.355 388.825 161.856 389.622 171.647 389.623 171.651 389.628 171.654 389.632 171.651 394.174 168.242 397.645 163.989 399.698 159.127 402.852 151.657 402.724 142.696 399.336 133.896 396.109 125.512 390.304 118.404 383.41 114.394 374.942 109.47 364.018 108.836 352.646 112.607 337.349 117.681 324.115 129.573 318.107 143.644 309.929 162.799 314.986 186.427 330.991 203.84 331.212 204.08 331.196 204.453 330.956 204.674 330.716 204.895 330.342 204.879 330.121 204.639 313.803 186.885 308.66 162.761 317.021 143.18 323.157 128.808 336.666 116.663 352.275 111.486 363.972 107.606 375.24 108.277 384.004 113.373 391.127 117.516 397.117 124.841 400.44 133.472 403.938 142.559 404.061 151.833 400.787 159.587 398.56 164.861 394.734 169.443 389.724 173.048 389.723 173.05 389.722 173.051 389.722 173.053 390.023 178.193 389.712 183.666 388.76 189.33 384.972 211.861 372.065 232.25 355.075 242.54 347.683 247.017 338.611 250.145 329.53 251.508 329.527 251.509 329.525 251.511 329.525 251.514 329.398 261.922 326.997 273.946 322.251 286.534 322.161 286.773 321.936 286.919 321.698 286.919Z" fill="#FFC000"/><path d="M231.64 110.638 235.826 114.824 225.534 125.112 221.352 120.931 219.174 123.106C216.115 126.165 211.156 126.165 208.097 123.106L157.44 72.4495C154.381 69.3898 154.381 64.4309 157.44 61.3718L159.615 59.1938 155.569 55.145 165.858 44.8563 169.907 48.9051 172.082 46.7272C175.142 43.6675 180.104 43.6675 183.163 46.7272L233.82 97.3834C236.879 100.443 236.879 105.405 233.82 108.461L231.64 110.638Z" fill="#CFCFCF"/><path d="M168.759 41.6531 158.47 51.9424 152.766 46.2388C152.306 45.7787 152.306 45.0328 152.766 44.5728L161.389 35.9501C161.849 35.49 162.595 35.49 163.055 35.9501L168.759 41.6531Z" fill="#737373"/><path d="M231.355 105.916 222.732 114.539C222.272 114.999 221.527 114.999 221.066 114.539L215.295 108.767 225.584 98.4777 231.356 104.249C231.815 104.71 231.815 105.456 231.355 105.916Z" fill="#737373"/><path d="M233.214 92.9719C233.176 92.2775 233.032 91.5883 232.767 90.9333 232.68 90.7172 232.576 90.5064 232.464 90.2991 232.179 89.7729 231.818 89.2774 231.373 88.8327L178.609 36.0688C178.322 35.7818 178.012 35.532 177.689 35.3111 177.507 35.1877 177.322 35.0737 177.132 34.9709 176.414 34.5835 175.638 34.3467 174.848 34.2563 174.564 34.2239 174.278 34.2109 173.991 34.2168 172.412 34.2493 170.842 34.8634 169.638 36.0682L152.886 52.8199C151.681 54.0247 151.067 55.5944 151.035 57.1729 151.029 57.4594 151.042 57.7452 151.074 58.0298 151.164 58.82 151.402 59.596 151.789 60.3135 151.891 60.5037 152.005 60.6891 152.129 60.8704 152.349 61.194 152.6 61.5035 152.887 61.7905L205.651 114.554C205.941 114.845 206.254 115.098 206.582 115.32 206.763 115.443 206.949 115.557 207.14 115.659 207.781 116.003 208.469 116.225 209.172 116.332 209.445 116.374 209.719 116.399 209.995 116.406 211.665 116.443 213.347 115.829 214.622 114.554L231.373 97.8027C232.539 96.6369 233.149 95.131 233.218 93.6044 233.227 93.3948 233.225 93.1834 233.214 92.9719Z" fill="#FFFFFF"/><path d="M206.116 63.5764 200.061 63.5764 203.089 60.5492 202.64 60.1009 199.165 63.5764 196.167 63.5764 201.142 58.6015 200.693 58.1533 195.27 63.5764 192.272 63.5764 199.195 56.6538 198.746 56.2056 191.376 63.5764 188.377 63.5764 197.247 54.7062 196.799 54.2579 187.481 63.5764 184.482 63.5764 195.3 52.7585 194.852 52.3103 183.59 63.5764 180.587 63.5764 193.352 50.8109 192.904 50.3626 179.69 63.5764 176.692 63.5764 191.405 48.8638 190.957 48.4156 175.794 63.5764 172.797 63.5764 189.458 46.9161 189.01 46.4679 171.9 63.5764 168.902 63.5764 187.51 44.9685 187.062 44.5202 168.004 63.5764 165.007 63.5764 185.562 43.0208 185.114 42.5726 164.108 63.5764 161.111 63.5764 183.614 41.0732 183.166 40.6249 160.212 63.5764 157.216 63.5764 181.667 39.1255 181.219 38.6773 156.318 63.5764 154.679 63.5764C154.677 63.5764 154.675 63.5799 154.677 63.5817L155.306 64.2106 206.753 64.2112 206.116 63.5764Z" fill="#CDCDCD"/><path d="M208.788 66.2486 157.35 66.248C157.347 66.248 157.346 66.2516 157.348 66.2533L157.977 66.8823 209.423 66.8829 208.788 66.2486Z" fill="#CDCDCD"/><path d="M211.46 68.9209 160.022 68.9203C160.019 68.9203 160.018 68.9239 160.02 68.9256L160.649 69.5546 212.095 69.5552 211.46 68.9209Z" fill="#CDCDCD"/><path d="M214.133 71.5938 162.695 71.5932C162.692 71.5932 162.69 71.5967 162.692 71.5985L163.321 72.2274 214.768 72.228 214.133 71.5938Z" fill="#CDCDCD"/><path d="M216.805 74.2654 165.367 74.2649C165.364 74.2649 165.363 74.2684 165.364 74.2702L165.993 74.8991 217.44 74.8997 216.805 74.2654Z" fill="#CDCDCD"/><path d="M219.477 76.9383 168.039 76.9377C168.036 76.9377 168.035 76.9413 168.037 76.943L168.666 77.572 220.112 77.5726 219.477 76.9383Z" fill="#CDCDCD"/><path d="M222.15 79.61 170.712 79.6094C170.709 79.6094 170.708 79.6129 170.71 79.6147L171.339 80.2437 222.785 80.2443 222.15 79.61Z" fill="#CDCDCD"/><path d="M224.822 82.2829 173.384 82.2823C173.381 82.2823 173.38 82.2858 173.382 82.2876L174.011 82.9165 225.457 82.9171 224.822 82.2829Z" fill="#CDCDCD"/><path d="M227.495 84.9551 176.056 84.9545C176.054 84.9545 176.052 84.9581 176.054 84.9598L176.683 85.5888 228.13 85.5894 227.495 84.9551Z" fill="#CDCDCD"/><path d="M230.167 87.6274 178.729 87.6268C178.726 87.6268 178.725 87.6303 178.726 87.6321L179.355 88.2611 230.794 88.2617C230.797 88.2617 230.798 88.2581 230.796 88.2563L230.167 87.6274Z" fill="#CDCDCD"/><path d="M232.464 90.2997 181.401 90.2991C181.398 90.2991 181.397 90.3026 181.399 90.3044L182.028 90.9333 232.762 90.9339C232.765 90.9339 232.766 90.9316 232.765 90.9292 232.678 90.7148 232.576 90.5058 232.464 90.2997Z" fill="#CDCDCD"/><path d="M233.217 93.6062C233.226 93.3954 233.225 93.1857 233.214 92.9755 233.214 92.9737 233.212 92.9725 233.211 92.9725L184.073 92.9719C184.07 92.9719 184.069 92.9755 184.071 92.9773L184.7 93.6062 188.684 93.6062 186.692 95.5987 187.14 96.047 189.58 93.6062 192.285 93.6062 188.492 97.3994 188.94 97.8476 193.181 93.6062 195.886 93.6062 190.292 99.2 190.741 99.6482 196.783 93.6062 199.487 93.6062 192.093 101 192.541 101.448 200.384 93.6056 203.089 93.6056 193.894 102.8 194.343 103.248 203.986 93.605 206.69 93.605 195.695 104.6 196.143 105.048 207.587 93.605 210.292 93.605 197.496 106.401 197.944 106.849 211.188 93.605 213.892 93.605 199.296 108.202 199.744 108.65 214.789 93.6056 217.494 93.6056 201.097 110.002 201.545 110.451 218.39 93.6056 221.095 93.6056 202.897 111.804 203.346 112.252 221.992 93.6062 224.696 93.6062 204.698 113.604 205.146 114.052 225.592 93.6056 228.297 93.6056 206.584 115.319C206.582 115.32 206.582 115.322 206.584 115.324 206.764 115.446 206.949 115.559 207.139 115.661L229.193 93.6056 231.898 93.6056 209.176 116.328C209.174 116.33 209.175 116.334 209.177 116.334 209.448 116.375 209.721 116.401 209.994 116.406L232.793 93.6056 233.217 93.6062 233.217 93.6062Z" fill="#CDCDCD"/><path d="M173.991 34.2174 151.034 57.1741C151.028 57.4582 151.04 57.7422 151.072 58.0245 151.073 58.0269 151.076 58.0281 151.078 58.0263L174.843 34.2617C174.845 34.2599 174.843 34.2563 174.841 34.2558 174.558 34.2245 174.275 34.2115 173.991 34.2174Z" fill="#CDCDCD"/><path d="M177.132 34.9715 151.788 60.3153C151.89 60.5043 152.003 60.6885 152.126 60.8686 152.127 60.8704 152.129 60.8704 152.131 60.8692L177.689 35.3117C177.507 35.1883 177.322 35.0743 177.132 34.9715Z" fill="#CDCDCD"/><path d="M153.542 62.453 179.264 36.7307 179.712 37.1792 153.99 62.9014Z" fill="#CDCDCD"/><path d="M297.358 26.8951 297.358 41.4482 291.442 41.4482 291.442 44.5267C291.442 48.8543 287.932 52.3611 283.608 52.3611L211.969 52.3611C207.641 52.3611 204.135 48.8514 204.135 44.5267L204.135 41.4482 198.411 41.4482 198.411 26.8951 204.135 26.8951 204.135 23.8165C204.135 19.4889 207.641 15.9821 211.969 15.9821L283.608 15.9821C287.932 15.9821 291.442 19.4889 291.442 23.8165L291.442 26.8951C291.442 26.8951 297.358 26.8951 297.358 26.8951Z" fill="#CFCFCF"/><path d="M198.696 22.0797 198.696 36.6304 190.63 36.6304C189.979 36.6304 189.452 36.103 189.452 35.4522L189.452 23.2578C189.452 22.607 189.979 22.0797 190.63 22.0797L198.696 22.0797Z" fill="#505050"/><path d="M288.4 23.2584 288.4 35.4528C288.4 36.1036 287.872 36.631 287.221 36.631L279.059 36.631 279.059 22.0802 287.221 22.0802C287.872 22.0797 288.4 22.6076 288.4 23.2584Z" fill="#505050"/><path d="M280.561 12.7914C280.043 12.3272 279.454 11.9415 278.804 11.6663 278.589 11.5754 278.367 11.4992 278.141 11.4319 277.568 11.2612 276.961 11.1667 276.332 11.1667L201.712 11.1667C201.306 11.1667 200.911 11.2087 200.526 11.2813 200.31 11.3221 200.099 11.3728 199.891 11.4348 199.11 11.6687 198.394 12.0496 197.771 12.5445 197.547 12.7229 197.335 12.916 197.137 13.1227 196.044 14.2624 195.368 15.8062 195.368 17.5099L195.368 41.2007C195.368 42.9045 196.044 44.4482 197.137 45.588 197.335 45.7947 197.547 45.9878 197.771 46.1661 198.394 46.661 199.11 47.0419 199.891 47.2758 200.099 47.3378 200.31 47.3886 200.526 47.4293 200.91 47.502 201.306 47.5439 201.712 47.5439L276.332 47.5439C276.743 47.5439 277.143 47.5014 277.532 47.427 277.748 47.3856 277.959 47.3343 278.166 47.2717 278.863 47.0614 279.506 46.7313 280.079 46.3102 280.301 46.1466 280.514 45.9712 280.713 45.7805 281.92 44.626 282.675 43.0025 282.675 41.2001L282.675 17.5093C282.675 15.8611 282.042 14.3646 281.01 13.2366 280.869 13.0813 280.719 12.9325 280.561 12.7914Z" fill="#FFC000"/><path d="M240.613 11.1667 236.332 15.4477 236.332 11.1667 235.698 11.1667 235.698 16.0819 233.578 18.202 233.578 11.1667 232.944 11.1667 232.944 18.8363 230.824 20.9564 230.824 11.1667 230.189 11.1667 230.189 21.5907 228.069 23.7108 228.069 11.1661 227.435 11.1661 227.436 24.3438 225.315 26.4645 225.315 11.1661 224.681 11.1661 224.684 27.0953 222.561 29.2189 222.561 11.1661 221.926 11.1661 221.926 29.8532 219.806 31.9733 219.806 11.1661 219.172 11.1661 219.17 32.6087 217.051 34.7276 217.051 11.1661 216.417 11.1661 216.416 35.3625 214.296 37.482 214.296 11.1661 213.662 11.1661 213.661 38.1174 211.541 40.2363 211.541 11.1661 210.907 11.1661 210.905 40.8718 208.786 42.9907 208.787 11.1667 208.153 11.1667 208.151 43.6267 206.033 45.7451 206.033 11.1661 205.399 11.1661 205.398 46.3799 204.239 47.5386C204.237 47.5404 204.239 47.5439 204.241 47.5439L205.13 47.5439 241.509 11.1661 240.613 11.1661Z" fill="#FFFFFF"/><path d="M244.393 11.1667 208.02 47.5392C208.019 47.5409 208.02 47.5445 208.023 47.5445L208.912 47.5445 245.29 11.1667 244.393 11.1667Z" fill="#FFFFFF"/><path d="M248.172 11.1667 211.799 47.5392C211.798 47.5409 211.799 47.5445 211.802 47.5445L212.691 47.5445 249.069 11.1667 248.172 11.1667Z" fill="#FFFFFF"/><path d="M251.951 11.1667 215.579 47.5392C215.577 47.5409 215.578 47.5445 215.581 47.5445L216.47 47.5445 252.849 11.1667 251.951 11.1667Z" fill="#FFFFFF"/><path d="M255.73 11.1667 219.358 47.5392C219.356 47.5409 219.357 47.5445 219.36 47.5445L220.249 47.5445 256.628 11.1667 255.73 11.1667Z" fill="#FFFFFF"/><path d="M259.51 11.1667 223.138 47.5392C223.136 47.5409 223.137 47.5445 223.14 47.5445L224.029 47.5445 260.407 11.1667 259.51 11.1667Z" fill="#FFFFFF"/><path d="M263.289 11.1667 226.917 47.5392C226.915 47.5409 226.916 47.5445 226.919 47.5445L227.808 47.5445 264.186 11.1667 263.289 11.1667Z" fill="#FFFFFF"/><path d="M267.069 11.1667 230.696 47.5392C230.694 47.5409 230.696 47.5445 230.698 47.5445L231.587 47.5445 267.966 11.1667 267.069 11.1667Z" fill="#FFFFFF"/><path d="M270.848 11.1667 234.475 47.5392C234.473 47.5409 234.475 47.5445 234.477 47.5445L235.366 47.5445 271.745 11.1667 270.848 11.1667Z" fill="#FFFFFF"/><path d="M274.627 11.1667 238.255 47.5392C238.253 47.5409 238.254 47.5445 238.257 47.5445L239.146 47.5445 275.524 11.1667C275.524 11.1667 274.627 11.1667 274.627 11.1667Z" fill="#FFFFFF"/><path d="M278.14 11.4331 242.034 47.5392C242.032 47.5409 242.033 47.5445 242.036 47.5445L242.925 47.5445 278.8 11.6693C278.802 11.6675 278.801 11.6646 278.799 11.664 278.586 11.5742 278.367 11.4986 278.143 11.4325 278.142 11.4319 278.14 11.4325 278.14 11.4331Z" fill="#FFFFFF"/><path d="M281.011 13.2378C280.869 13.0825 280.72 12.9343 280.563 12.7937 280.562 12.7925 280.56 12.7925 280.558 12.7937L245.812 47.5392C245.81 47.5409 245.811 47.5445 245.814 47.5445L246.703 47.5445 249.521 44.7269 249.521 47.5445 250.155 47.5445 250.155 44.0933 252.067 42.181 252.067 47.5451 252.702 47.5451 252.702 41.5474 254.614 39.6351 254.614 47.5457 255.248 47.5457 255.248 38.9997 257.16 37.0875 257.16 47.5445 257.794 47.5445 257.794 36.4538 259.707 34.5416 259.707 47.5445 260.341 47.5445 260.342 33.9067 262.253 31.9951 262.253 47.5451 262.887 47.5451 262.887 31.3614 264.8 29.4492 264.8 47.5451 265.434 47.5451 265.435 28.815 267.347 26.9027 267.347 47.5451 267.981 47.5451 267.981 26.2685 269.893 24.3562 269.893 47.5451 270.527 47.5451 270.527 23.7226 272.44 21.8104 272.44 47.5457 273.074 47.5457 273.074 21.1761 274.986 19.2639 274.986 47.5457 275.62 47.5457 275.62 18.6302 277.533 16.7174 277.533 47.4246C277.533 47.4264 277.535 47.4281 277.537 47.4276 277.751 47.3862 277.961 47.3354 278.167 47.2734L278.166 16.0837 280.08 14.1703 280.08 46.3055C280.08 46.3079 280.083 46.3096 280.085 46.3079 280.306 46.1455 280.516 45.9706 280.714 45.7817L280.712 13.5378 281.011 13.2378Z" fill="#FFFFFF"/><path d="M197.138 13.1227 197.138 45.5886C197.334 45.7935 197.544 45.9854 197.767 46.1626 197.769 46.1644 197.772 46.1626 197.772 46.1602L197.772 12.5522C197.772 12.5498 197.77 12.5481 197.767 12.5498 197.544 12.7258 197.335 12.9177 197.138 13.1227Z" fill="#FFFFFF"/><path d="M199.892 11.4348 199.891 47.2764C200.097 47.3378 200.308 47.3886 200.522 47.4287 200.523 47.4293 200.525 47.4276 200.525 47.4258L200.526 11.2854C200.526 11.2837 200.524 11.2819 200.522 11.2825 200.308 11.3226 200.098 11.3734 199.892 11.4348Z" fill="#FFFFFF"/><path d="M202.646 11.1667 203.281 11.1667 203.281 47.5445 202.646 47.5445Z" fill="#FFFFFF"/><path d="M107.154 304.379C107.15 304.377 107.145 304.374 107.141 304.372 106.352 303.919 105.865 303.079 105.912 302.17L109.806 249.27 161.695 184.521C162.974 182.924 162.53 180.563 160.757 179.541L160.757 179.541 160.666 179.488C159.476 178.802 157.972 179.012 157.015 179.997L123.757 214.242 115.764 222.472 118.879 211.43 131.845 165.479C132.218 164.16 131.644 162.756 130.454 162.074L130.361 162.022 127.023 160.097C127.006 160.087 126.985 160.095 126.978 160.113L95.5611 241.059 51.7369 270.944C50.9745 271.44 50.0042 271.439 49.2164 270.984 49.2117 270.981 49.2075 270.979 49.2034 270.977 39.5312 265.401 27.1697 268.722 21.5948 278.395 15.776 288.49 19.6483 301.513 30.3168 306.694 39.3417 311.077 50.3922 308.054 55.9358 299.692 57.7937 296.891 58.859 293.822 59.2016 290.732 59.997 283.551 64.0247 277.212 70.1198 273.647 70.5982 273.367 71.0883 273.105 71.5897 272.859 71.6092 272.849 72.6893 272.346 73.2309 272.135L87.1273 266.745C88.5529 266.191 89.9478 265.571 91.3096 264.893 91.4071 266.412 91.5689 267.929 91.8045 269.441L94.1053 284.167C94.172 284.593 94.2175 285.019 94.2577 285.443 94.2736 285.615 94.2908 285.787 94.3026 285.958 94.3173 286.161 94.3221 286.362 94.3309 286.564 94.348 286.997 94.3575 287.428 94.351 287.858 94.2435 294.829 90.7935 301.39 85.045 305.628 82.5422 307.473 80.4209 309.933 78.928 312.945 74.471 321.933 77.3943 333.01 85.7105 338.623 95.5415 345.258 108.751 342.081 114.57 331.986 120.148 322.316 116.827 309.955 107.154 304.379ZM49.4827 293.689C46.1372 299.492 38.7204 301.485 32.917 298.14 27.1142 294.794 25.121 287.378 28.466 281.575 31.8115 275.771 39.2283 273.778 45.0311 277.124 50.8339 280.469 52.8271 287.885 49.4827 293.689ZM108.809 326.395C105.464 332.199 98.0467 334.191 92.2433 330.847 86.4405 327.501 84.4473 320.085 87.7923 314.282 91.1378 308.478 98.5546 306.485 104.357 309.831 110.161 313.175 112.154 320.592 108.809 326.395Z" fill="#D1D1D1"/><path d="M161.026 174.928 161.026 174.928C159.836 174.242 158.332 174.452 157.375 175.437L124.117 209.681 101.105 233.372C100.815 233.671 100.886 234.162 101.249 234.366L105.347 236.668 161.101 176.445C161.101 176.445 161.271 175.133 161.117 174.98 161.091 174.954 161.026 174.928 161.026 174.928Z" fill="#505050"/><path d="M70.4818 269.085C70.9602 268.805 71.4486 268.541 71.9517 268.297 71.9712 268.287 71.9895 268.276 72.0096 268.267 72.5257 268.018 73.0513 267.783 73.5929 267.573L87.4893 262.183C95.7341 258.984 102.989 253.665 108.518 246.764L162.054 179.959C163.333 178.363 162.889 176.001 161.117 174.98L161.117 174.98 104.825 233.611 102.292 232.152 64.1138 258.188C64.1138 258.188 62.5229 262.37 64.425 265.668 66.3284 268.966 70.4818 269.085 70.4818 269.085Z" fill="#737373"/><path d="M56.2972 295.13C58.1551 292.329 59.2205 289.26 59.563 286.17 60.3585 278.989 64.3861 272.65 70.4812 269.085L64.1144 258.188 52.0977 266.383C51.3353 266.879 50.365 266.878 49.5772 266.422 49.5725 266.42 49.5684 266.418 49.5642 266.415 39.8921 260.839 27.5305 264.161 21.9557 273.834 16.1369 283.928 20.0092 296.951 30.6776 302.133 39.7031 306.515 50.753 303.492 56.2972 295.13ZM33.4125 294.436C27.6097 291.091 25.6165 283.675 28.9614 277.871 32.307 272.068 39.7238 270.075 45.5266 273.42 51.33 276.766 53.3232 284.182 49.9782 289.985 46.6327 295.789 39.2159 297.781 33.4125 294.436Z" fill="#FFC000"/><path d="M130.814 157.513 130.814 157.513C132.004 158.199 132.577 159.606 132.204 160.927L119.241 206.869 110.734 237.016C110.734 237.017 110.733 237.018 110.732 237.018L104.291 238.528 128.567 158.683C128.567 158.683 130.551 157.362 130.722 157.461 130.75 157.477 130.814 157.513 130.814 157.513Z" fill="#737373"/><path d="M110.137 245.124 110.733 237.018 108.201 235.559 130.722 157.46 128.849 156.381 128.849 156.381C128.061 155.927 127.054 156.281 126.725 157.129L124.373 163.19 94.9681 238.953C91.7685 247.197 90.8017 256.141 92.1665 264.879L94.4573 279.54C94.5252 279.976 94.576 280.414 94.6179 280.853 94.6351 281.034 94.6516 281.216 94.6652 281.398 94.6787 281.597 94.6853 281.796 94.6929 281.995 94.7124 282.43 94.7201 282.865 94.713 283.297 94.713 283.297 96.004 286.974 100.95 286.974 105.896 286.974 107.321 283.345 107.321 283.345L110.137 245.124Z" fill="#D1D1D1"/><path d="M114.933 327.426C120.507 317.754 117.187 305.392 107.514 299.817 107.51 299.815 107.505 299.812 107.501 299.81 106.712 299.356 106.225 298.517 106.272 297.608L107.322 283.345 94.7136 283.297C94.6067 290.268 91.1561 296.828 85.4076 301.066 82.9048 302.912 80.7835 305.372 79.29 308.383 74.833 317.371 77.7563 328.448 86.0725 334.061 95.9042 340.698 109.114 337.521 114.933 327.426ZM91.3628 327.839C85.5594 324.494 83.5662 317.077 86.9117 311.274 90.2572 305.47 97.6735 303.477 103.477 306.823 109.28 310.168 111.273 317.585 107.928 323.388 104.582 329.191 97.1662 331.184 91.3628 327.839Z" fill="#FFC000"/><path d="M105.515 241.205C106.282 243.216 105.273 245.468 103.263 246.235 101.252 247.002 99.0006 245.993 98.2336 243.983 97.4666 241.972 98.4748 239.721 100.485 238.954 102.496 238.187 104.748 239.195 105.515 241.205Z" fill="#505050"/><path d="M156.17 233.098C156.961 237.254 154.233 241.263 150.078 242.054 145.922 242.845 141.913 240.117 141.122 235.961 140.331 231.806 143.059 227.796 147.215 227.006 151.37 226.215 155.38 228.943 156.17 233.098Z" fill="#D1D1D1"/><path d="M154.074 227.148C151.084 224.157 146.234 224.157 143.243 227.148 140.253 230.138 140.253 234.988 143.243 237.979 146.234 240.969 151.084 240.969 154.074 237.979 157.065 234.988 157.065 230.139 154.074 227.148ZM147.46 235.427C147 235.887 146.255 235.887 145.795 235.427 145.334 234.967 145.334 234.222 145.795 233.761 146.255 233.301 147 233.301 147.46 233.761 147.921 234.221 147.921 234.967 147.46 235.427ZM151.522 231.366C151.062 231.826 150.316 231.826 149.856 231.366 149.396 230.906 149.396 230.16 149.856 229.699 150.316 229.239 151.062 229.239 151.522 229.699 151.982 230.16 151.982 230.906 151.522 231.366Z" fill="#505050"/><path d="M150.171 260.619C151.721 268.936 146.236 276.936 137.92 278.486 129.603 280.037 121.603 274.552 120.053 266.235 118.502 257.918 123.987 249.919 132.304 248.368 140.621 246.818 148.62 252.303 150.171 260.619Z" fill="#D1D1D1"/><path d="M135.089 246.155C126.63 246.155 119.772 253.014 119.772 261.473 119.772 269.933 126.63 276.791 135.089 276.791 143.549 276.791 150.406 269.933 150.406 261.473 150.406 253.013 143.549 246.155 135.089 246.155ZM129.68 264.098C128.378 264.098 127.324 263.042 127.324 261.741 127.324 260.439 128.379 259.384 129.68 259.384 130.981 259.384 132.036 260.439 132.036 261.741 132.036 263.042 130.982 264.098 129.68 264.098ZM140.833 263.829C139.531 263.829 138.476 262.774 138.476 261.472 138.476 260.171 139.532 259.115 140.833 259.115 142.134 259.115 143.189 260.171 143.189 261.472 143.19 262.774 142.134 263.829 140.833 263.829Z" fill="#2F2F2F"/><path d="M78.3463 150.528C78.3463 158.987 71.4885 165.845 63.029 165.845 54.5695 165.845 47.7117 158.987 47.7117 150.528 47.7117 142.068 54.5695 135.21 63.029 135.21 71.4885 135.21 78.3463 142.068 78.3463 150.528Z" fill="#D1D1D1"/><path d="M73.8598 137.301C67.8781 131.319 58.1799 131.319 52.1981 137.301 46.2164 143.283 46.2164 152.981 52.1981 158.963 58.1799 164.944 67.8781 164.944 73.8598 158.963 79.8416 152.981 79.8416 143.282 73.8598 137.301ZM60.6337 153.86C59.713 154.78 58.2212 154.78 57.3011 153.86 56.3811 152.939 56.3805 151.447 57.3011 150.527 58.2218 149.606 59.7136 149.606 60.6337 150.527 61.5543 151.448 61.5538 152.939 60.6337 153.86ZM68.7568 145.736C67.8361 146.657 66.3444 146.657 65.4243 145.736 64.5036 144.816 64.5036 143.324 65.4243 142.404 66.345 141.483 67.8367 141.483 68.7568 142.404 69.6769 143.324 69.6775 144.816 68.7568 145.736Z" fill="#505050"/><path d="M54.1428 178.246C54.1428 182.476 50.7141 185.904 46.4845 185.904 42.2549 185.904 38.8261 182.476 38.8261 178.246 38.8261 174.017 42.2549 170.588 46.4845 170.588 50.7141 170.588 54.1428 174.017 54.1428 178.246Z" fill="#D1D1D1"/><path d="M51.8999 170.474C48.9093 167.483 44.0597 167.483 41.0691 170.474 38.0785 173.464 38.0785 178.314 41.0691 181.305 44.0597 184.295 48.9093 184.295 51.8999 181.305 54.8905 178.314 54.8905 173.464 51.8999 170.474ZM45.2868 178.753C44.8268 179.213 44.0809 179.213 43.6209 178.753 43.1608 178.293 43.1608 177.547 43.6209 177.087 44.0809 176.627 44.8268 176.627 45.2868 177.087 45.7469 177.547 45.7469 178.293 45.2868 178.753ZM45.2868 174.692C44.8268 175.152 44.0809 175.152 43.6209 174.692 43.1608 174.231 43.1608 173.486 43.6209 173.026 44.0809 172.566 44.8268 172.566 45.2868 173.026 45.7469 173.486 45.7469 174.231 45.2868 174.692ZM49.3487 178.753C48.8886 179.213 48.1428 179.213 47.6827 178.753 47.2227 178.293 47.2227 177.547 47.6827 177.087 48.1428 176.627 48.8886 176.627 49.3487 177.087 49.8087 177.547 49.8087 178.293 49.3487 178.753ZM49.3487 174.692C48.8886 175.152 48.1428 175.152 47.6827 174.692 47.2227 174.231 47.2227 173.486 47.6827 173.026 48.1428 172.566 48.8886 172.566 49.3487 173.026 49.8087 173.486 49.8087 174.231 49.3487 174.692Z" fill="#2F2F2F"/><path d="M97.2666 152.266C97.2666 156.495 93.8378 159.924 89.6082 159.924 85.3786 159.924 81.9499 156.495 81.9499 152.266 81.9499 148.036 85.3786 144.607 89.6082 144.607 93.8378 144.607 97.2666 148.036 97.2666 152.266Z" fill="#D1D1D1"/><path d="M95.0236 144.493C92.0331 141.503 87.1834 141.503 84.1928 144.493 81.2022 147.484 81.2022 152.334 84.1928 155.324 87.1834 158.315 92.0331 158.315 95.0236 155.324 98.0148 152.334 98.0148 147.485 95.0236 144.493ZM86.6631 151.087C86.0123 151.087 85.4849 150.56 85.4849 149.909 85.4849 149.258 86.0123 148.731 86.6631 148.731 87.3139 148.731 87.8413 149.258 87.8413 149.909 87.8413 150.56 87.3139 151.087 86.6631 151.087ZM92.4801 151.087C91.8293 151.087 91.3019 150.56 91.3019 149.909 91.3019 149.258 91.8293 148.731 92.4801 148.731 93.1309 148.731 93.6583 149.258 93.6583 149.909 93.6589 150.56 93.1315 151.087 92.4801 151.087Z" fill="#2F2F2F"/><path d="M90.7279 193.583C90.7279 202.042 83.8701 208.9 75.4106 208.9 66.9511 208.9 60.0933 202.042 60.0933 193.583 60.0933 185.123 66.9511 178.266 75.4106 178.266 83.8701 178.266 90.7279 185.123 90.7279 193.583Z" fill="#D1D1D1"/><path d="M75.4106 175.909C66.9515 175.909 60.0933 182.767 60.0933 191.227 60.0933 199.686 66.9509 206.544 75.4106 206.544 83.8698 206.544 90.7279 199.686 90.7279 191.227 90.7273 182.767 83.8698 175.909 75.4106 175.909ZM69.6663 193.583C68.3647 193.583 67.3099 192.528 67.3099 191.227 67.3099 189.926 68.3652 188.87 69.6663 188.87 70.9673 188.87 72.0226 189.926 72.0226 191.227 72.0226 192.528 70.9678 193.583 69.6663 193.583ZM81.1544 193.583C79.8534 193.583 78.798 192.528 78.798 191.227 78.798 189.925 79.8534 188.87 81.1544 188.87 82.456 188.87 83.5107 189.926 83.5107 191.227 83.5113 192.528 82.456 193.583 81.1544 193.583Z" fill="#505050"/><path d="M152.724 120.943C152.724 129.403 145.866 136.26 137.406 136.26 128.947 136.26 122.089 129.403 122.089 120.943 122.089 112.484 128.947 105.626 137.406 105.626 145.866 105.626 152.724 112.484 152.724 120.943Z" fill="#D1D1D1"/><path d="M137.406 103.269C128.947 103.269 122.089 110.127 122.089 118.587 122.089 127.047 128.946 133.904 137.406 133.904 145.865 133.904 152.724 127.047 152.724 118.587 152.724 110.127 145.866 103.269 137.406 103.269ZM131.662 120.943C130.361 120.943 129.306 119.888 129.306 118.587 129.306 117.286 130.361 116.23 131.662 116.23 132.963 116.23 134.019 117.286 134.019 118.587 134.019 119.888 132.964 120.943 131.662 120.943ZM137.406 126.687C136.105 126.687 135.05 125.632 135.05 124.331 135.05 123.03 136.105 121.975 137.406 121.975 138.707 121.975 139.763 123.03 139.763 124.331 139.763 125.632 138.708 126.687 137.406 126.687ZM137.406 115.199C136.105 115.199 135.05 114.144 135.05 112.843 135.05 111.542 136.105 110.487 137.406 110.487 138.707 110.487 139.763 111.542 139.763 112.843 139.763 114.145 138.708 115.199 137.406 115.199ZM143.15 120.943C141.849 120.943 140.794 119.888 140.794 118.587 140.794 117.286 141.849 116.23 143.15 116.23 144.452 116.23 145.506 117.286 145.506 118.587 145.506 119.888 144.452 120.943 143.15 120.943Z" fill="#FFFFFF"/><path d="M368.306 84.0262C368.306 98.5212 356.556 110.272 342.061 110.272 327.566 110.272 315.815 98.5212 315.815 84.0262 315.815 69.5312 327.566 57.7806 342.061 57.7806 356.556 57.7806 368.306 69.5312 368.306 84.0262Z" fill="#D1D1D1"/><path d="M368.306 73.5042C368.306 87.9992 356.556 99.7498 342.061 99.7498 327.566 99.7498 315.815 87.9992 315.815 73.5042 315.815 59.0092 327.566 47.2587 342.061 47.2587 356.556 47.2587 368.306 59.0092 368.306 73.5042Z" fill="#505050"/><path d="M339.143 58.742 326.622 46.5317C326.388 46.3049 326.384 45.9317 326.611 45.6984 326.838 45.4657 327.211 45.4604 327.444 45.6878 327.447 45.6907 327.452 45.6955 327.455 45.6984L339.665 58.22C339.808 58.3659 339.805 58.5997 339.659 58.742 339.515 58.882 339.286 58.8814 339.143 58.742Z" fill="#737373"/><path d="M329.395 44.926C329.395 46.8783 327.812 48.461 325.86 48.461 323.907 48.461 322.325 46.8783 322.325 44.926 322.325 42.9736 323.907 41.3909 325.86 41.3909 327.812 41.3909 329.395 42.9736 329.395 44.926Z" fill="#FFC000"/><path d="M343.207 71.7054 333.351 81.8736C333.125 82.1075 332.752 82.1128 332.518 81.8866 332.284 81.6604 332.279 81.2872 332.505 81.0533 332.508 81.0498 332.514 81.0439 332.518 81.0403L342.686 71.1839C342.832 71.0422 343.066 71.0457 343.207 71.1916 343.346 71.3351 343.346 71.5631 343.207 71.7054Z" fill="#737373"/><path d="M335.28 82.6354C335.28 84.5878 333.698 86.1705 331.745 86.1705 329.793 86.1705 328.21 84.5878 328.21 82.6354 328.21 80.6831 329.793 79.1003 331.745 79.1003 333.698 79.1003 335.28 80.6831 335.28 82.6354Z" fill="#FFC000"/><path d="M327.734 69.792 306.122 70.0122C305.797 70.0152 305.53 69.7548 305.527 69.4294 305.524 69.104 305.784 68.8376 306.11 68.8341 306.113 68.8341 306.119 68.8341 306.122 68.8341L327.734 69.0544C327.937 69.0561 328.101 69.2233 328.099 69.427 328.097 69.6278 327.934 69.7896 327.734 69.792Z" fill="#737373"/><path d="M310.884 69.3993C310.884 71.3516 309.302 72.9343 307.349 72.9343 305.397 72.9343 303.814 71.3516 303.814 69.3993 303.814 67.4469 305.397 65.8642 307.349 65.8642 309.302 65.8642 310.884 67.4469 310.884 69.3993Z" fill="#FFFFFF"/><path d="M374.99 100.054 349.357 75.0444C349.071 74.7662 348.613 74.7645 348.326 75.0444 348.035 75.329 348.029 75.7962 348.313 76.0879L373.323 101.72C373.328 101.726 373.338 101.735 373.344 101.741 373.81 102.195 374.555 102.186 375.01 101.72 375.465 101.255 375.456 100.508 374.99 100.054ZM373.893 100.626C373.778 100.741 373.628 100.799 373.477 100.799 373.327 100.799 373.175 100.741 373.061 100.626L366.014 93.579C365.784 93.3487 365.784 92.9761 366.014 92.7458 366.245 92.5154 366.617 92.5154 366.848 92.7458L373.895 99.7929C374.124 100.023 374.124 100.396 373.893 100.626Z" fill="#737373"/><path d="M366.851 92.7505 367.83 93.729C367.906 93.7326 367.997 93.6694 368.029 93.595 368.083 93.4698 368.047 93.3475 368.016 93.2501L367.038 92.2958C366.943 92.3058 366.85 92.3572 366.817 92.4345 366.787 92.5084 366.809 92.6371 366.851 92.7505Z" fill="#737373"/><path d="M140.015 35.314C139.617 32.3878 137.787 30.0138 135.354 29.265 132.248 28.3094 128.551 28.861 124.664 30.8612 121.711 32.3807 118.618 34.769 116.176 37.4141 111.834 42.1173 108.971 46.7348 107.402 50.2073 107.267 50.1211 107.127 50.0372 106.981 49.9575L105.353 49.0132C104.169 48.1876 104.537 46.5825 104.388 45.3429 104.323 44.5468 104.017 43.9114 103.303 43.5665L103.303 43.5665C102.373 43.061 100.922 42.9322 100.149 42.2366L100.149 42.2366C98.8351 40.8239 99.6135 37.3603 96.7971 37.4241L96.7971 37.4241C96.1575 37.3349 95.4748 37.2971 94.9002 37.1288L94.9002 37.1288C93.4758 36.781 93.2425 35.1068 92.6437 34.003 91.7289 31.8345 89.1748 33.3055 87.5029 32.6335L87.5029 32.6335C85.9267 31.8746 85.5475 28.7565 83.2981 29.2827 81.0782 29.9128 79.5841 30.2288 78.0616 28.1275 76.2758 25.6153 74.0606 28.6313 71.9275 28.2285L71.9275 28.2285C70.858 27.9102 69.9332 26.7876 68.8164 26.4291 66.3686 26.0399 64.9879 29.6807 62.3646 27.7331 59.8612 26.0895 58.8307 28.0041 57.1027 29.4805L57.1027 29.4805C55.1822 30.6675 52.2536 27.7815 50.9367 30.4856L50.9367 30.4856C49.2241 34.1347 47.326 32.0701 44.7116 33.0794 43.3067 34.1188 43.5411 36.8932 41.4748 37.1891 40.3917 37.4578 39.099 37.2723 38.1848 38.0158 38.0058 38.1842 37.8712 38.3903 37.7619 38.6123 37.1702 40.3054 37.1749 42.719 34.8611 42.9978 32.1221 43.4366 32.1345 45.2212 32.1014 47.4825 31.9591 49.6026 29.1959 49.5282 28.2788 51.1162 27.7567 52.1904 28.4736 53.7176 28.378 54.9341 28.2711 56.6828 26.024 57.1818 25.375 58.5968 24.7862 60.1363 26.3388 61.6033 26.0913 63.1594 25.7724 64.6783 23.7498 65.5317 23.7852 67.19 23.859 68.1579 24.7567 69.1713 25.1653 70.1687 25.7647 71.3841 24.8464 72.5469 24.273 73.5733 22.4423 75.9592 26.1462 77.2005 26.1108 79.4789 25.4098 82.1553 24.3108 83.5797 27.2376 85.3514 27.8028 85.8097 28.3549 86.3837 28.3768 87.1455L28.3768 87.1455C28.4205 87.7118 28.2947 88.352 28.1949 88.9804 27.0752 92.8467 32.7392 91.854 32.1664 95.6188 31.4772 100.003 36.8271 97.9728 37.2369 101.554 38.1293 107.533 42.06 101.708 44.2156 108.524L44.2156 108.524C44.4063 108.782 44.6331 109.021 44.9301 109.149L44.9301 109.149C45.9849 109.641 47.5735 109.062 48.7853 109.361 51.8131 111.034 50.5186 114.084 55.3954 112.346L55.3954 112.346C56.348 112.103 57.2132 112.548 57.8409 113.248 60.7831 117.566 62.8985 111.971 66.0154 114.615L66.0154 114.615C69.8918 118.116 70.522 111.784 74.6807 114.577 77.0789 116.178 78.1892 113.171 80.0559 112.356 81.279 112.051 82.6066 112.897 83.8586 112.857 85.7997 112.806 85.9852 109.979 87.7072 109.389 89.0507 108.983 90.8732 109.797 91.9581 108.977 93.1191 108.122 93.0659 105.761 94.5648 105.096 100.067 104.188 98.0839 104.267 100.032 99.9748 100.928 98.9832 103.151 99.0754 103.979 97.9923 104.823 96.7881 104.073 94.906 104.812 93.6546 105.791 92.2072 108.739 92.0902 108.516 89.9459 106.702 84.0274 112.832 85.7441 110.966 81.1578 110.378 79.9177 110.256 78.4909 111.351 77.4905L111.351 77.4905C111.961 76.7676 112.687 76.0572 112.805 75.2593 112.98 73.4457 110.568 72.0745 111.422 70.2095L111.422 70.2095C111.844 69.026 113.189 67.8549 112.714 66.4896L112.714 66.4896C112.503 65.9156 112.018 65.3805 111.552 64.8455L111.552 64.8455C110.626 63.9661 110.182 62.7401 110.755 61.5336 112.574 57.9602 109.915 57.9046 108.349 55.5371 108.125 54.8804 108.253 54.1062 108.374 53.3385 109.387 50.1701 112.408 44.5185 117.682 38.8042 121.109 35.0926 128.558 29.3199 134.75 31.2244 136.396 31.7311 137.694 33.4851 137.981 35.5892 138.18 37.0456 138.138 40.7554 133.473 43.7413 130.455 45.673 127.813 46.9616 125.482 48.0984 121.209 50.1819 117.835 51.8278 115.05 56.0042 113.036 59.0249 112.636 62.589 113.861 66.5976 116.551 75.4052 126.16 83.4486 127.139 83.8514 127.267 83.9039 127.399 83.9287 127.529 83.9287 127.932 83.9282 128.315 83.689 128.478 83.2927 128.686 82.7872 128.46 82.2108 127.973 81.9775 127.092 81.4401 117.497 73.3725 115.551 64.9884 114.861 62.0167 115.267 59.3769 116.757 57.1422 119.233 53.4276 122.231 51.966 126.381 49.9422 128.762 48.7811 131.46 47.4654 134.579 45.4693 138.507 42.957 140.539 39.1603 140.015 35.314Z" fill="#CFCFCF"/><path d="M26.3713 61.5962C26.5218 60.2586 24.4301 58.5714 24.6988 57.2739 24.9716 55.9576 27.563 55.2424 27.9522 53.9733 28.3455 52.69 26.6016 50.6455 27.1077 49.4166 27.6185 48.177 30.2967 47.9532 30.9156 46.775 31.5386 45.5891 30.2016 43.2576 30.9268 42.1409 31.6556 41.0188 34.3302 41.2917 35.1558 40.2452 35.9838 39.1964 35.0973 36.6587 36.0168 35.6914 36.9369 34.7229 39.5159 35.4812 40.5216 34.6018 41.5262 33.7231 41.1181 31.0662 42.2006 30.2819 43.2807 29.5 45.6772 30.7166 46.8282 30.0345 47.9751 29.3559 48.0607 26.6683 49.2713 26.0954 50.4737 25.5256 52.6056 27.1626 53.8659 26.7037 55.1143 26.249 55.6954 23.624 56.994 23.2838 58.2779 22.9478 60.0697 24.9503 61.3967 24.7324 62.7042 24.5175 63.7595 22.0448 65.103 21.9497 66.4229 21.8564 67.8166 24.1537 69.1655 24.1814 70.5143 24.2092 72.0019 21.9716 73.3165 22.1192 74.6547 22.2698 75.6067 24.7838 76.9041 25.0525 78.2205 25.3253 80.0937 23.399 81.3628 23.7875 82.6467 24.1809 83.118 26.8277 84.3469 27.3338 85.5865 27.8441 87.784 26.2974 88.9621 26.9157 90.148 27.5388 90.1226 30.227 91.2399 30.9522 92.362 31.6815 94.8075 30.5654 95.854 31.3916 96.9034 32.2195 96.3849 34.8569 97.3522 35.777 98.3201 36.6971 100.928 36.0469 101.808 37.0521 102.687 38.0566 101.696 40.5552 102.48 41.6377 103.262 42.7179 105.945 42.5555 106.628 43.7065 107.306 44.8521 105.875 47.1264 106.447 48.337 107.017 49.5394 109.684 49.8742 110.143 51.1339 110.597 52.3829 108.769 54.3536 109.11 55.6517 109.446 56.9361 112.005 57.7576 112.223 59.0846 112.438 60.3921 110.278 61.9913 110.373 63.3342 110.466 64.6541 112.832 65.9315 112.804 67.2803 112.776 68.6286 110.359 69.8073 110.212 71.1219 110.061 72.4595 112.153 74.1468 111.884 75.4442 111.611 76.7606 109.02 77.4757 108.631 78.7448 108.237 80.0281 109.981 82.0726 109.475 83.3016 108.964 84.5411 106.286 84.765 105.667 85.9431 105.044 87.129 106.381 89.4605 105.656 90.5772 104.927 91.6993 102.253 91.4265 101.427 92.4729 100.599 93.5218 101.486 96.0594 100.566 97.0267 99.6459 97.9952 97.067 97.2369 96.0612 98.1163 95.0567 98.995 95.4648 101.652 94.3823 102.436 93.3022 103.218 90.9057 102.002 89.7547 102.684 88.6078 103.362 88.5228 106.05 87.3116 106.623 86.1092 107.193 83.9772 105.556 82.717 106.014 81.4686 106.469 80.8875 109.094 79.5888 109.434 78.3049 109.77 76.5132 107.768 75.1862 107.986 73.8787 108.201 72.8234 110.673 71.4799 110.768 70.16 110.862 68.7662 108.564 67.4174 108.537 66.0686 108.509 64.5809 110.746 63.2664 110.598 61.9282 110.448 60.9762 107.934 59.6787 107.665 58.3624 107.392 56.4891 109.319 55.22 108.93 53.9361 108.537 53.4649 105.89 52.2359 105.384 50.9963 104.873 48.7989 106.421 47.6207 105.802 46.4349 105.179 46.4603 102.491 45.3429 101.765 44.2209 101.036 41.7754 102.152 40.7289 101.326 39.6795 100.498 40.198 97.86 39.2307 96.9405 38.2627 96.0204 35.6548 96.6706 34.7749 95.6655 33.8961 94.6609 34.8871 92.1623 34.1028 91.0798 33.3209 89.9997 30.6375 90.1621 29.9554 89.0111 29.2768 87.8654 30.7083 85.5911 30.1355 84.3805 29.5662 83.1781 26.8986 82.8433 26.4403 81.5836 25.9856 80.3346 27.8134 78.3645 27.4732 77.0659 27.1372 75.7814 24.5777 74.9599 24.3598 73.633 24.1449 72.3255 26.3051 70.7262 26.21 69.3833 26.1167 68.0634 23.7509 66.786 23.7793 65.4372 23.8076 64.0884 26.2236 62.9096 26.3713 61.5962Z" fill="#505050"/><path d="M24.7419 72.2965C24.7401 72.2959 24.7378 72.2971 24.7372 72.2989 24.4691 72.7613 24.2913 73.2119 24.3604 73.6324 24.4632 74.2554 25.0815 74.7662 25.7435 75.2664 25.7441 75.267 25.7447 75.2676 25.7453 75.2676 36.4462 77.1893 46.3758 81.9161 54.6578 89.0684 54.9106 88.0869 55.1852 87.113 55.4822 86.1463 50.6975 82.1771 45.412 78.9651 39.774 76.5733 36.9216 75.7991 34.146 74.8424 31.4619 73.7109 29.2573 73.1209 27.015 72.6497 24.7419 72.2965Z" fill="#737373"/><path d="M27.4207 78.0527C27.4177 78.0521 27.4154 78.0539 27.4148 78.0562 27.1821 78.8984 26.6134 79.8438 26.4297 80.6665 26.4291 80.6695 26.4315 80.6718 26.4339 80.6724 36.5466 82.7966 45.8455 87.6841 53.4271 94.9403 53.6025 93.8619 53.8039 92.7895 54.0312 91.7253 46.4284 84.873 37.3007 80.2035 27.4207 78.0527Z" fill="#737373"/><path d="M29.888 84.0285C29.9902 84.1384 30.0764 84.2547 30.1367 84.3811 30.4455 85.0349 30.1715 85.9969 29.9601 86.9252 29.9595 86.9276 29.9613 86.9299 29.9636 86.9311 38.043 89.444 45.4026 93.9694 51.4227 100.245 51.8538 100.693 52.272 101.151 52.6842 101.612 52.7598 100.373 52.8661 99.1397 53.009 97.9149 46.5128 91.2859 38.5828 86.5555 29.8928 84.0203 29.8833 84.0173 29.8809 84.0209 29.888 84.0285Z" fill="#737373"/><path d="M49.6906 101.912C45.1758 97.2057 39.859 93.5324 34.0503 91.0142 34.0402 91.0095 34.0379 91.0131 34.0444 91.0219 34.0804 91.068 34.1648 91.1814 34.1885 91.2257 34.5812 91.9585 34.3668 93.1757 34.3804 94.2098 34.3804 94.2115 34.3822 94.2133 34.3834 94.2145 39.298 96.5543 43.8146 99.7799 47.6957 103.825 48.3005 104.455 48.8786 105.103 49.442 105.76 49.4432 105.762 49.445 105.762 49.4467 105.762 50.4412 105.498 51.5084 105.082 52.2412 105.384 52.3523 105.429 52.4556 105.497 52.5554 105.575 52.559 105.577 52.5637 105.575 52.5637 105.571 52.5643 105.445 52.5655 105.319 52.5666 105.192 51.6613 104.064 50.7034 102.967 49.6906 101.912Z" fill="#737373"/><path d="M41.6915 101.64C41.6962 101.64 41.6992 101.634 41.6951 101.631 41.212 101.244 40.7141 100.866 40.2169 100.502 40.2128 100.5 40.2074 100.504 40.2086 100.508 40.3202 100.849 40.4826 101.141 40.7236 101.331 40.9763 101.531 41.3124 101.615 41.6915 101.64Z" fill="#737373"/><path d="M54.9761 104.389C54.9619 105.052 54.9619 105.713 54.9684 106.373 54.9761 107.102 54.9974 107.829 55.0293 108.553 55.0334 108.652 55.0369 108.752 55.0417 108.851 55.0417 108.853 55.0428 108.854 55.044 108.856 55.1031 108.89 55.2212 108.934 55.2814 108.948 55.6712 109.04 56.1159 108.931 56.5801 108.742 56.9338 108.597 57.7169 108.198 57.7766 108.168 57.7783 108.167 57.7789 108.166 57.7789 108.163 57.7299 106.932 57.7134 105.693 57.7393 104.444 57.7464 104.119 57.76 103.795 57.7712 103.471 57.7937 102.852 57.8232 102.235 57.864 101.62 57.9029 101.033 57.9478 100.448 58.0033 99.8649 58.1203 98.626 58.2791 97.3958 58.4693 96.1751 58.5478 95.6708 58.6329 95.1682 58.7232 94.6674 58.8118 94.1791 58.9063 93.693 59.0067 93.2088 59.2281 92.1375 59.478 91.0751 59.7555 90.0221 59.8718 89.5798 59.9941 89.1392 60.1205 88.7004 60.2457 88.2658 60.3762 87.8329 60.5108 87.4012 61.4658 84.3475 62.6557 81.3793 64.0784 78.521 63.0213 78.632 61.9565 78.7183 60.8858 78.7785 59.8896 80.9187 59.0167 83.1138 58.2655 85.3555 58.1262 85.7719 57.9915 86.1894 57.861 86.6081 57.7299 87.0274 57.6023 87.449 57.4807 87.8725 57.1913 88.8741 56.9261 89.8827 56.6858 90.9003 56.5777 91.3574 56.4744 91.8156 56.3757 92.2757 56.2759 92.7411 56.1814 93.2082 56.0923 93.6771 55.8791 94.8033 55.6966 95.9383 55.5431 97.0799 55.4728 97.6007 55.4096 98.1228 55.3517 98.646 55.2921 99.1882 55.2401 99.732 55.194 100.277 55.0807 101.632 55.0039 102.995 54.9755 104.367 54.9767 104.373 54.9761 104.38 54.9761 104.389Z" fill="#737373"/><path d="M60.1482 104.494C60.1465 104.578 60.1476 104.663 60.1465 104.746 60.134 105.482 60.1376 106.214 60.1524 106.943 60.1583 107.255 60.1665 107.568 60.1777 107.879 60.1777 107.881 60.1783 107.882 60.1795 107.883 60.6537 108.189 61.0902 108.739 61.5325 109.267 62.0286 109.859 62.5335 110.421 63.104 110.568 63.1081 110.569 63.1111 110.566 63.1105 110.563 63.0809 110.219 63.0555 109.868 63.0319 109.523 62.9717 108.635 62.9327 107.741 62.915 106.842 62.9002 106.081 62.8961 105.318 62.912 104.551 62.9303 103.671 62.9699 102.793 63.0284 101.921 63.0697 101.305 63.1217 100.691 63.1831 100.078 63.2416 99.4929 63.3101 98.91 63.3863 98.3289 63.5487 97.0923 63.75 95.8657 63.9928 94.6503 64.092 94.1542 64.1989 93.66 64.3105 93.1674 64.4203 92.6849 64.5373 92.2048 64.6601 91.7259 65.941 86.7297 67.9052 81.958 70.5037 77.5218 69.3409 77.7615 68.1668 77.9688 66.9834 78.146 65.0871 81.7006 63.5699 85.4429 62.4485 89.3235 62.3185 89.7729 62.1933 90.2241 62.0746 90.677 61.9536 91.1394 61.8372 91.603 61.7274 92.0678 61.4634 93.1804 61.2319 94.3031 61.0329 95.4346 60.9419 95.9543 60.8569 96.4751 60.7789 96.9978 60.6986 97.5393 60.6236 98.0826 60.5587 98.6277 60.3963 99.9848 60.2823 101.353 60.2132 102.729 60.1831 103.317 60.16 103.904 60.1482 104.494Z" fill="#737373"/><path d="M109.842 52.9717C109.917 52.7928 109.987 52.6144 110.045 52.4408 110.05 52.4249 110.047 52.4231 110.036 52.4361 109.892 52.628 109.743 52.8205 109.597 53.0113 108.698 54.1776 107.761 55.3109 106.788 56.4135 107.584 56.2215 108.386 56.0485 109.192 55.895 109.195 55.8944 109.196 55.8908 109.195 55.8879 109.158 55.8111 109.129 55.7337 109.108 55.6534 108.909 54.8958 109.449 53.9095 109.842 52.9717Z" fill="#737373"/><path d="M65.3186 104.602C65.3127 104.891 65.3132 105.178 65.3115 105.466 65.305 106.827 65.3493 108.178 65.4444 109.515 65.4449 109.519 65.4485 109.521 65.4526 109.518 65.9871 109.111 66.5227 108.72 67.043 108.588 67.1682 108.556 67.2934 108.534 67.4168 108.537 67.6625 108.542 67.9088 108.623 68.1562 108.75 68.1603 108.753 68.1639 108.75 68.1633 108.746 68.1509 108.533 68.1414 108.319 68.1314 108.105 68.0907 107.219 68.0723 106.327 68.0771 105.43 68.0788 105.173 68.0777 104.917 68.083 104.659 68.1113 103.275 68.1981 101.901 68.3357 100.539 68.3977 99.9275 68.4704 99.3181 68.5536 98.7116 68.6334 98.1299 68.722 97.5511 68.8217 96.9747 70.1724 89.1558 73.3248 81.8317 78.0486 75.4903 76.6537 75.9556 75.2399 76.3796 73.8067 76.7535 70.3932 82.0348 67.9501 87.8654 66.5847 94.0237 66.4707 94.5381 66.365 95.0543 66.2664 95.5734 66.1648 96.1054 66.0733 96.6405 65.9877 97.1773 65.7733 98.5232 65.6091 99.8827 65.4963 101.253 65.4414 101.924 65.3947 102.596 65.364 103.272 65.3434 103.715 65.328 104.158 65.3186 104.602Z" fill="#737373"/><path d="M111.654 60.7257C111.656 60.7257 111.657 60.7245 111.658 60.724 112.025 60.1553 112.306 59.5978 112.222 59.0852 112.153 58.667 111.851 58.2991 111.46 57.9507 111.459 57.9495 111.458 57.9495 111.456 57.9495 108.752 58.3594 106.103 58.9966 103.532 59.8499 101.124 62.2175 98.5392 64.4037 95.7967 66.3833 100.671 63.5214 106.033 61.6068 111.654 60.7257Z" fill="#737373"/><path d="M70.4907 104.709C70.4499 106.699 70.532 108.664 70.7275 110.597 70.7281 110.598 70.7293 110.599 70.7304 110.601 70.9814 110.721 71.2318 110.787 71.4793 110.77 72.1088 110.725 72.6752 110.158 73.2344 109.545 73.2858 109.488 73.3378 109.432 73.3897 109.375 73.3909 109.373 73.3915 109.373 73.3915 109.371 73.323 108.517 73.2811 107.657 73.2604 106.792 73.245 106.12 73.2409 105.445 73.2551 104.767 73.2592 104.562 73.2757 104.359 73.2828 104.155 73.688 92.196 78.6563 81.1006 87.2619 72.8451 88.645 71.5182 90.1049 70.2987 91.6185 69.1689 88.7182 70.9453 85.6716 72.5003 82.5044 73.8202 76.0248 81.1685 71.9747 90.2093 70.8226 99.9435 70.744 100.61 70.6808 101.282 70.6295 101.954 70.5751 102.672 70.5361 103.393 70.5125 104.116 70.5043 104.314 70.4954 104.511 70.4907 104.709Z" fill="#737373"/><path d="M75.664 104.816C75.6421 105.885 75.6604 106.946 75.7153 107.998 75.7153 108 75.7171 108.002 75.7195 108.003 76.6189 108.177 77.653 108.996 78.5789 109.329 78.5825 109.331 78.586 109.327 78.5854 109.324 78.4543 107.86 78.3965 106.376 78.4272 104.873 78.651 94.055 83.095 84.0108 90.8431 76.5775 96.7746 70.8881 104.156 67.2077 112.143 65.8902 112.147 65.8896 112.149 65.8854 112.146 65.8819 111.466 65.0533 110.492 64.2366 110.383 63.4045 110.383 63.4021 110.381 63.3998 110.378 63.4004 102.355 64.9801 94.9475 68.8081 88.9261 74.5849 80.6323 82.5427 75.902 93.2755 75.664 104.816Z" fill="#737373"/><path d="M92.5079 78.3184C85.2162 85.3136 81.0457 94.759 80.8343 104.923 80.8119 106.013 80.8455 107.09 80.9146 108.158 80.9152 108.166 80.9193 108.168 80.9241 108.16 81.478 107.298 81.9823 106.281 82.7164 106.014 82.9768 105.919 83.2769 105.917 83.5969 105.963 83.5999 105.964 83.6022 105.961 83.6022 105.958 83.5999 105.632 83.591 105.308 83.5975 104.979 83.793 95.535 87.6789 86.7788 94.4242 80.3092 98.8989 76.017 104.327 73.027 110.231 71.556 110.233 71.5554 110.235 71.553 110.235 71.5507 110.207 71.4048 110.194 71.2613 110.21 71.1225 110.32 70.1475 111.676 69.2469 112.381 68.2967 112.385 68.2908 112.383 68.2872 112.376 68.2884 104.931 69.5504 98.0497 73.0017 92.5079 78.3184Z" fill="#737373"/><path d="M96.089 82.0514C89.7996 88.0857 86.1883 96.2419 86.0064 105.03 85.9952 105.572 85.9987 106.111 86.0141 106.648 86.0141 106.65 86.0159 106.653 86.0182 106.653 86.5007 106.764 86.9483 106.795 87.3116 106.623 88.081 106.259 88.3964 105.041 88.8186 104.027 88.8192 104.027 88.8192 104.026 88.8192 104.025 89.2438 96.3635 92.5191 89.307 98.0077 84.0421 101.642 80.5566 106.022 78.0781 110.793 76.7647 110.793 76.7641 110.794 76.7641 110.794 76.7635 111.329 76.369 111.779 75.9515 111.884 75.4442 111.99 74.9298 111.723 74.3529 111.375 73.7611 111.374 73.7593 111.371 73.7582 111.37 73.7587 105.657 75.0781 100.401 77.9151 96.089 82.0514Z" fill="#737373"/><path d="M108.707 79.9868C105.376 81.2931 102.312 83.2514 99.6702 85.7843 95.016 90.2495 92.0968 96.106 91.3592 102.5 91.3592 102.502 91.361 102.505 91.364 102.505 92.3413 102.608 93.4209 102.868 94.1337 102.571 94.1355 102.571 94.1366 102.57 94.1366 102.567 94.8512 96.8927 97.4774 91.7182 101.589 87.7756 103.915 85.5451 106.615 83.8065 109.553 82.6289 109.555 82.6283 109.556 82.626 109.556 82.6242 109.489 81.8246 108.971 80.8614 108.715 79.9903 108.713 79.9874 108.71 79.9862 108.707 79.9868Z" fill="#737373"/><path d="M103.252 89.5172C100.853 91.818 99.0176 94.58 97.843 97.6238 97.8412 97.6273 97.8447 97.6309 97.8477 97.6309 98.8871 97.5688 100.017 97.6019 100.564 97.0273 101.484 96.0606 100.597 93.5229 101.425 92.4735 102.251 91.4265 104.926 91.6999 105.654 90.5778 106.115 89.8686 105.745 88.6691 105.572 87.5843 105.572 87.5807 105.567 87.5796 105.564 87.5813 104.758 88.1731 103.983 88.8162 103.252 89.5172Z" fill="#737373"/><path d="M108.246 50.8079C108.45 50.5357 108.653 50.2622 108.852 49.9864 108.854 49.9841 108.853 49.9805 108.85 49.9788 107.985 49.5187 106.954 49.1284 106.534 48.487 106.532 48.4847 106.528 48.4841 106.525 48.487 105.698 49.6244 104.832 50.7323 103.93 51.8089 103.449 52.3829 102.96 52.951 102.458 53.5073 101.894 54.1322 101.315 54.7428 100.726 55.3446 100.28 55.7999 99.8296 56.2511 99.369 56.6928 97.3682 58.6121 95.2357 60.3938 92.9915 62.0285 91.5825 63.0549 90.1285 64.0228 88.6326 64.9287 85.7206 66.691 82.652 68.2158 79.4542 69.4784 78.6652 69.7902 77.8679 70.0861 77.0636 70.3648 76.359 70.6093 75.648 70.8384 74.9328 71.0575 73.5185 71.4904 72.0828 71.8725 70.6277 72.2026 70.069 72.329 69.5068 72.4483 68.9428 72.5593 68.3954 72.6674 67.845 72.7678 67.2928 72.8605 66.1188 73.0583 64.9347 73.2255 63.74 73.3548 63.2563 73.4074 62.7715 73.4528 62.2849 73.4942 61.8 73.5349 61.3128 73.5686 60.825 73.5981 59.1827 73.6967 57.5244 73.7322 55.8519 73.6973 44.2799 73.4576 33.5135 69.9969 24.3941 64.1852 24.3923 64.1834 24.3893 64.184 24.3876 64.1864 24.0421 64.5927 23.7876 65.0073 23.7787 65.4384 23.7598 66.3532 24.8411 67.2355 25.5687 68.1207 25.5693 68.1213 25.5699 68.1213 25.5705 68.1219 27.7189 69.3485 29.9471 70.451 32.2426 71.4266 34.9267 72.5658 37.7058 73.5255 40.5641 74.2938 45.4339 75.6019 50.5339 76.3525 55.7958 76.4617 56.2446 76.4712 56.6899 76.4759 57.137 76.4759 57.8746 76.4759 58.6086 76.4588 59.3409 76.434 59.8075 76.418 60.2734 76.398 60.7376 76.372 61.1994 76.346 61.6612 76.317 62.1207 76.281 63.238 76.1942 64.3477 76.0767 65.4491 75.9326 65.9617 75.8653 66.4731 75.7926 66.9828 75.7129 67.4966 75.6326 68.0074 75.5475 68.517 75.4542 69.795 75.2227 71.06 74.9511 72.3108 74.644 72.912 74.4964 73.5102 74.3422 74.1049 74.178 74.7386 74.0026 75.3681 73.8178 75.9941 73.6241 77.7185 73.0885 79.4111 72.4802 81.0705 71.8052 82.032 71.4142 82.9816 71.0008 83.9194 70.565 85.3048 69.9213 86.6631 69.2292 87.993 68.4904 90.986 66.8285 93.8331 64.9329 96.5095 62.8275 97.6959 61.8944 98.8481 60.9206 99.9654 59.9072 100.738 59.2056 101.494 58.4857 102.232 57.7476 103.5 56.4802 104.718 55.1627 105.875 53.7926 106.296 53.2947 106.706 52.7886 107.112 52.2784 107.498 51.7924 107.875 51.3022 108.246 50.8079Z" fill="#737373"/><path d="M105.236 46.1496C105.747 45.4179 106.244 44.6732 106.721 43.9179 106.723 43.9161 106.723 43.9149 106.722 43.9131 106.696 43.8405 106.665 43.772 106.625 43.7065 106.488 43.475 106.279 43.2671 106.012 43.1218 105.543 42.8649 104.913 42.7374 104.312 42.5679 104.31 42.5673 104.307 42.5679 104.307 42.5696 104.064 42.9494 103.818 43.3261 103.568 43.7 102.742 44.9307 101.866 46.1248 100.949 47.2835 100.482 47.8728 100.006 48.4534 99.5166 49.0232 98.9686 49.661 98.4046 50.2853 97.8288 50.8977 97.1668 51.6022 96.4876 52.2908 95.7902 52.9599 94.0232 54.6554 92.1441 56.2322 90.1698 57.6844 88.7442 58.7338 87.2667 59.7171 85.7436 60.6295 82.8203 62.3811 79.7282 63.874 76.4972 65.0728 75.7023 65.3675 74.8992 65.6433 74.0883 65.902 73.3791 66.1287 72.6633 66.3396 71.9423 66.538 70.5202 66.9301 69.0769 67.2673 67.6135 67.5461 67.0495 67.6536 66.4843 67.7557 65.9144 67.8461 65.3646 67.9335 64.8113 68.0114 64.2567 68.0823 61.5437 68.4296 58.7734 68.5831 55.9588 68.524 44.3797 68.2843 33.6782 64.5207 24.8624 58.2678 24.8541 58.2625 24.8512 58.2649 24.8547 58.2737 25.313 59.3669 26.4846 60.581 26.3701 61.595 26.3405 61.8572 26.2177 62.1141 26.0447 62.3687 26.0429 62.371 26.0435 62.374 26.0464 62.3758 34.7282 67.8201 44.9372 71.0605 55.9015 71.2878 56.3143 71.2961 56.7236 71.3003 57.134 71.3003 58.8762 71.3003 60.6006 71.2199 62.3061 71.0693 62.8187 71.0245 63.3296 70.9725 63.8386 70.914 64.3554 70.8544 64.8709 70.7894 65.3835 70.7162 66.6727 70.5337 67.9483 70.3081 69.2098 70.0424 69.8174 69.9142 70.4222 69.7772 71.0239 69.6307 71.6629 69.4748 72.2978 69.3089 72.9285 69.1323 74.6736 68.6433 76.3862 68.0764 78.0622 67.4333 79.0355 67.0595 79.9945 66.6585 80.943 66.2356 82.3526 65.6061 83.7334 64.9216 85.0828 64.1864 88.1301 62.5263 91.0167 60.6059 93.7108 58.4491 94.892 57.5036 96.0347 56.5121 97.1396 55.4798 97.325 55.3062 97.5134 55.1337 97.6971 54.9578 98.2711 54.4068 98.8322 53.8422 99.3837 53.2682 100.632 51.9707 101.82 50.6154 102.946 49.2075 103.353 48.6979 103.755 48.1829 104.146 47.6591 104.519 47.1624 104.881 46.6581 105.236 46.1496Z" fill="#737373"/><path d="M102.289 41.2533C102.29 41.2521 102.29 41.2509 102.29 41.2491 101.887 40.0426 102.594 37.9503 101.807 37.0515 101.761 36.9989 101.708 36.9522 101.653 36.9086 101.65 36.9068 101.647 36.9074 101.645 36.9103 100.514 38.9779 99.2455 40.9592 97.8471 42.8401 97.3989 43.4425 96.937 44.0336 96.4634 44.6153 95.9372 45.2614 95.3963 45.8945 94.8394 46.5134 93.9973 47.4506 93.1214 48.3571 92.2126 49.2288 90.6801 50.6998 89.0549 52.0717 87.3505 53.3414 85.9084 54.4162 84.4078 55.4143 82.8558 56.332 79.9508 58.0505 76.8646 59.4873 73.6342 60.6035 72.8393 60.8781 72.0356 61.1338 71.2236 61.3688 70.5143 61.575 69.7985 61.7627 69.0775 61.9381 64.9093 62.9492 60.5486 63.4458 56.0669 63.3513 45.591 63.1346 35.9011 59.7401 27.9091 54.0896 27.9061 54.0879 27.9026 54.0885 27.9014 54.0914 27.5949 54.8113 26.5951 55.357 25.786 55.9546 25.7831 55.9564 25.7831 55.9605 25.786 55.9629 34.3084 62.146 44.7211 65.8813 56.009 66.1157 56.3852 66.124 56.7584 66.127 57.1328 66.127 60.2398 66.127 63.2894 65.8588 66.257 65.3457 66.8694 65.2394 67.4765 65.1201 68.0818 64.9937 68.7225 64.8596 69.3598 64.7155 69.9917 64.559 71.7486 64.1232 73.4718 63.5994 75.1579 62.9929 76.1376 62.6409 77.1031 62.2588 78.0563 61.8519 79.466 61.249 80.8467 60.5887 82.1926 59.8712 85.27 58.23 88.1708 56.2954 90.8578 54.105 91.9823 53.189 93.0719 52.23 94.1183 51.226 94.1608 51.1853 94.2016 51.1439 94.2435 51.1032 94.9977 50.3756 95.7294 49.6238 96.4398 48.8526 97.6581 47.5309 98.8109 46.1496 99.8928 44.7098 100.282 44.1919 100.662 43.6669 101.033 43.1348 101.386 42.6269 101.731 42.1137 102.067 41.5928 102.142 41.4801 102.217 41.3684 102.289 41.2533Z" fill="#737373"/><path d="M93.4061 44.4966C95.6048 41.9962 97.5489 39.2684 99.1989 36.3522 99.2007 36.3487 99.1989 36.3452 99.1947 36.3446 98.4571 36.2731 97.7573 36.1644 97.3499 35.777 97.1189 35.5574 96.9737 35.239 96.8709 34.8711 96.8691 34.8652 96.865 34.8646 96.8621 34.8699 94.6516 38.8084 91.8736 42.3883 88.6326 45.4982 87.3304 46.7478 85.955 47.9195 84.5146 49.0073 83.0625 50.104 81.5435 51.115 79.9668 52.0339 72.9687 56.1094 64.8172 58.3611 56.1744 58.1798 45.7882 57.9649 36.2584 54.2703 28.6874 48.2012 28.6856 48.2 28.6839 48.1994 28.6827 48.2006 27.9782 48.5207 27.3333 48.8691 27.1083 49.4154 26.9831 49.7189 26.9961 50.0721 27.0793 50.4506 27.0799 50.4518 27.0805 50.453 27.0811 50.4536 35.0844 56.8281 45.1457 60.7163 56.1177 60.9436 56.4578 60.9507 56.795 60.9543 57.1334 60.9543 62.4366 60.9543 67.552 60.0903 72.3444 58.494 73.3194 58.1698 74.2809 57.8143 75.2281 57.4292 76.6277 56.8611 77.9961 56.228 79.3284 55.5353 82.4158 53.929 85.3143 52.0008 87.973 49.788 88.8559 49.054 89.7128 48.2886 90.5413 47.4937 90.7876 47.2569 91.0309 47.0165 91.2724 46.775 92.0082 46.0397 92.7193 45.2785 93.4061 44.4966Z" fill="#737373"/><path d="M86.9631 43.762C90.634 40.2411 93.6725 36.0776 95.9195 31.4607 95.9207 31.4589 95.9201 31.4565 95.9183 31.4553 95.8965 31.4341 95.877 31.4105 95.8528 31.3916 95.2091 30.8837 94.0386 31.1087 92.9709 31.1896 92.9691 31.1896 92.9679 31.1908 92.9667 31.1919 90.9187 35.1363 88.2423 38.708 85.0538 41.7671 77.5591 48.9577 67.3702 53.2416 56.2812 53.0083 46.5246 52.8064 37.6131 49.1414 30.7154 43.162 30.7107 43.1578 30.7071 43.1596 30.7071 43.1661 30.7467 44.349 31.3827 45.8844 30.9156 46.7744 30.9032 46.7986 30.8843 46.8205 30.8695 46.8441 30.8678 46.8464 30.8683 46.8494 30.8707 46.8512 37.9255 52.2802 46.6912 55.5755 56.224 55.7727 56.5275 55.7792 56.8287 55.7822 57.1311 55.7822 68.644 55.7816 79.176 51.2313 86.9631 43.762Z" fill="#737373"/><path d="M90.6943 30.3309C90.6954 30.3291 90.6954 30.328 90.6943 30.3262 90.1439 29.353 89.9484 27.7691 89.2155 27.1018 89.2131 27.0994 89.209 27.1 89.2072 27.1035 87.3452 31.2232 84.7119 34.9296 81.4739 38.0365 74.9287 44.3159 66.0438 48.0406 56.3876 47.8368 48.4026 47.6715 41.062 44.8427 35.2078 40.1714 35.206 40.1696 35.2031 40.1696 35.2013 40.1726 35.183 40.2003 35.1434 40.26 35.1375 40.2676 34.6001 40.9167 33.3375 41.0489 32.3028 41.3436 32.2981 41.3448 32.2969 41.3484 32.301 41.3519 38.7812 46.9646 47.1559 50.4111 56.3309 50.6012 56.5984 50.6071 56.8629 50.6095 57.1293 50.6095 67.2532 50.6095 76.5232 46.612 83.3831 40.0326 86.3153 37.2198 88.785 33.9445 90.6943 30.3309Z" fill="#737373"/><path d="M79.805 36.2997C82.5499 33.667 84.8271 30.5683 86.5237 27.1372 86.5261 27.1319 86.5237 27.1289 86.5178 27.1301 85.7194 27.3598 84.9275 27.573 84.3463 27.3338 84.0765 27.2234 83.8444 27.0055 83.6306 26.7338 83.6288 26.7309 83.6241 26.7315 83.6223 26.7344 82.1223 29.5461 80.1912 32.1026 77.8957 34.3048 72.3001 39.6735 64.7191 42.8377 56.4956 42.6641 49.1727 42.5124 42.4746 39.7373 37.3043 35.1829 37.3031 35.1818 37.3019 35.1818 37.3001 35.1818 36.7739 35.2491 36.3103 35.3814 36.0168 35.6896 35.6637 36.0611 35.5775 36.6641 35.558 37.3243 35.5574 37.3261 35.5586 37.3273 35.5597 37.3284 41.1801 42.246 48.4617 45.262 56.4383 45.4279 56.6693 45.4327 56.8984 45.435 57.1281 45.435 65.8642 45.4356 73.8722 41.9909 79.805 36.2997Z" fill="#737373"/><path d="M76.2262 32.5691C78.6723 30.2234 80.6725 27.4401 82.1223 24.3551 82.1235 24.3533 82.1235 24.3509 82.1217 24.3498 81.8973 24.0834 81.651 23.8779 81.3628 23.7893 80.6808 23.5797 79.8244 24.0397 78.9734 24.4679 78.9723 24.4685 78.9717 24.469 78.9717 24.4696 77.7439 26.7309 76.1772 28.7913 74.3175 30.5754 69.6716 35.0329 63.3945 37.6379 56.6037 37.4938 50.8865 37.3751 45.6199 35.3241 41.4364 31.9089 41.4334 31.9071 41.4293 31.9083 41.4281 31.9118 41.2185 32.9258 41.1204 34.078 40.5222 34.6018 40.5027 34.6189 40.4791 34.6319 40.4584 34.6473 40.4561 34.6491 40.4561 34.6532 40.4584 34.6556 44.9632 38.0755 50.5215 40.133 56.5464 40.2576 56.7413 40.2617 56.9344 40.2635 57.1281 40.2635 64.4747 40.2629 71.2206 37.3709 76.2262 32.5691Z" fill="#737373"/><path d="M72.648 28.8386C73.9667 27.5736 75.1271 26.1545 76.1022 24.6125 76.1033 24.6108 76.1033 24.6078 76.101 24.6061 75.4342 24.0273 74.8277 23.057 74.1492 22.5125 74.1468 22.5108 74.1433 22.5113 74.1415 22.5143 73.2167 24.1035 72.0728 25.5633 70.7375 26.8449 67.04 30.3923 62.0675 32.4362 56.71 32.3223 53.2824 32.2514 50.052 31.303 47.2392 29.6642 47.2369 29.6624 47.2345 29.663 47.2327 29.6654 47.1128 29.8165 46.9806 29.9441 46.8282 30.0345 45.8981 30.5854 44.1535 29.8969 42.9488 30.0256 42.9441 30.0262 42.9429 30.0315 42.9464 30.0345 46.7207 33.1183 51.4788 34.9786 56.6521 35.0861 56.8104 35.089 56.9675 35.0908 57.1252 35.0908 63.0851 35.0896 68.5678 32.7504 72.648 28.8386Z" fill="#737373"/><path d="M69.0692 25.1063C69.5003 24.6935 69.9066 24.257 70.2917 23.8035 70.3029 23.7899 70.2999 23.7869 70.2852 23.7958 69.9054 24.0285 69.5298 24.1891 69.1649 24.182 68.5147 24.1684 67.8538 23.6275 67.1954 23.0812 67.1936 23.0795 67.1906 23.0795 67.1889 23.0812 67.1576 23.1119 66.9184 23.3387 66.8044 23.4415 64.0991 25.8728 60.5752 27.2305 56.8169 27.1496 55.7503 27.1277 54.7092 26.9872 53.7035 26.7445 52.4296 27.0262 50.4247 25.5498 49.2707 26.0954 48.806 26.3151 48.5077 26.8472 48.2508 27.4567 48.2497 27.459 48.2508 27.4614 48.2526 27.4632 50.7631 28.9709 53.668 29.849 56.759 29.9134 56.8813 29.9163 57.0017 29.9175 57.1234 29.9175 61.6955 29.9175 65.9162 28.1305 69.0692 25.1063Z" fill="#737373"/><path d="M57.1234 24.7437C58.1019 24.7437 59.0592 24.6267 59.9811 24.4029 59.9858 24.4011 59.9858 24.3952 59.9823 24.3935 58.9541 23.8915 57.8586 23.0576 56.9935 23.2838 56.4336 23.4303 56.0072 24.0025 55.6033 24.6415 55.6015 24.6444 55.6033 24.6486 55.6068 24.6492 56.0214 24.7005 56.4419 24.733 56.8671 24.7413 56.9527 24.7431 57.0378 24.7442 57.1234 24.7437Z" fill="#737373"/><path d="M58.1994 78.8688C57.499 80.4498 56.86 82.0584 56.2866 83.6925 53.8316 81.7136 51.2544 79.9218 48.5721 78.3285 50.9267 78.6332 53.319 78.8175 55.7456 78.8682 56.5671 78.8848 57.3838 78.8818 58.1994 78.8688Z" fill="#737373"/><path d="M127.53 79.2385C127.4 79.2385 127.268 79.2137 127.14 79.1612 126.161 78.7584 116.552 70.715 113.861 61.9074 112.636 57.8987 113.037 54.3347 115.051 51.314 117.835 47.137 121.21 45.4917 125.482 43.4082 127.813 42.2714 130.455 40.9834 133.474 39.0511 138.139 36.0652 138.181 32.3553 137.982 30.899 137.696 28.7949 136.397 27.0403 134.75 26.5342 128.559 24.6297 121.109 30.4024 117.683 34.114 112.344 39.8979 109.31 45.6228 108.334 48.7675 108.167 49.3085 107.591 49.6108 107.05 49.4431 106.509 49.2754 106.206 48.7002 106.374 48.1593 107.463 44.6496 110.61 38.7511 116.174 32.7221 118.616 30.0764 121.71 27.6882 124.663 26.1687 128.55 24.1684 132.247 23.6169 135.353 24.5724 137.786 25.3212 139.616 27.6953 140.014 30.6215 140.538 34.4678 138.506 38.2645 134.579 40.7785 131.46 42.7746 128.762 44.0903 126.381 45.2514 122.231 47.2746 119.233 48.7368 116.757 52.4514 115.267 54.6861 114.861 57.3265 115.551 60.2976 117.497 68.6817 127.092 76.7487 127.973 77.2867 128.46 77.52 128.686 78.0958 128.478 78.6019 128.316 78.9988 127.933 79.2379 127.53 79.2385Z" fill="#737373"/></g></svg>