<svg width="96" height="96" xmlns="http://www.w3.org/2000/svg" xmlns:xlink="http://www.w3.org/1999/xlink" overflow="hidden"><defs><clipPath id="clip0"><rect x="0" y="0" width="96" height="96"/></clipPath></defs><g clip-path="url(#clip0)"><path d="M83.4 61.5C82.9 58.5 81.3 55.8 78.9 53.9 75.9 51.6 72.7 49.7 69.2 48.4 70.3 45.5 69 42.2 66.2 40.8 73.5 30.8 71.3 16.7 61.3 9.4 51.3 2.1 37.2 4.3 29.9 14.3 24.1 22.2 24.1 32.9 29.9 40.8 27.1 42.3 25.9 45.6 27 48.5 23.6 50 20.3 51.8 17.3 53.9 14.8 55.8 13.2 58.5 12.7 61.6L10.9 83.5 12.5 84C13 84.1 26.5 88 48 88 69.5 88 83 84.1 83.6 83.9L85.2 83.4 83.5 61.6 83.4 61.5ZM31.6 48.2C30.5 47.6 30.2 46.2 30.8 45.1 31.2 44.4 31.9 44 32.7 44 41.3 52 54.6 52 63.2 44 63.4 44 63.6 44 63.7 44.1 64.9 44.4 65.6 45.6 65.3 46.8 65.2 47.4 64.8 47.9 64.3 48.2 60.4 50.6 54.4 52 48 52 41.6 52 35.7 50.6 31.6 48.2ZM60 33C60 34.4 59.8 35.7 59.3 37L54.9 37C54.5 36.4 53.9 36 53.2 36L51.2 36C50.1 36 49.2 36.9 49.2 38 49.2 39.1 50.1 40 51.2 40L53.2 40C53.9 40 54.6 39.6 54.9 39L58.4 39C55.1 44.7 47.8 46.7 42 43.4 38.3 41.3 36 37.3 36 33L36 21.6C39.7 19.8 43.9 18.9 48 19 52.1 18.9 56.3 19.8 60 21.6L60 33ZM48 9C55.3 9 61.9 13.3 64.9 19.9 60.9 16.9 54.9 15 48 15 41.1 15 35.1 16.9 31.1 19.9 34.1 13.3 40.7 9 48 9L48 9ZM69.8 82.5 69 75.8C68.9 74.7 67.9 73.9 66.8 74.1 65.7 74.2 64.9 75.2 65.1 76.3L65.9 83.1C59.9 83.7 54 84 48 84 42 84 36.1 83.7 30.1 83L30.9 76.2C31 75.1 30.3 74.1 29.2 74 28.1 73.9 27.1 74.6 27 75.7L27 75.7 26.2 82.5C20.9 81.8 17.1 80.9 15.2 80.5L16.7 62.1C16.9 60.9 17.3 59.8 18 58.9L23.1 63.3 27 58.7 22.8 55.1C25 53.8 27.3 52.6 29.7 51.7 34.3 54.4 41 56 48 56 55.1 56 61.8 54.4 66.5 51.6 68.9 52.5 71.2 53.6 73.4 55L69 58.7 72.9 63.3 78 58.9C78.7 59.9 79.1 61 79.3 62.1L80.8 80.5C78.9 81 75.1 81.8 69.8 82.5Z"/><path d="M56 61 40 61C37.8 61 36 62.8 36 65L36 73C36 75.2 37.8 77 40 77L56 77C58.2 77 60 75.2 60 73L60 65C60 62.8 58.2 61 56 61ZM40 73 40 65 56 65 56 73 40 73Z"/><path d="M7.2 36C6.6 38.2 5.1 40 3 41 5 42 6.6 43.8 7.2 46 7.8 43.8 9.3 42 11.4 41 9.3 40 7.8 38.2 7.2 36Z"/><path d="M17.8 9C17.2 11.2 15.7 13 13.6 14 15.6 15 17.2 16.8 17.8 19 18.4 16.8 19.9 15 22 14 20 13 18.4 11.2 17.8 9Z"/><path d="M83.8 31.1C83.2 33.3 81.7 35.1 79.6 36.1 81.6 37.1 83.2 38.9 83.8 41.1 84.4 38.9 85.9 37.1 88 36.1 86 35.1 84.4 33.3 83.8 31.1Z"/></g></svg>