<svg width="427" height="352" xmlns="http://www.w3.org/2000/svg" xmlns:xlink="http://www.w3.org/1999/xlink" overflow="hidden"><defs><clipPath id="clip0"><rect x="0" y="0" width="427" height="352"/></clipPath></defs><g clip-path="url(#clip0)"><path d="M388.868 233.262 391.23 233.262 391.23 330.11 388.868 330.11Z" fill="#D2D2D2" transform="matrix(1 0 0 1.00004 -69.9913 -103.999)"/><path d="M445.116 437.056 442.311 438.768 439.857 438.768 388.378 387.291 391.72 383.949 441.814 434.044 442.37 434.044 445.116 435.786Z" fill="#D2D2D2" transform="matrix(1 0 0 1.00004 -69.9913 -103.999)"/><path d="M442.311 434.044 450.579 434.044 450.579 438.768 442.311 438.768Z" fill="#2F2F2F" transform="matrix(1 0 0 1.00004 -69.9913 -103.999)"/><path d="M396.84 252.159 396.84 256.293 389.163 256.293 389.163 259.836 396.84 259.836 396.84 263.97 400.383 263.97 400.383 252.159Z" fill="#737373" transform="matrix(1 0 0 1.00004 -69.9913 -103.999)"/><path d="M334.539 147.043 445.559 147.043 445.559 149.406 415.302 154.517C406.508 156.002 398.288 159.863 391.53 165.683L391.23 165.941 388.868 165.941 388.868 165.941C381.925 159.769 373.369 155.702 364.199 154.215L334.539 149.406 334.539 147.043Z" fill="#D2D2D2" transform="matrix(1 0 0 1.00004 -69.9913 -103.999)"/><path d="M415.899 135.147C406.986 133.701 398.657 129.813 391.821 123.929L391.821 121.06 388.277 121.06 388.277 123.922C381.575 129.604 373.466 133.381 364.796 134.846L334.539 139.957 334.539 142.319 445.559 142.319 445.559 139.957 415.899 135.147Z" fill="#737373" transform="matrix(1 0 0 1.00004 -69.9913 -103.999)"/><path d="M325.385 195.467 325.385 199.601 274.599 199.601 274.599 195.467 264.443 195.467 264.443 207.278 274.599 207.278 274.599 203.144 301.764 203.144 301.764 224.994 302.837 226.175 305.347 226.175 306.488 224.994 306.488 203.144 325.385 203.144 325.385 207.278 335.542 207.278 335.542 195.467Z" fill="#737373" transform="matrix(1 0 0 1.00004 -69.9913 -103.999)"/><path d="M164.76 222.632 268.694 222.632 268.694 210.782C268.694 210.782 266.253 207.317 266.253 200.625 266.253 193.932 268.694 190.782 268.694 190.782L268.694 178.932 164.76 178.932 164.76 222.632Z" fill="#2F2F2F" transform="matrix(1 0 0 1.00004 -69.9913 -103.999)"/><path d="M162.397 178.932 198.003 178.932 198.003 222.632 162.397 222.632Z" fill="#505050" transform="matrix(1 0 0 1.00004 -69.9913 -103.999)"/><path d="M176.289 178.932 232.739 178.932 232.739 222.632 176.289 222.632Z" fill="#737373" transform="matrix(1 0 0 1.00004 -69.9913 -103.999)"/><path d="M160.035 175.389 271.056 175.389 271.056 181.295 160.035 181.295Z" fill="#D2D2D2" transform="matrix(1 0 0 1.00004 -69.9913 -103.999)"/><path d="M160.035 220.27 271.056 220.27 271.056 226.175 160.035 226.175Z" fill="#D2D2D2" transform="matrix(1 0 0 1.00004 -69.9913 -103.999)"/><path d="M253.444 190.743 268.694 190.743 268.694 210.821 253.444 210.821Z" fill="#505050" transform="matrix(1 0 0 1.00004 -69.9913 -103.999)"/><path d="M231.49 173.027 235.033 173.027 235.033 181.295 231.49 181.295Z" fill="#E6E6E6" transform="matrix(1 0 0 1.00004 -69.9913 -103.999)"/><path d="M253.93 173.027 257.474 173.027 257.474 181.295 253.93 181.295Z" fill="#E6E6E6" transform="matrix(1 0 0 1.00004 -69.9913 -103.999)"/><path d="M196.058 173.027 199.601 173.027 199.601 181.295 196.058 181.295Z" fill="#E6E6E6" transform="matrix(1 0 0 1.00004 -69.9913 -103.999)"/><path d="M187.2 196.648C186.548 196.648 186.019 196.119 186.019 195.467L186.019 188.381C186.019 187.729 186.548 187.2 187.2 187.2 187.852 187.2 188.381 187.729 188.381 188.381L188.381 195.467C188.381 196.119 187.852 196.648 187.2 196.648Z" fill="#D2D2D2" transform="matrix(1 0 0 1.00004 -69.9913 -103.999)"/><path d="M187.2 216.727C186.548 216.727 186.019 216.198 186.019 215.546L186.019 200.192C186.019 199.54 186.548 199.011 187.2 199.011 187.852 199.011 188.381 199.54 188.381 200.192L188.381 215.546C188.381 216.198 187.852 216.727 187.2 216.727Z" fill="#D2D2D2" transform="matrix(1 0 0 1.00004 -69.9913 -103.999)"/><path d="M231.49 220.27 235.033 220.27 235.033 228.537 231.49 228.537Z" fill="#E6E6E6" transform="matrix(1 0 0 1.00004 -69.9913 -103.999)"/><path d="M253.93 220.27 257.474 220.27 257.474 228.537 253.93 228.537Z" fill="#E6E6E6" transform="matrix(1 0 0 1.00004 -69.9913 -103.999)"/><path d="M196.058 220.27 199.601 220.27 199.601 228.537 196.058 228.537Z" fill="#E6E6E6" transform="matrix(1 0 0 1.00004 -69.9913 -103.999)"/><path d="M413.375 222.632 331.291 222.632 331.291 210.743C331.291 210.743 333.968 207.042 333.968 200.664 333.968 194.286 331.291 190.783 331.291 190.783L331.291 178.932 413.375 178.932 413.375 222.632Z" fill="#505050" transform="matrix(1 0 0 1.00004 -69.9913 -103.999)"/><path d="M384.266 178.932 419.871 178.932 419.871 222.632 384.266 222.632Z" fill="#2F2F2F" transform="matrix(-1 -5.04e-11 5.0398e-11 -1.00004 734.147 297.582)"/><path d="M375.795 178.932 405.979 178.932 405.979 222.632 375.795 222.632Z" fill="#737373" transform="matrix(-1 -6.56089e-11 6.56063e-11 -1.00004 711.784 297.582)"/><path d="M328.929 175.389 422.233 175.389 422.233 181.295 328.929 181.295Z" fill="#D2D2D2" transform="matrix(-1 -5.34208e-11 5.34187e-11 -1.00004 681.17 252.699)"/><path d="M328.336 220.27 422.233 220.27 422.233 226.175 328.336 226.175Z" fill="#D2D2D2" transform="matrix(-1 -5.30838e-11 5.30817e-11 -1.00004 680.58 342.464)"/><path d="M331.291 190.743 346.54 190.743 346.54 210.821 331.291 210.821Z" fill="#2F2F2F" transform="matrix(-1 -4.49087e-11 4.49069e-11 -1.00004 607.838 297.582)"/><path d="M344.873 173.027 348.416 173.027 348.416 181.295 344.873 181.295Z" fill="#E6E6E6" transform="matrix(1 0 0 1.00004 -69.9913 -103.999)"/><path d="M373.219 173.027 376.762 173.027 376.762 181.295 373.219 181.295Z" fill="#E6E6E6" transform="matrix(1 0 0 1.00004 -69.9913 -103.999)"/><path d="M403.927 173.027 407.47 173.027 407.47 181.295 403.927 181.295Z" fill="#E6E6E6" transform="matrix(1 0 0 1.00004 -69.9913 -103.999)"/><path d="M380.896 196.648C380.244 196.648 379.715 196.119 379.715 195.467L379.715 188.381C379.715 187.729 380.244 187.2 380.896 187.2 381.548 187.2 382.077 187.729 382.077 188.381L382.077 195.467C382.077 196.119 381.548 196.648 380.896 196.648Z" fill="#D2D2D2" transform="matrix(1 0 0 1.00004 -69.9913 -103.999)"/><path d="M380.896 216.727C380.244 216.727 379.715 216.198 379.715 215.546L379.715 200.192C379.715 199.54 380.244 199.011 380.896 199.011 381.548 199.011 382.077 199.54 382.077 200.192L382.077 215.546C382.077 216.198 381.548 216.727 380.896 216.727Z" fill="#D2D2D2" transform="matrix(1 0 0 1.00004 -69.9913 -103.999)"/><path d="M175.389 162.988 177.751 162.988 177.751 262.788 175.389 262.788Z" fill="#D2D2D2" transform="matrix(1 0 0 1.00004 -69.9913 -103.999)"/><path d="M121.06 147.043 232.081 147.043 232.081 149.406 201.823 154.517C193.029 156.002 184.809 159.863 178.051 165.683L177.751 165.941 175.389 165.941 175.389 165.941C168.446 159.769 159.89 155.702 150.721 154.215L121.06 149.406 121.06 147.043Z" fill="#D2D2D2" transform="matrix(1 0 0 1.00004 -69.9913 -103.999)"/><path d="M202.42 135.147C193.507 133.701 185.178 129.813 178.342 123.929L178.342 121.06 174.799 121.06 174.799 123.922C168.096 129.604 159.987 133.381 151.318 134.846L121.06 139.957 121.06 142.319 232.081 142.319 232.081 139.957 202.42 135.147Z" fill="#737373" transform="matrix(1 0 0 1.00004 -69.9913 -103.999)"/><path d="M228.335 434.044 178.932 384.641 178.932 260.426 174.208 260.426 174.208 384.641 124.806 434.044 124.599 434.044 122.211 435.786 122.226 436.731 124.596 438.768 126.763 438.768 159.445 406.086 174.208 420.85 178.932 420.85 193.696 406.086 226.378 438.768 228.537 438.768 230.575 437.469 230.59 435.535 228.552 434.044 228.335 434.044ZM162.785 402.746 174.208 391.323 174.208 414.168 162.785 402.746ZM178.932 414.168 178.932 391.323 190.355 402.746 178.932 414.168Z" fill="#D2D2D2" transform="matrix(1 0 0 1.00004 -69.9913 -103.999)"/><path d="M183.066 252.159 183.066 256.293 175.389 256.293 175.389 259.836 183.066 259.836 183.066 263.97 186.609 263.97 186.609 252.159Z" fill="#737373" transform="matrix(1 0 0 1.00004 -69.9913 -103.999)"/><path d="M116.336 434.044 124.603 434.044 124.603 438.768 116.336 438.768Z" fill="#2F2F2F" transform="matrix(1 0 0 1.00004 -69.9913 -103.999)"/><path d="M228.537 434.044 236.805 434.044 236.805 438.768 228.537 438.768Z" fill="#2F2F2F" transform="matrix(1 0 0 1.00004 -69.9913 -103.999)"/><path d="M410.422 332.472C410.422 391.178 362.832 438.768 304.126 438.768 245.42 438.768 197.83 391.178 197.83 332.472 197.83 273.766 245.42 226.175 304.126 226.175 362.832 226.175 410.422 273.766 410.422 332.472Z" fill="#2F2F2F" transform="matrix(1 0 0 1.00004 -69.9913 -103.999)"/><path d="M399.793 332.472C399.793 385.307 356.961 428.139 304.126 428.139 251.291 428.139 208.459 385.307 208.459 332.472 208.459 279.636 251.291 236.805 304.126 236.805 356.961 236.805 399.793 279.636 399.793 332.472Z" fill="#FFC000" transform="matrix(1 0 0 1.00004 -69.9913 -103.999)"/><path d="M217.435 334.243C216.787 334.243 216.259 333.72 216.254 333.071 216.131 315.165 221.127 298.646 231.104 283.975 236.028 276.862 241.567 270.964 249.631 264.244 261.252 254.947 275.197 248.861 289.977 246.628 304.407 244.448 319.384 245.955 333.291 250.984 333.904 251.206 334.221 251.883 334 252.497 333.778 253.11 333.102 253.428 332.488 253.206 318.949 248.309 304.37 246.842 290.33 248.963 275.96 251.134 262.403 257.05 251.125 266.073 243.252 272.634 237.842 278.392 233.052 285.311 223.355 299.571 218.497 315.637 218.617 333.055 218.621 333.707 218.096 334.239 217.444 334.244 217.441 334.243 217.438 334.243 217.435 334.243Z" fill="#FFFFFF" transform="matrix(1 0 0 1.00004 -69.9913 -103.999)"/><path d="M385.178 361.477C385.052 361.477 384.923 361.456 384.797 361.413 384.18 361.202 383.85 360.53 384.061 359.913 393.192 333.172 388.127 303.535 370.511 280.634 361.449 269.76 351.29 261.725 339.483 256.104 338.894 255.824 338.644 255.119 338.925 254.53 339.204 253.94 339.908 253.69 340.499 253.971 352.62 259.741 363.04 267.98 372.355 279.157 390.484 302.723 395.684 333.184 386.296 360.676 386.128 361.168 385.67 361.477 385.178 361.477Z" fill="#FFFFFF" transform="matrix(1 0 0 1.00004 -69.9913 -103.999)"/><path d="M365.337 394.179C365.041 394.179 364.745 394.068 364.515 393.846 364.047 393.391 364.035 392.644 364.49 392.176 371.562 384.882 377.23 376.414 381.335 367.004 381.595 366.406 382.293 366.132 382.89 366.394 383.488 366.654 383.761 367.351 383.5 367.949 379.281 377.619 373.455 386.323 366.185 393.82 365.953 394.058 365.646 394.179 365.337 394.179Z" fill="#FFFFFF" transform="matrix(1 0 0 1.00004 -69.9913 -103.999)"/><path d="M303.535 420.343C302.895 420.343 302.37 419.833 302.354 419.19 302.339 418.538 302.855 417.997 303.508 417.982 326.205 417.448 345.875 410.157 358.894 397.453 359.361 396.997 360.109 397.007 360.565 397.473 361.02 397.94 361.011 398.688 360.544 399.144 347.096 412.267 326.859 419.795 303.563 420.343 303.554 420.343 303.544 420.343 303.535 420.343Z" fill="#FFFFFF" transform="matrix(1 0 0 1.00004 -69.9913 -103.999)"/><path d="M301.764 224.994 306.488 224.994 306.488 233.262 301.764 233.262Z" fill="#D2D2D2" transform="matrix(1 0 0 1.00004 -69.9913 -103.999)"/><path d="M156.463 154.155 159.804 150.814 165.65 156.66 162.309 160.001Z" fill="#D2D2D2"/><path d="M196.648 330.11 204.916 330.11 204.916 334.834 196.648 334.834Z" fill="#D2D2D2" transform="matrix(1 0 0 1.00004 -69.9913 -103.999)"/><path d="M156.462 302.816 162.308 296.97 165.648 300.311 159.803 306.157Z" fill="#D2D2D2"/><path d="M301.764 431.682 306.488 431.682 306.488 439.949 301.764 439.949Z" fill="#D2D2D2" transform="matrix(1 0 0 1.00004 -69.9913 -103.999)"/><path d="M302.611 300.312 305.952 296.971 311.798 302.817 308.457 306.158Z" fill="#D2D2D2"/><path d="M403.336 330.11 411.604 330.11 411.604 334.834 403.336 334.834Z" fill="#D2D2D2" transform="matrix(1 0 0 1.00004 -69.9913 -103.999)"/><path d="M302.613 156.661 308.458 150.815 311.799 154.156 305.954 160.002Z" fill="#D2D2D2"/><path d="M201.17 438.768 198.991 438.768 196.688 436.997 196.688 435.796 198.932 434.044 199.213 434.044 227.014 406.242 230.356 409.583Z" fill="#737373" transform="matrix(1 0 0 1.00004 -69.9913 -103.999)"/><path d="M190.743 434.044 199.011 434.044 199.011 438.768 190.743 438.768Z" fill="#2F2F2F" transform="matrix(1 0 0 1.00004 -69.9913 -103.999)"/><path d="M417.583 438.842 407.156 438.842 377.97 409.657 381.311 406.316 409.113 434.118 417.583 434.118Z" fill="#737373" transform="matrix(1 0 0 1.00004 -69.9913 -103.999)"/><path d="M409.315 434.118 417.583 434.118 417.583 438.842 409.315 438.842Z" fill="#2F2F2F" transform="matrix(1 0 0 1.00004 -69.9913 -103.999)"/></g></svg>